<svg width="257" height="246" viewBox="0 0 257 246" fill="none" xmlns="http://www.w3.org/2000/svg">
<path d="M12.6602 51.5552H93.5684" stroke="#7B868C" stroke-width="1.55178" stroke-miterlimit="10" stroke-linecap="round" stroke-linejoin="round"/>
<path d="M161.521 51.5552H242.419" stroke="#7B868C" stroke-width="1.55178" stroke-miterlimit="10" stroke-linecap="round" stroke-linejoin="round"/>
<path d="M128.522 38.9894C131.668 45.4575 132.467 52.8944 130.889 61.1956L162.595 6.98133C162.585 6.97183 133.712 16.3463 128.522 38.9894Z" fill="#8D9AA0"/>
<path d="M91.4759 18.7587C91.4759 18.7587 90.8106 63.0856 128.114 61.1195L91.4759 18.7587Z" fill="#8D9AA0"/>
<path d="M91.4775 18.7587C91.4775 18.7587 135.462 24.5144 128.116 61.1195L91.4775 18.7587Z" fill="#6D6D6D"/>
<path d="M162.586 6.9718C162.586 6.9718 172.423 55.6962 130.88 61.186L162.586 6.9718Z" fill="#6D6D6D"/>
<path d="M35.8774 166.585C22.0299 166.585 10.7676 178.106 10.7676 192.267C10.7676 206.248 22.144 217.617 36.134 217.617C41.1236 217.617 45.8472 216.126 49.7723 213.305C53.8781 210.513 57.2426 206.286 59.5045 201.081C59.5616 200.958 59.5521 200.806 59.4665 200.692C59.3905 200.578 59.2574 200.502 59.1244 200.502H44.7067C44.5831 200.502 44.4596 200.559 44.3835 200.654C42.3592 203.209 40.1827 204.909 36.134 204.909C30.7262 204.909 26.5539 201.679 25.594 196.826H60.4074C60.607 196.826 60.7876 196.674 60.8161 196.475L60.8826 196.038C61.0347 195.116 61.1582 194.319 61.1582 192.675C61.1582 185.58 58.6112 179.008 53.9922 174.164C49.3067 169.282 42.8724 166.585 35.8774 166.585ZM25.7935 186.511C27.2857 180.822 32.8456 179.274 35.9629 179.274C39.0803 179.274 44.6401 180.813 46.1323 186.511H25.7935Z" fill="#DCDCDC"/>
<path d="M115.902 168.19H101.817C101.589 168.19 101.408 168.37 101.408 168.598V172.492C99.8495 170.384 95.9054 166.566 87.9029 166.566C81.4877 166.566 75.5001 169.007 71.0617 173.452C66.3191 178.191 63.8101 184.631 63.8101 192.087C63.8101 198.992 66.0625 205.355 70.1493 210.009C74.5592 215.034 80.6988 217.684 87.9029 217.684C94.8884 217.684 99.3268 214.787 101.408 211.766V215.661C101.408 215.888 101.589 216.069 101.817 216.069H115.902C116.13 216.069 116.311 215.888 116.311 215.661V168.589C116.32 168.38 116.13 168.19 115.902 168.19ZM101.399 192.096C101.399 196.769 98.3669 203.731 90.0128 203.731C81.4782 203.731 78.7125 196.009 78.7125 192.267C78.7125 187.737 81.7538 180.556 89.9273 180.556C97.464 180.547 101.399 186.359 101.399 192.096Z" fill="#DCDCDC"/>
<path d="M170.732 168.19H156.647C156.419 168.19 156.238 168.37 156.238 168.598V171.942C153.663 168.617 148.996 166.661 143.493 166.661C137.135 166.661 131.186 169.064 126.738 173.414C121.881 178.172 119.315 184.745 119.315 192.429C119.315 199.647 121.872 206.163 126.51 210.769C130.957 215.176 136.983 217.608 143.484 217.608C151.011 217.608 154.727 213.685 156.143 211.662V211.937C156.143 223.126 148.416 224.332 145.1 224.332C142.885 224.332 138.922 223.762 137.249 219.916C137.183 219.764 137.031 219.669 136.869 219.669H120.569C120.446 219.669 120.341 219.716 120.256 219.811C120.18 219.897 120.142 220.02 120.161 220.134C120.731 224.209 122.955 228.226 126.262 231.171C130.644 235.055 136.641 237.031 144.083 237.031C149.566 237.031 154.794 235.863 159.185 233.659C163.119 231.684 166.351 228.863 168.29 225.719C170.675 221.568 171.141 216.81 171.141 209.99V168.598C171.141 168.38 170.96 168.19 170.732 168.19ZM156.229 192.353C156.229 199.001 151.648 203.646 145.1 203.646C138.038 203.646 134.227 197.605 134.227 191.925C134.227 185.59 139.045 180.632 145.185 180.632C151.686 180.632 156.229 185.457 156.229 192.353Z" fill="#DCDCDC"/>
<path d="M190.177 146.639H176.092C175.864 146.639 175.683 146.82 175.683 147.048V215.67C175.683 215.898 175.864 216.079 176.092 216.079H190.177C190.405 216.079 190.586 215.898 190.586 215.67V147.048C190.586 146.82 190.405 146.639 190.177 146.639Z" fill="#DCDCDC"/>
<path d="M237.011 174.183C232.325 169.282 225.9 166.585 218.896 166.585C205.048 166.585 193.786 178.106 193.786 192.267C193.786 206.248 205.163 217.617 219.153 217.617C224.142 217.617 228.866 216.126 232.791 213.305C236.897 210.513 240.261 206.286 242.523 201.081C242.58 200.958 242.571 200.806 242.485 200.692C242.409 200.578 242.276 200.502 242.143 200.502H227.716C227.592 200.502 227.469 200.559 227.393 200.654C225.368 203.209 223.192 204.909 219.143 204.909C213.735 204.909 209.563 201.679 208.603 196.826H243.416C243.616 196.826 243.797 196.674 243.825 196.475L243.892 196.047C244.044 195.126 244.167 194.328 244.167 192.675C244.186 185.599 241.639 179.027 237.011 174.183ZM229.16 186.511H208.822C210.314 180.822 215.874 179.274 218.991 179.274C222.108 179.283 227.668 180.822 229.16 186.511Z" fill="#DCDCDC"/>
<path d="M68.3536 132.117V87.2771C68.3536 87.0491 68.1731 86.8687 67.945 86.8687H52.6719C52.4438 86.8687 52.2632 87.0491 52.2632 87.2771V91.0003C49.4975 87.3531 44.4128 85.2065 38.4253 85.2065C31.5443 85.2065 25.11 87.7995 20.301 92.52C15.0452 97.6678 12.27 104.791 12.27 113.102C12.27 120.919 15.0357 127.966 20.0634 132.943C24.8724 137.721 31.4017 140.342 38.4348 140.342C46.6843 140.342 50.7045 135.983 52.1872 133.826V134.235C52.1872 146.383 43.7951 147.703 40.1835 147.703C37.779 147.703 33.4641 147.076 31.6394 142.897C31.5728 142.745 31.4208 142.65 31.2592 142.65H13.5911C13.4675 142.65 13.363 142.698 13.2775 142.793C13.2014 142.878 13.1634 143.002 13.1824 143.115C13.8002 147.523 16.2047 151.873 19.7782 155.045C24.5208 159.252 31.0026 161.39 39.062 161.39C45.0021 161.39 50.657 160.126 55.4091 157.742C59.6669 155.605 63.1644 152.556 65.2553 149.147C67.8499 144.645 68.3536 139.497 68.3536 132.117ZM52.2632 113.007C52.2632 120.235 47.2926 125.278 40.1645 125.278C32.4852 125.278 28.3509 118.715 28.3509 112.551C28.3509 105.675 33.5782 100.28 40.2596 100.28C47.3306 100.27 52.2632 105.513 52.2632 113.007Z" fill="#DCDCDC"/>
<path d="M75.4637 82.262H90.7273C90.9554 82.262 91.1359 82.0815 91.1359 81.8536V70.2661C91.1359 70.0381 90.9554 69.8577 90.7273 69.8577H75.4637C75.2356 69.8577 75.055 70.0381 75.055 70.2661V81.8441C75.0455 82.0815 75.2356 82.262 75.4637 82.262Z" fill="#DCDCDC"/>
<path d="M75.4637 138.689H90.7273C90.9554 138.689 91.1359 138.509 91.1359 138.281V87.2771C91.1359 87.0491 90.9554 86.8687 90.7273 86.8687H75.4637C75.2356 86.8687 75.055 87.0491 75.055 87.2771V138.281C75.0455 138.499 75.2356 138.689 75.4637 138.689Z" fill="#DCDCDC"/>
<path d="M121.701 140.437C129.324 140.437 134.142 137.246 136.366 133.95V138.281C136.366 138.509 136.547 138.69 136.775 138.69H152.038C152.266 138.69 152.447 138.509 152.447 138.281V87.2772C152.447 87.0493 152.266 86.8688 152.038 86.8688H136.775C136.547 86.8688 136.366 87.0493 136.366 87.2772V91.6083C134.722 89.3478 130.464 85.1212 121.701 85.1212C114.754 85.1212 108.282 87.7711 103.482 92.5676C98.3498 97.6965 95.6411 104.668 95.6411 112.732C95.6411 120.207 98.0742 127.093 102.503 132.127C107.265 137.559 113.908 140.437 121.701 140.437ZM111.722 112.912C111.722 107.992 115.029 100.185 123.906 100.185C132.089 100.185 136.366 106.492 136.366 112.732C136.366 117.813 133.068 125.373 123.992 125.373C114.716 125.364 111.722 116.977 111.722 112.912Z" fill="#DCDCDC"/>
<path d="M206.943 138.281V106.397C206.943 96.1673 203.722 92.0642 200.918 89.6327C197.896 87.0208 192.298 85.1212 187.593 85.1212C179.135 85.1212 175.599 89.1293 173.936 91.5893V87.2772C173.936 87.0493 173.755 86.8688 173.527 86.8688H159.271C159.043 86.8688 158.862 87.0493 158.862 87.2772V138.281C158.862 138.509 159.043 138.69 159.271 138.69H174.535C174.763 138.69 174.943 138.509 174.943 138.281V110.528C174.943 107.46 174.943 100.28 183.269 100.28C190.853 100.28 190.853 106.89 190.853 110.433V138.281C190.853 138.509 191.034 138.69 191.262 138.69H206.525C206.763 138.69 206.943 138.5 206.943 138.281Z" fill="#DCDCDC"/>
<path d="M208.975 99.2633H217.253V138.271C217.253 138.499 217.434 138.68 217.662 138.68H232.926C233.154 138.68 233.334 138.499 233.334 138.271V99.2633H242.572C242.8 99.2633 242.981 99.0828 242.981 98.8549V87.2769C242.981 87.0489 242.8 86.8685 242.572 86.8685H233.334V70.2661C233.334 70.0381 233.154 69.8577 232.926 69.8577H217.662C217.434 69.8577 217.253 70.0381 217.253 70.2661V86.859H208.975C208.747 86.859 208.567 87.0394 208.567 87.2674V98.8454C208.557 99.0828 208.747 99.2633 208.975 99.2633Z" fill="#DCDCDC"/>
<path d="M250.538 194.224C250.538 195.667 249.36 196.816 247.943 196.816C246.489 196.816 245.339 195.639 245.339 194.224C245.339 192.808 246.48 191.631 247.943 191.631C249.388 191.631 250.538 192.799 250.538 194.224ZM245.881 194.224C245.881 195.363 246.784 196.304 247.934 196.304C249.065 196.304 249.987 195.382 249.987 194.224C249.987 193.093 249.093 192.143 247.934 192.143C246.765 192.143 245.881 193.093 245.881 194.224ZM248.086 192.761C248.267 192.761 249.131 192.761 249.131 193.568C249.131 193.891 248.979 194.195 248.58 194.29V194.299C248.989 194.413 249.065 194.66 249.074 195.04C249.103 195.544 249.103 195.601 249.17 195.724H248.656C248.599 195.639 248.58 195.544 248.571 195.173C248.552 194.708 248.457 194.575 247.943 194.537H247.335V195.724H246.822V192.751H248.086V192.761ZM247.345 194.062H247.953C248.162 194.062 248.618 194.062 248.618 193.587C248.58 193.274 248.276 193.245 248.019 193.245H247.335V194.062H247.345Z" fill="#DCDCDC"/>
</svg>
