<svg width="274" height="108" viewBox="0 0 274 108" fill="none" xmlns="http://www.w3.org/2000/svg">
<path d="M0 26.0905H15.6367V34.3487C18.441 28.1392 23.2185 25.0332 29.9637 25.0332C36.982 25.0332 41.2326 28.1392 42.7132 34.3487C45.3974 28.1392 50.2397 25.0332 57.2338 25.0332C61.1387 25.0332 64.2552 25.7383 66.5679 27.1556C68.8797 28.5713 70.4883 30.5086 71.3992 32.9644C72.3061 35.4209 72.7627 40.0477 72.7627 46.8494V85.7618H56.2238V48.5475C56.2238 44.1051 55.9022 41.2164 55.2622 39.8791C54.6245 38.5402 53.2071 37.8704 51.0061 37.8704C48.3657 37.8704 46.6431 38.7473 45.847 40.4971C45.047 42.2501 44.6512 45.778 44.6512 51.0849V85.7618H28.1131V48.0142C28.1131 43.7686 27.8079 41.0187 27.2092 39.7614C26.6075 38.5034 25.2408 37.8704 23.1077 37.8704C20.4688 37.8704 18.7134 38.7889 17.8439 40.6164C16.9721 42.4446 16.5358 45.9349 16.5358 51.0849V85.7618H0V26.0905ZM104.427 36.0928C99.4136 36.0928 96.8869 40.4376 96.8504 49.1239H112.001C112.039 48.4229 112.057 47.8786 112.057 47.4853C112.057 39.8908 109.513 36.0928 104.427 36.0928ZM104.497 75.4872C109.242 75.4872 112.006 72.4184 112.792 66.2825H127.565C124.956 80.1977 117.157 87.1526 104.17 87.1526C96.1581 87.1526 90.0736 84.4166 85.9136 78.9406C81.7529 73.46 79.6706 66.1314 79.6706 56.9496C79.6706 46.5877 81.8772 38.6747 86.292 33.2192C90.7099 27.7606 96.6266 25.0332 104.052 25.0332C110.741 25.0332 116.333 27.4467 120.824 32.2658C125.317 37.0919 127.565 45.9434 127.565 58.8202H96.7338V62.1069C96.7338 67.4318 97.444 70.9883 98.8759 72.7882C100.305 74.5849 102.176 75.4872 104.497 75.4872ZM135.854 25.9604H152.433V85.7618H135.854V25.9604ZM162.467 25.4968H179.144V83.54C179.144 89.7188 178.809 94.3569 178.136 97.4691C177.462 100.566 175.867 103.025 173.34 104.837C170.81 106.642 167.593 107.55 163.68 107.55C161.193 107.55 158.211 107.269 154.736 106.711V92.9344C155.567 93.0583 156.298 93.1159 156.939 93.1159C159.396 93.1159 160.93 92.4966 161.544 91.2722C162.163 90.0415 162.467 87.3094 162.467 83.0698V25.4968ZM211.269 36.0928C206.25 36.0928 203.727 40.4376 203.691 49.1239H218.842C218.877 48.4229 218.901 47.8786 218.901 47.4853C218.901 39.8908 216.357 36.0928 211.269 36.0928ZM211.335 75.4872C216.082 75.4872 218.846 72.4184 219.635 66.2825H234.407C231.797 80.1977 224.002 87.1526 211.012 87.1526C203.004 87.1526 196.916 84.4166 192.755 78.9406C188.593 73.46 186.512 66.1314 186.512 56.9496C186.512 46.5877 188.72 38.6747 193.136 33.2192C197.551 27.7606 203.466 25.0332 210.9 25.0332C217.585 25.0332 223.176 27.4467 227.671 32.2658C232.158 37.0919 234.407 45.9434 234.407 58.8202H203.573V62.1069C203.573 67.4318 204.293 70.9883 205.716 72.7882C207.146 74.5849 209.021 75.4872 211.335 75.4872ZM242.235 25.7915H256.84V40.335C259.441 30.1341 264.083 25.0332 270.757 25.0332C271.57 25.0332 272.501 25.1309 273.551 25.3288V41.8185C272.347 41.664 271.436 41.5797 270.811 41.5797C262.799 41.5797 258.795 47.7281 258.795 60.0297V85.7618H242.235V25.7915Z" fill="#DCDCDC"/>
<path d="M152.893 9.27077C152.893 14.3932 148.668 18.5431 143.452 18.5431C138.237 18.5431 134.012 14.3932 134.012 9.27077C134.012 4.15071 138.237 0 143.452 0C148.668 0 152.893 4.15071 152.893 9.27077ZM179.604 9.27077C179.604 14.3932 175.375 18.5431 170.162 18.5431C164.948 18.5431 160.722 14.3932 160.722 9.27077C160.722 4.15071 164.948 0 170.162 0C175.375 0 179.604 4.15071 179.604 9.27077Z" fill="#6D6D6D"/>
</svg>
