<svg width="145" height="145" viewBox="0 0 145 145" fill="none" xmlns="http://www.w3.org/2000/svg">
<path d="M81.6924 41.9259C102.209 41.9259 122.726 41.9259 143.864 41.9259C141.717 46.6972 139.57 51.4685 137.358 56.3844C132.779 70.5681 134.4 81.6699 140.919 94.8564C141.567 96.116 142.237 97.3638 142.91 98.6107C143.864 100.483 143.864 100.483 143.864 101.929C122.87 101.929 101.877 101.929 80.2466 101.929C81.3202 98.7079 82.4707 95.6564 83.7708 92.5307C90.4368 75.9294 90.1136 64.1039 83.2738 47.8449C82.971 47.1692 82.6681 46.4936 82.3561 45.7975C81.6924 44.0947 81.6924 44.0947 81.6924 41.9259Z" fill="white"/>
<path d="M48.4404 108.439C72.5356 108.439 96.6307 108.439 121.456 108.439C121.456 117.504 121.456 126.57 121.456 135.91C97.3609 135.91 73.2657 135.91 48.4404 135.91C48.4404 126.845 48.4404 117.779 48.4404 108.439Z" fill="#1E5E58"/>
<path d="M48.4404 7.9447C72.5356 7.9447 96.6307 7.9447 121.456 7.9447C121.456 16.7716 121.456 25.5986 121.456 34.693C115.865 34.8943 115.865 34.8943 110.16 35.0996C108.992 35.1589 107.824 35.2181 106.62 35.2791C99.201 35.409 99.201 35.409 96.6654 33.3428C95.51 31.649 94.7162 30.099 93.9848 28.1866C93.6851 27.5637 93.3853 26.9408 93.0765 26.299C92.8104 25.4441 92.8104 25.4441 92.5389 24.572C93.0161 23.8563 93.4932 23.1406 93.9848 22.4032C93.853 19.6362 93.853 19.6362 92.5389 17.3427C86.6386 16.7272 86.6386 16.7272 81.2432 18.6982C80.1634 19.6644 79.105 20.6557 78.0804 21.6803C78.3141 24.2805 78.3141 24.2805 78.8033 26.7408C80.2347 27.2179 81.6661 27.695 83.1409 28.1866C83.4987 31.4073 83.4987 31.4073 83.8638 34.693C72.1741 34.693 60.4844 34.693 48.4404 34.693C48.4404 25.866 48.4404 17.0391 48.4404 7.9447Z" fill="#1E5D57"/>
<path d="M48.4404 73.7423C59.653 73.7423 70.8656 73.7423 82.418 73.7423C80.6199 84.5305 78.2435 90.9264 73.7428 101.214C65.3931 101.214 57.0433 101.214 48.4404 101.214C48.4404 92.148 48.4404 83.0825 48.4404 73.7423Z" fill="#1E5D57"/>
<path d="M48.4404 41.9259C57.0288 41.9259 65.6172 41.9259 74.4658 41.9259C82.418 60.3072 82.418 60.3072 82.418 67.2283C71.2054 67.2283 59.9928 67.2283 48.4404 67.2283C48.4404 58.8785 48.4404 50.5287 48.4404 41.9259Z" fill="#1E5E58"/>
<path d="M48.4404 7.9447C72.5356 7.9447 96.6307 7.9447 121.456 7.9447C121.456 16.7716 121.456 25.5986 121.456 34.693C120.979 34.693 120.502 34.693 120.01 34.693C119.652 22.1683 119.652 22.1683 119.287 9.39055C96.1463 9.15199 73.0055 8.91342 49.1634 8.66763C48.9248 9.14476 48.6862 9.62189 48.4404 10.1135C48.4404 9.39778 48.4404 8.68209 48.4404 7.9447Z" fill="#36635E"/>
<path d="M48.4404 41.9259C56.7902 41.9259 65.14 41.9259 73.7428 41.9259C73.7428 42.1645 73.7428 42.403 73.7428 42.6488C65.6316 42.6488 57.5204 42.6488 49.1634 42.6488C49.4019 50.0444 49.6405 57.4399 49.8863 65.0595C60.1446 65.2981 70.4029 65.5367 80.9721 65.7825C81.2107 64.8282 81.4492 63.8739 81.695 62.8908C82.418 63.6137 82.418 63.6137 82.418 67.2283C71.2054 67.2283 59.9928 67.2283 48.4404 67.2283C48.4404 58.8785 48.4404 50.5287 48.4404 41.9259Z" fill="#295953"/>
<path d="M41.9346 107.723C41.0122 111.412 39.1713 112.28 36.1504 114.229C35.831 114.442 35.5116 114.654 35.1924 114.867C34.8718 115.086 34.604 115.27 33.9697 115.703C32.9776 116.383 31.9852 117.061 30.9932 117.741C30.5263 118.06 30.0592 118.379 29.5781 118.707C24.6743 122.07 19.8603 125.535 15.0205 128.994C14.8397 129.129 14.6581 129.263 14.4775 129.398C27.6969 129.756 27.7044 129.757 41.2051 130.122V130.133C41.207 130.133 41.209 130.134 41.2109 130.134V135.194H1.4502C1.45155 135.189 1.45276 135.183 1.4541 135.178H1.44922C1.51303 134.922 1.5762 134.684 1.63867 134.462C2.27276 132.041 2.60356 131.697 4.81641 130.111C5.37153 129.708 5.92708 129.304 6.49902 128.889C7.39948 128.252 7.39958 128.252 8.31836 127.603C8.92856 127.163 9.5383 126.723 10.167 126.269C11.5065 125.306 12.8508 124.35 14.1963 123.395C16.0284 121.868 17.9558 120.465 19.9688 119.052C20.7962 118.456 20.7964 118.456 21.6406 117.848C22.1718 117.472 22.7028 117.097 23.25 116.711C23.7304 116.37 24.2111 116.03 24.7061 115.68C25.071 115.475 25.4214 115.325 25.7646 115.215C26.5758 114.645 27.3865 114.075 28.1982 113.506C14.9582 113.148 14.958 113.148 1.4502 112.783V107.723H41.9346Z" fill="white"/>
<path d="M48.4404 73.7423C59.653 73.7423 70.8656 73.7423 82.418 73.7423C82.1794 75.1737 81.9408 76.6051 81.695 78.0799C81.3372 76.6485 81.3372 76.6485 80.9721 75.1882C70.2367 75.1882 59.5012 75.1882 48.4404 75.1882C48.4404 74.711 48.4404 74.2339 48.4404 73.7423Z" fill="#3E6E69"/>
<path fill-rule="evenodd" clip-rule="evenodd" d="M38.3166 73.011C39.09 74.0302 39.7281 75.0459 40.2492 76.0676C41.5993 78.2812 41.8647 79.1125 41.8488 80.6575C42.4601 83.6611 42.349 86.8237 41.9308 90.3606C40.7601 94.6575 38.3991 97.2708 34.7023 99.759C30.2888 101.735 26.5956 102.325 21.7795 102.289C21.1425 102.286 20.5051 102.283 19.8488 102.28C13.7267 102.119 9.89171 100.453 5.1525 96.6409C0.837394 91.1835 -0.0195252 86.4924 0.724769 79.5168C1.16423 78.0576 1.63449 76.6058 2.17008 75.179C4.29368 75.4501 4.29401 75.4508 6.50797 75.9026L7.23063 77.3479C6.99206 77.825 6.75377 78.3026 6.50797 78.7942C6.14956 83.0482 5.90572 86.8989 7.7277 90.8127C11.4483 94.6338 14.8021 95.5116 20.0246 95.5911C20.7814 95.5967 20.7817 95.5961 21.5539 95.6018C22.05 95.6167 22.5466 95.6314 23.0578 95.6467C27.4226 95.6797 30.7848 94.7175 34.2052 91.8518C36.7743 88.7117 37.2813 86.5191 36.8703 82.4084L36.8693 82.4075L36.8683 82.4084C36.3829 81.4766 35.9012 80.5427 35.422 79.6077C35.1536 79.0877 34.8851 78.5673 34.6086 78.0315C33.976 76.6253 33.9767 76.6248 33.9767 75.179C36.4786 73.0106 36.4788 73.011 38.3136 73.011H38.3166Z" fill="white"/>
<path d="M41.9355 44.8208C41.0345 45.1882 40.1299 45.548 39.2246 45.9048C38.7215 46.106 38.2176 46.3078 37.6992 46.5151C36.9921 46.7319 36.6076 46.8487 36.123 46.9126C36.1322 46.934 36.1422 46.9566 36.1514 46.978H35.083C34.6327 46.9879 34.0555 46.9897 33.2598 46.9897V62.894C34.5568 63.2369 35.8551 63.5798 37.1914 63.9331C41.0965 64.9655 41.1219 64.9721 41.9199 65.77H41.9336V65.7837L41.9355 65.7856C42.0375 67.7157 41.9662 69.6351 41.9355 71.5688C41.72 71.5122 41.5048 71.4515 41.29 71.3931C39.5956 70.9694 37.8955 70.5442 36.1504 70.1079C36.2346 70.0414 36.3191 69.9742 36.4033 69.9077C32.9015 68.7388 29.4676 67.3906 26.0391 66.0073C25.4473 65.8118 25.1453 65.6884 24.6113 65.4292C23.7901 65.0961 22.968 64.7632 22.1455 64.4302C21.0333 63.9829 19.9201 63.5351 18.8076 63.0884C12.7903 60.6682 6.78856 58.2113 0.80957 55.6978C0.781651 55.6884 0.753526 55.6797 0.725586 55.6704V53.5015H0.728516V53.4849C3.88466 52.2337 7.04671 50.9983 10.2148 49.7778C11.2889 49.3615 12.362 48.9412 13.4326 48.5161C16.3971 47.3407 19.1693 46.263 22.0107 45.5542C22.3148 45.4405 22.6198 45.3281 22.9238 45.2144C25.6192 44.2057 28.317 43.2024 31.0146 42.1997C31.8571 41.8835 32.7004 41.5675 33.5684 41.2417C34.3496 40.9523 35.1316 40.6629 35.9365 40.3647C36.9694 39.9795 36.9701 39.9793 38.0234 39.5864C39.7663 39.0375 39.7668 39.0366 41.9355 39.0366V44.8208ZM27.6035 49.8862C26.9044 50.137 26.2003 50.3905 25.4854 50.647C21.6196 52.0336 20.8992 52.2916 19.332 51.7866C19.0794 51.8752 18.8284 51.9642 18.5771 52.0522C16.4818 52.7696 14.388 53.4906 12.2969 54.2202V55.6665C17.7748 57.7081 23.1206 59.6208 28.876 60.7173C28.8889 60.7173 28.902 60.7173 28.915 60.7173V49.8833C28.4126 49.8833 27.9801 49.8852 27.6035 49.8862Z" fill="white"/>
<path d="M88.9241 76.6227C89.1627 77.0998 89.4012 77.5769 89.647 78.0685C90.1242 78.0685 90.6013 78.0685 91.0929 78.0685C90.6392 80.1858 89.9462 81.9441 88.9241 83.8519C88.6855 83.8519 88.447 83.8519 88.2012 83.8519C88.4397 81.4663 88.6783 79.0806 88.9241 76.6227Z" fill="#322C2F"/>
<path fill-rule="evenodd" clip-rule="evenodd" d="M11.0352 10.1475C12.3883 9.90414 13.7847 9.8984 15.2266 10.1075C15.4133 10.1106 15.6333 10.1147 15.9062 10.1192V10.2227C17.0088 10.4312 18.1386 10.7591 19.2949 11.1973C22.0941 12.6115 23.9167 14.0797 25.4512 16.8331C26.7445 21.2207 26.2156 25.8366 26.0273 30.3546H41.208V35.4161H5.0625V35.4151H4.33301L4.33887 35.4171H1.44727V22.4044C1.52557 21.4272 1.64243 20.5217 1.81152 19.672C2.12766 17.4319 2.27474 17.1381 2.89551 15.8966C2.95305 15.9253 3.01079 15.9537 3.06836 15.9825C3.31411 15.5083 3.59109 15.0466 3.90625 14.5948C4.04269 14.3196 4.18687 14.0306 4.33887 13.7266C4.68348 13.3988 5.03284 13.0952 5.38379 12.8126C5.74207 12.4411 6.13096 12.0709 6.55273 11.7003C8.11842 10.7407 9.47895 10.3068 11.0352 10.1475ZM17.3447 16.6163C14.4623 15.7634 11.9015 15.4183 9.12109 16.6622C5.77788 20.6483 5.77734 20.6489 5.77734 29.629H21.6816V22.4005C20.7387 19.5718 19.6872 18.4708 17.3447 16.6163Z" fill="white"/>
</svg>
