<svg width="271" height="109" viewBox="0 0 271 109" fill="none" xmlns="http://www.w3.org/2000/svg">
<path d="M254.157 0.314828C256.366 1.45726 257.672 2.95992 258.922 5.08011C259.498 7.70422 259.513 9.74851 258.569 12.281C257.546 13.8694 257.546 13.8694 256.098 14.8931C254.112 16.6756 253.897 18.6267 253.592 21.2115C253.592 21.957 253.592 22.7025 253.592 23.4706C254.411 23.7687 254.411 23.7687 255.247 24.0729C261.059 26.2516 266.414 28.8275 270.536 33.6365C270.536 34.0093 270.536 34.382 270.536 34.7661C264.106 35.2882 264.106 35.2882 262.084 34.1307C261.493 33.5528 260.915 32.9607 260.35 32.357C257.972 30.2583 254.793 29.2164 251.898 27.9888C251.787 28.5341 251.676 29.0794 251.562 29.6412C249.577 39.2921 247.333 48.8858 245.12 58.4866C246.555 58.0548 247.989 57.6189 249.422 57.1806C249.824 57.0601 250.226 56.9396 250.641 56.8154C254.841 55.5238 258.911 53.831 262.029 50.6504C264.696 48.7995 267.387 49.2209 270.536 49.4502C270.01 52.5526 267.904 53.8948 265.453 55.6627C252.005 64.1137 235.155 66.2919 219.693 62.9982C214.623 61.7982 209.796 59.9835 205.02 57.9218C205.242 58.5289 205.465 59.1359 205.694 59.7613C206.518 62.0117 207.338 64.2634 208.157 66.5155C208.512 67.4904 208.868 68.465 209.225 69.4392C209.738 70.8387 210.247 72.2395 210.756 73.6406C210.917 74.0766 211.077 74.5126 211.243 74.9618C211.869 76.6942 212.362 78.0911 212.362 79.948C212.844 79.7985 212.844 79.7985 213.336 79.6459C214.811 79.1905 216.287 78.7397 217.763 78.289C218.269 78.1321 218.774 77.9752 219.295 77.8136C229.557 74.6938 241.55 74.5936 251.181 79.6811C253.215 81.0012 254.83 82.6437 256.416 84.4662C255.017 87.8297 251.896 89.3561 248.686 90.7935C238.915 94.513 228.355 94.8282 218.692 90.5442C217.477 89.887 216.331 89.1904 215.186 88.4196C214.663 88.0822 214.663 88.0822 214.129 87.7379C213.344 87.2245 212.569 86.6947 211.797 86.1605C209.881 88.1383 209.117 89.6919 208.925 92.3863C209.049 95.2466 210.644 97.0035 212.609 98.9033C218.653 103.916 226.402 105.019 234.001 104.975C234.572 104.971 235.142 104.968 235.73 104.965C242.723 104.852 248.727 103.459 254.722 99.7151C255.091 99.3096 255.46 98.9041 255.84 98.4863C257.354 97.1187 258.224 97.2194 260.229 97.3148C260.785 97.3352 261.341 97.3556 261.914 97.3766C262.336 97.4028 262.759 97.429 263.194 97.456C257.995 104.296 250.025 106.989 241.731 108.187C230.251 108.84 217.615 108.758 208.23 101.149C205.394 98.5572 203.555 96.091 203.114 92.1966C203.569 87.7186 205.84 85.2327 208.973 82.2071C208.807 81.8339 208.64 81.4607 208.468 81.0762C205.007 73.3284 201.577 65.5684 198.207 57.7806C198.051 57.4193 197.894 57.0579 197.733 56.6857C197.01 55.0146 196.289 53.343 195.572 51.6697C195.152 50.7023 194.724 49.7381 194.278 48.7827C192.606 45.1832 192.491 41.2324 193.51 37.4002C196.295 31.1374 202.635 27.3729 208.735 24.9156C216.747 22.1081 224.504 20.9621 232.942 20.8232C233.747 20.8044 234.552 20.7849 235.357 20.7647C237.293 20.7176 239.23 20.6795 241.167 20.6467C241.457 19.7488 241.742 18.849 242.025 17.9486C242.184 17.4477 242.344 16.9469 242.508 16.4309C242.985 14.4955 242.685 12.9872 242.296 11.0455C241.923 7.32345 242.309 5.04479 244.555 2.00915C247.58 -0.195264 250.535 -0.279197 254.157 0.314828ZM202.794 34.2498C200.618 37.0709 199.073 39.4787 199.202 43.1583C199.768 47.183 202.208 49.8153 205.243 52.3403C211.71 57.014 220.044 59.6761 228.023 59.6301C228.476 59.6281 228.929 59.6261 229.396 59.624C229.739 59.6214 230.082 59.6188 230.436 59.6161C231.689 55.2916 232.941 50.9665 234.191 46.6408C234.772 44.6324 235.353 42.6241 235.935 40.6162C236.497 38.6794 237.057 36.7423 237.616 34.8048C237.83 34.0647 238.044 33.3247 238.259 32.5849C238.559 31.5509 238.858 30.5162 239.156 29.4815C239.412 28.5973 239.412 28.5973 239.673 27.6953C240.085 26.3535 240.085 26.3535 240.037 25.1649C229.303 21.5869 210.345 26.137 202.794 34.2498ZM215.186 83.3367C218.766 87.6565 224.407 89.5622 229.871 90.114C237.724 90.6042 244.47 89.5149 251.333 85.5958C249.701 83.289 248.23 82.145 245.685 80.9364C245.103 80.6539 244.52 80.3714 243.92 80.0804C235.259 76.3621 222.975 78.5959 215.186 83.3367Z" fill="#BBBBBB"/>
<path d="M0.564795 36.4566C9.93132 35.2904 9.93132 35.2904 12.979 37.1325C14.9766 38.9308 16.4742 41.0951 17.9466 43.3304C18.9174 44.7803 20.023 46.0991 21.1445 47.4344C21.5471 47.9302 21.9497 48.426 22.3645 48.9368C23.9877 50.8977 25.6509 52.821 27.3219 54.7412C29.6772 57.4476 32.0258 60.1589 34.3466 62.8951C34.8045 63.4346 35.2625 63.974 35.7343 64.5298C37.0582 66.1103 38.3453 67.7189 39.632 69.3297C40.0375 69.8371 40.4429 70.3445 40.8606 70.8673C41.3231 71.4465 41.3231 71.4465 41.7948 72.0374C41.8234 67.8158 41.8432 63.5943 41.8569 59.3727C41.8625 57.9363 41.8703 56.4999 41.88 55.0635C41.8937 52.9999 41.9001 50.9364 41.9051 48.8728C41.911 48.2297 41.9168 47.5866 41.9228 46.924C41.9229 46.3249 41.923 45.7258 41.923 45.1086C41.9256 44.5818 41.9281 44.0551 41.9307 43.5124C41.7863 42.0157 41.4764 41.1046 40.6652 39.8452C39.5696 39.3335 39.5696 39.3335 38.3354 39.1393C37.6132 38.9995 36.891 38.8597 36.1469 38.7157C36.1469 37.9702 36.1469 37.2247 36.1469 36.4566C41.552 36.4566 46.957 36.4566 52.5259 36.4566C52.5259 37.2021 52.5259 37.9476 52.5259 38.7157C51.386 38.9363 50.2461 39.1569 49.1063 39.3775C47.9523 39.7529 47.9523 39.7529 47.3853 40.7482C46.6921 42.601 46.7181 44.2194 46.6979 46.1973C46.6922 46.6052 46.6865 47.0132 46.6807 47.4335C46.6633 48.7781 46.6537 50.1226 46.6441 51.4672C46.6335 52.401 46.6225 53.3348 46.611 54.2686C46.582 56.7234 46.5596 59.1783 46.5386 61.6332C46.516 64.1394 46.4871 66.6456 46.4588 69.1517C46.4041 74.067 46.3565 78.9823 46.3132 83.8976C43.6403 84.0248 43.6403 84.0248 42.2802 82.8806C41.887 82.4125 41.4939 81.9444 41.0888 81.462C40.6462 80.9422 40.2035 80.4224 39.7474 79.8869C39.0834 79.0766 39.0834 79.0766 38.406 78.2499C38.01 77.7679 37.6139 77.286 37.2059 76.7894C36.3808 75.7793 35.558 74.7673 34.7371 73.7538C32.1897 70.6621 29.5407 67.658 26.9105 64.6368C24.6137 61.9914 22.3409 59.3252 20.0635 56.663C19.1547 55.6025 18.2436 54.544 17.3321 53.4859C17.0249 53.1288 16.7178 52.7717 16.4012 52.4039C15.8145 51.722 15.2272 51.0405 14.6393 50.3596C13.2774 48.7754 11.9741 47.1714 10.7311 45.493C10.6918 49.7249 10.6617 53.9568 10.6433 58.1888C10.6345 60.154 10.6225 62.1191 10.6033 64.0842C10.5813 66.344 10.5731 68.6038 10.5656 70.8637C10.5569 71.5686 10.5481 72.2734 10.5391 72.9996C10.539 73.6553 10.5389 74.3109 10.5387 74.9864C10.535 75.5634 10.5312 76.1403 10.5273 76.7346C10.7647 78.4997 11.1629 79.2638 12.4255 80.509C14.4614 80.9682 14.4614 80.9682 16.379 81.0738C16.379 81.8193 16.379 82.5648 16.379 83.3329C10.974 83.3329 5.56888 83.3329 0 83.3329C0 82.5874 0 81.8419 0 81.0738C0.617391 81.0272 1.23478 80.9806 1.87088 80.9326C3.91486 80.709 3.91486 80.709 4.9189 79.5893C5.89151 77.8024 5.85159 76.4995 5.8403 74.468C5.84055 74.0931 5.8408 73.7182 5.84105 73.3319C5.83988 72.0972 5.82671 70.8629 5.81342 69.6283C5.81025 68.7704 5.80784 67.9126 5.80615 67.0548C5.79969 64.8004 5.78305 62.5462 5.76429 60.2918C5.74694 57.9901 5.73922 55.6883 5.73068 53.3866C5.71253 48.8727 5.68362 44.359 5.64795 39.8452C3.13179 39.2861 3.13179 39.2861 0.564795 38.7157C0.564795 37.9702 0.564795 37.2247 0.564795 36.4566Z" fill="white"/>
<path d="M162.662 35.3345C165.271 35.3345 167.881 35.3345 170.569 35.3345C171.807 38.287 173.042 41.2405 174.276 44.1944C174.463 44.6432 174.651 45.0921 174.844 45.5545C177.067 50.873 179.266 56.1996 181.411 61.5502C181.601 62.0243 181.791 62.4985 181.988 62.987C182.907 65.2776 183.822 67.5697 184.731 69.8645C185.066 70.7016 185.402 71.5387 185.737 72.3757C185.957 72.9384 185.957 72.9384 186.182 73.5124C187.832 77.6719 187.832 77.6719 190.981 80.6532C191.374 80.7712 191.768 80.8891 192.173 81.0106C193.221 81.3251 193.221 81.3251 194.291 81.646C194.291 82.2051 194.291 82.7642 194.291 83.3403C186.835 83.3403 179.38 83.3403 171.699 83.3403C171.699 82.7812 171.699 82.2221 171.699 81.646C175.333 81.0869 175.333 81.0869 179.041 80.5164C179.686 77.9382 179.42 77.364 178.426 74.9878C178.169 74.3632 177.912 73.7385 177.648 73.0949C177.374 72.4455 177.1 71.7961 176.817 71.1271C176.281 69.8379 175.746 68.548 175.213 67.2575C174.973 66.6862 174.733 66.115 174.485 65.5265C173.958 64.138 173.958 64.138 173.958 63.0084C168.553 63.0084 163.148 63.0084 157.579 63.0084C157.02 64.6858 156.461 66.3632 155.885 68.0914C155.55 68.9301 155.204 69.7647 154.834 70.5888C154.659 70.9928 154.483 71.3969 154.303 71.8132C153.941 72.6372 153.574 73.4593 153.204 74.2797C153.031 74.6808 152.859 75.0819 152.681 75.4952C152.523 75.8503 152.366 76.2054 152.203 76.5713C151.78 77.9705 151.78 77.9705 152.496 80.5164C154.732 80.8892 156.969 81.2619 159.273 81.646C159.273 82.2051 159.273 82.7642 159.273 83.3403C152.936 83.3403 146.599 83.3403 140.07 83.3403C140.07 82.5948 140.07 81.8493 140.07 81.0812C140.996 80.9589 140.996 80.9589 141.941 80.8341C143.985 80.5826 143.985 80.5826 145.718 79.9517C146.329 78.7259 146.329 78.7259 146.848 77.1278C147.463 75.6212 148.079 74.1151 148.697 72.6096C148.878 72.1686 149.058 71.7277 149.245 71.2733C149.633 70.3271 150.021 69.3809 150.409 68.4347C151.017 66.9521 151.624 65.469 152.231 63.9859C154.128 59.3548 156.034 54.7289 157.989 50.1223C158.458 49.0124 158.926 47.9023 159.395 46.7923C159.829 45.7689 160.27 44.7483 160.71 43.7278C160.97 43.1122 161.23 42.4967 161.497 41.8625C161.724 41.3342 161.95 40.806 162.183 40.2618C162.83 38.4524 162.83 38.4524 162.662 35.3345ZM165.486 43.8061C164.599 45.8756 163.714 47.9461 162.832 50.0178C162.531 50.7226 162.23 51.4271 161.928 52.1313C161.494 53.1426 161.063 54.1552 160.632 55.1678C160.242 56.0817 160.242 56.0817 159.844 57.014C159.205 58.4021 159.205 58.4021 159.273 59.6198C163.56 59.6198 167.847 59.6198 172.264 59.6198C170.942 55.5985 170.942 55.5985 169.415 51.6931C169.217 51.2253 169.019 50.7576 168.814 50.2756C168.512 49.5718 168.512 49.5718 168.204 48.8538C167.996 48.3649 167.788 47.876 167.574 47.3723C167.068 46.1828 166.56 44.9941 166.051 43.8061C165.864 43.8061 165.678 43.8061 165.486 43.8061Z" fill="white"/>
<path d="M105.615 36.4578C109.131 36.4297 112.647 36.4093 116.163 36.3958C117.357 36.3901 118.552 36.3824 119.746 36.3726C121.47 36.3588 123.195 36.3525 124.919 36.3475C125.446 36.3417 125.973 36.3358 126.516 36.3298C132.535 36.3288 138.668 37.2233 143.385 41.2231C146.453 44.9216 147.258 48.1079 146.845 52.8363C146.108 56.5007 144.194 59.1092 141.197 61.3079C137.512 63.2046 133.879 64.2112 129.731 64.1869C129.18 64.1851 128.628 64.1833 128.06 64.1814C127.491 64.1767 126.922 64.1719 126.336 64.1671C125.756 64.1645 125.176 64.162 124.578 64.1593C123.152 64.1527 121.726 64.1434 120.299 64.1318C120.362 66.3441 120.435 68.5559 120.511 70.7679C120.529 71.3954 120.546 72.023 120.564 72.6696C120.586 73.2738 120.608 73.8781 120.63 74.5007C120.657 75.3347 120.657 75.3347 120.684 76.1856C120.867 77.7128 121.148 78.6665 121.994 79.9454C123.352 80.4628 123.352 80.4628 124.888 80.6514C125.402 80.7359 125.916 80.8203 126.446 80.9073C126.841 80.9627 127.235 81.018 127.642 81.075C127.642 81.8205 127.642 82.566 127.642 83.3341C120.373 83.3341 113.104 83.3341 105.615 83.3341C105.615 82.5886 105.615 81.8431 105.615 81.075C106.736 80.9463 107.858 80.8176 108.979 80.6889C110.243 80.5262 110.243 80.5262 111.827 79.9454C112.509 76.1966 112.484 72.4852 112.487 68.683C112.489 67.9821 112.491 67.2812 112.493 66.5591C112.496 65.0814 112.497 63.6037 112.497 62.126C112.497 60.6147 112.501 59.1035 112.509 57.5923C112.519 55.4061 112.522 53.2201 112.522 51.0338C112.529 50.0224 112.529 50.0224 112.535 48.9906C112.533 48.3591 112.531 47.7276 112.529 47.077C112.53 46.5245 112.531 45.9721 112.532 45.4029C112.374 43.5868 111.942 42.1 111.263 40.4112C109.579 39.1481 107.669 38.997 105.615 38.7169C105.615 37.9714 105.615 37.2259 105.615 36.4578ZM120.299 38.7169C120.299 46.1719 120.299 53.627 120.299 61.3079C123.117 62.7165 127.285 62.2365 130.267 61.5064C133.817 60.0889 136.231 57.769 137.883 54.3276C138.895 51.246 138.988 47.7601 137.879 44.6934C135.987 41.3763 133.496 39.9151 129.901 38.7169C126.732 38.7169 123.564 38.7169 120.299 38.7169Z" fill="white"/>
<path d="M93.938 37.6818C95.8427 38.1981 95.8427 38.1981 97.1437 38.1561C97.7912 39.4512 97.8199 40.3018 97.8872 41.7433C97.9108 42.2238 97.9345 42.7043 97.9589 43.1994C97.9811 43.7017 98.0033 44.2041 98.0262 44.7216C98.0506 45.2284 98.075 45.7351 98.1001 46.2571C98.1601 47.5101 98.2177 48.7632 98.2733 50.0164C97.3414 50.0164 96.4095 50.0164 95.4493 50.0164C95.2571 49.6138 95.0649 49.2112 94.8669 48.7964C92.7577 44.6287 90.4944 41.324 86.2295 39.1952C82.4071 37.9956 77.7332 38.1059 74.0224 39.6387C68.6805 42.4928 66.2121 46.2139 64.3194 51.9181C62.5566 59.1717 63.9558 67.0222 67.4478 73.5538C70.4461 77.9695 74.3899 80.4427 79.5291 81.5379C83.6587 81.9133 87.5358 80.9368 90.9596 78.6103C92.6898 77.1645 94.1348 75.5079 95.5839 73.7855C96.4398 72.772 97.3201 71.834 98.2733 70.9131C98.646 71.0994 99.0188 71.2858 99.4029 71.4778C98.7852 75.6357 98.0691 79.425 95.4493 82.7733C92.3637 84.3943 88.6911 84.3458 85.283 84.4677C84.8571 84.4947 84.4312 84.5217 83.9923 84.5496C76.7539 85.0075 70.0152 84.1984 64.3437 79.2942C63.8053 78.7799 63.8053 78.7799 63.256 78.2551C62.7788 77.8019 62.7788 77.8019 62.2919 77.3396C57.4481 72.2262 56.1887 65.8579 56.3218 59.0462C56.7992 52.182 59.8324 45.4761 64.8908 40.7528C74.0808 33.7796 83.4392 35.1853 93.938 37.6818Z" fill="white"/>
</svg>
