<svg width="477" height="108" viewBox="0 0 477 108" fill="none" xmlns="http://www.w3.org/2000/svg">
<g clip-path="url(#clip0_59_19)">
<path d="M0 34.6939C0 34.6939 0.106408 3.08069 38.3415 3.08069C93.2024 3.08069 92.3245 82.0739 39.4498 82.0739C28.7029 82.0739 20.6693 79.3573 15.7391 75.4068V106.922H0V34.6939ZM38.439 20.8537C11.7135 20.8537 11.3765 62.9781 38.439 62.9781C65.5813 62.9781 65.1645 20.8537 38.439 20.8537Z" fill="#DCDCDC"/>
<path d="M209.46 75.3002C209.46 75.3002 209.557 106.922 247.801 106.922C302.246 106.922 299.949 27.9292 248.91 27.9292C238.163 27.9292 230.129 30.6457 225.199 34.5963V3.08069H209.46V75.3002ZM247.899 89.1405C221.12 89.1405 220.819 47.0161 247.899 47.0161C275.041 47.0161 274.713 89.1405 247.899 89.1405Z" fill="#DCDCDC"/>
<path d="M107.426 81.6653L107.444 31.9683H125.373L125.479 81.6653C125.479 81.6653 128.467 92.3007 141.218 92.3007C153.765 92.3007 159.281 81.6653 159.281 81.6653L159.378 31.9683H175.924V81.6653C175.924 81.6653 172.032 107.623 142.025 107.623C111.833 107.623 107.426 81.6653 107.426 81.6653Z" fill="#DCDCDC"/>
<path d="M316.388 5.2998H334.344V106.922H316.388V5.2998Z" fill="#DCDCDC"/>
<path d="M366.834 32.3679H384.799V106.922H366.834V32.3679Z" fill="#DCDCDC"/>
<path d="M387.654 11.0083C387.654 17.0894 382.732 22.0165 376.658 22.0165C370.584 22.0165 365.663 17.0894 365.663 11.0083C365.663 4.92709 370.584 0 376.658 0C382.732 0 387.654 4.92709 387.654 11.0083Z" fill="#DCDCDC"/>
<path d="M436.174 68.6865L413.616 32.5723H433.797L444.083 50.5584L454.28 32.5723H472.236L454.183 68.6332L476.439 106.922H458.625L446.362 86.717L436.023 106.922H415.895L436.174 68.6865Z" fill="#DCDCDC"/>
</g>
<defs>
<clipPath id="clip0_59_19">
<rect width="476.805" height="107.55" fill="white"/>
</clipPath>
</defs>
</svg>
