<svg width="345" height="108" viewBox="0 0 345 108" fill="none" xmlns="http://www.w3.org/2000/svg">
<path d="M91.2989 89.6707C93.9554 93.9454 100.906 105.848 106.67 105.848C113.17 105.848 119.669 93.1956 122.192 88.4901L141.106 51.5797C147.756 39.2259 156.778 45.112 156.778 36.8651C156.778 29.5161 143.763 29.5162 138.75 29.5162C133.871 29.5162 120.705 29.6573 120.705 37.0146C120.705 41.8695 124.849 42.7508 124.849 46.4255C124.849 47.4577 119.235 60.8403 114.807 60.8403C111.549 60.8403 105.935 49.3683 105.935 46.4255C105.935 43.051 110.664 42.6032 110.664 37.3138C110.664 29.2168 94.8413 29.5162 89.2273 29.5162C60.2554 29.5162 59.5202 35.4017 59.5202 38.345C59.5202 43.7815 68.6763 43.7815 68.6763 50.8477C68.6763 52.8932 64.5492 60.5579 61.8928 60.5579C58.1834 60.5579 51.4001 47.4562 51.4001 44.9621C51.4001 43.0486 54.2072 41.7195 54.2072 38.345C54.2072 29.666 36.3127 29.5162 30.5484 29.5162C23.7482 29.5162 1.14209 30.2466 1.14209 39.6581C1.14209 47.157 8.37672 42.6037 13.1218 50.399L41.1915 95.8392C43.7145 99.963 46.9559 105.848 52.4362 105.848C57.0141 105.848 59.5204 101.441 61.5922 98.0504L72.3857 79.3789C73.7057 77.0177 75.7773 72.7618 78.8851 72.7618C81.1073 72.7618 82.7281 75.9855 83.7639 77.6167L91.2989 89.6707ZM215.006 70.4006C219.735 70.4006 224.162 69.0857 224.162 59.3773C224.162 48.3371 213.085 29.084 187.956 29.084C165.784 29.084 146.419 45.5442 146.419 68.2058C146.419 87.1766 160.17 106.28 186.769 106.28C200.069 106.28 220.921 98.0505 220.921 86.7279C220.921 83.9331 218.248 79.3789 215.156 79.3789C212.049 79.3789 206.585 85.9965 195.491 85.9965C188.54 85.9965 178.933 79.8111 178.933 72.4626C178.933 69.9694 181.306 70.403 182.926 70.403L215.006 70.4006ZM187.07 56.2847C183.227 56.2847 178.198 57.463 178.198 52.1608C178.198 47.4572 182.191 42.451 187.07 42.451C192.534 42.451 195.792 46.5749 195.792 51.8785C195.792 57.1655 191.063 56.2847 187.07 56.2847ZM268.355 35.9843C268.355 32.8926 268.204 29.5166 263.777 29.5166C262.29 29.5166 224.764 33.9233 224.764 44.3805C224.764 50.9981 232.299 49.3688 233.619 54.5229C235.256 59.9598 234.956 81.2915 233.034 86.4291C231.263 91.0007 225.198 91.284 225.198 96.588C225.198 100.113 226.234 105.849 251.664 105.849C258.314 105.849 277.077 105.849 277.077 95.8396C277.077 88.0584 268.355 94.3786 268.355 77.0187L268.355 35.9843ZM267.62 10.3964C267.62 3.04737 259.199 1.13531 253.285 1.13531C245.749 1.13531 226.234 5.10837 226.234 14.8186C226.234 22.0182 232.884 24.8112 239.099 24.8112C247.52 24.8112 267.62 21.8702 267.62 10.3964ZM306.634 29.0844C291.413 29.0844 279.299 38.3455 279.299 53.043C279.299 77.3179 308.271 78.3487 308.271 87.0277C308.271 90.2514 305.464 91.7312 302.49 91.7312C294.22 91.7312 288.305 77.1666 281.805 77.1666C277.528 77.1666 276.191 80.2584 276.191 84.0834C276.191 89.6698 279.884 98.0495 283.576 102.173C285.648 104.515 287.135 104.968 290.093 104.968C291.998 104.968 293.785 104.388 295.857 104.388C297.628 104.388 308.555 106.283 314.62 106.283C329.992 106.283 343.442 96.7393 343.442 82.9062C343.442 60.1112 310.928 58.349 310.928 48.938C310.928 46.1432 313.584 43.9337 316.241 43.9337C322.74 43.9337 327.469 55.5555 335.906 55.5555C339.749 55.5555 343.141 52.6146 343.141 48.6387C343.141 42.6037 336.341 29.0863 329.541 29.0863C326.733 29.0863 324.378 30.9998 321.571 30.9998C319.349 30.9998 312.398 29.0844 306.634 29.0844Z" fill="#DCDCDC"/>
</svg>
