<svg xmlns="http://www.w3.org/2000/svg" width="762" height="311" fill="none" viewBox="0 0 762 311"><g filter="url(#a)"><g filter="url(#b)"><g clip-path="url(#c)"><rect width="686" height="476.71" x="37.54" fill="#fff" rx="15"/><g clip-path="url(#d)"><path fill="#f4f7f8" d="M37.54 0h180.22v476.71H37.54z"/><path fill="#000" fill-opacity=".6" d="M50 151.43v-6.1h.92l2.67 4.45h-.49l2.63-4.45h.93l.01 6.1H55.6l-.01-4.42h.23l-2.24 3.73h-.5L50.8 147h.26v4.42zm10.53.06q-.78 0-1.36-.3a2.3 2.3 0 0 1-.9-.86 2.4 2.4 0 0 1-.31-1.23q0-.69.3-1.23.32-.54.86-.84.55-.3 1.24-.3t1.21.29q.54.3.84.84a2.6 2.6 0 0 1 .29 1.6h-3.88v-.73h3.3l-.42.23q0-.4-.17-.71t-.48-.48q-.3-.18-.69-.18-.4 0-.7.18t-.47.49-.17.72v.18q0 .41.2.74.18.32.53.5t.8.17q.4 0 .71-.12.32-.12.56-.39l.58.68q-.3.36-.8.56-.46.2-1.07.2m5.33 0q-.67 0-1.21-.3t-.84-.83-.3-1.26.3-1.25.84-.83a2.5 2.5 0 0 1 2.25-.03q.47.24.74.77t.27 1.34-.26 1.35a2 2 0 0 1-.73.78q-.45.27-1.06.26m.13-.93q.4 0 .7-.17t.5-.51q.18-.33.19-.78 0-.45-.2-.77a1.3 1.3 0 0 0-.5-.5q-.3-.18-.7-.18-.38 0-.7.17-.3.18-.5.5-.18.33-.18.78t.19.78.5.5q.3.18.7.18m1.41.87v-1.1l.05-1.24-.1-1.23v-2.9h1.09v6.47zm2.6 0v-4.66h1.09v4.66zm.55-5.42a.7.7 0 0 1-.5-.2.6.6 0 0 1-.2-.46q0-.28.2-.46a.7.7 0 0 1 .5-.19q.3 0 .5.18t.2.45q0 .28-.2.49-.2.19-.5.19m4.23 5.48q-.74 0-1.31-.3a2.3 2.3 0 0 1-1.21-2.09q0-.69.32-1.23.33-.54.89-.84t1.3-.3q.69 0 1.2.27.53.27.8.8l-.84.5a1.3 1.3 0 0 0-1.16-.65q-.4 0-.72.17-.33.18-.51.5-.18.33-.18.78 0 .46.18.79.19.32.5.5a1.5 1.5 0 0 0 1.37.01q.3-.15.52-.49l.84.5a2 2 0 0 1-.8.8q-.51.28-1.2.28m5.92-.06v-.94l-.06-.2v-1.65q0-.47-.29-.74t-.87-.27q-.39 0-.78.12-.37.13-.63.34l-.43-.8q.38-.28.89-.42.52-.15 1.08-.15 1.02 0 1.56.5.56.46.56 1.48v2.73zm-1.46.06q-.53 0-.92-.17a1.5 1.5 0 0 1-.61-.5 1.3 1.3 0 0 1-.2-.72q0-.4.17-.7.2-.32.62-.5a3 3 0 0 1 1.14-.19h1.35v.72h-1.27q-.57 0-.75.19a.6.6 0 0 0-.2.43q0 .3.24.47.23.18.65.18.4 0 .72-.18.32-.19.46-.54l.18.65q-.15.41-.56.64-.4.22-1.02.22m5.77 0q-.77 0-1.19-.39-.42-.4-.42-1.18v-4.17h1.1v4.15q0 .33.16.51.16.19.48.19.36 0 .6-.2l.31.78q-.19.15-.47.23t-.57.08m-2.38-3.8v-.88h3.1v.87zm4.44 3.74v-4.66h1.1v4.66zm.55-5.42a.7.7 0 0 1-.5-.2.6.6 0 0 1-.2-.46q0-.28.2-.46a.7.7 0 0 1 .5-.19q.3 0 .5.18t.2.45q0 .28-.2.49-.18.19-.5.19m4.19 5.48q-.72 0-1.27-.3a2.3 2.3 0 0 1-1.2-2.09 2.3 2.3 0 0 1 1.2-2.07q.56-.3 1.27-.3.72 0 1.28.3t.88.84q.33.53.32 1.23a2.4 2.4 0 0 1-1.2 2.09q-.56.3-1.28.3m0-.93q.4 0 .71-.17.32-.18.5-.51t.18-.78-.19-.77a1.2 1.2 0 0 0-.49-.5q-.3-.18-.7-.18t-.72.17q-.3.18-.49.5-.18.33-.18.78t.18.78a1.3 1.3 0 0 0 1.2.68m6.3-3.84q.55 0 .99.22.45.22.7.67t.25 1.15v2.67h-1.1v-2.53q0-.62-.29-.92-.3-.3-.81-.3-.39 0-.68.15t-.46.47q-.15.3-.16.78v2.35h-1.09v-4.66h1.04v1.26l-.18-.38q.25-.45.7-.68.48-.24 1.08-.25m6.08 4.71v-6.1h2.51q.8 0 1.39.26a2 2 0 0 1 .9.75q.3.48.31 1.16 0 .67-.31 1.16t-.9.74q-.57.25-1.39.25h-1.88l.5-.51v2.3zm4 0-1.55-2.21h1.22l1.55 2.21zm-2.86-2.17-.51-.54h1.83q.75 0 1.13-.32.38-.33.38-.9 0-.59-.38-.9-.38-.3-1.13-.31h-1.83l.5-.56zm7.45 2.23q-.78 0-1.36-.3a2.3 2.3 0 0 1-.9-.86 2.4 2.4 0 0 1-.31-1.23q0-.69.3-1.23.32-.54.85-.84.56-.3 1.25-.3t1.22.29.83.84a2.6 2.6 0 0 1 .29 1.6h-3.88v-.73h3.3l-.42.23q0-.4-.17-.71t-.48-.48q-.3-.18-.69-.18-.4 0-.7.18t-.47.49-.17.72v.18q0 .41.2.74.18.32.53.5t.8.17q.4 0 .71-.12.32-.12.56-.39l.58.68q-.3.36-.8.56-.45.2-1.07.2m4.51-.06-2-4.66h1.14l1.71 4.11h-.55l1.78-4.1h1.04l-2 4.65zm3.93 0v-4.66h1.09v4.66zm.55-5.42a.7.7 0 0 1-.5-.2.6.6 0 0 1-.2-.46q0-.28.2-.46a.7.7 0 0 1 .5-.19q.3 0 .5.18t.2.45q0 .28-.2.49-.19.19-.5.19m4.28 5.48q-.78 0-1.36-.3a2.3 2.3 0 0 1-.9-.86 2.4 2.4 0 0 1-.31-1.23q0-.69.3-1.23.32-.54.86-.84t1.25-.3q.67 0 1.2.29.54.3.84.84a2.5 2.5 0 0 1 .3 1.6h-3.89v-.73h3.3l-.42.23q0-.4-.17-.71-.16-.3-.48-.48-.3-.18-.68-.18-.4 0-.71.18t-.47.49-.17.72v.18q0 .41.2.74.18.32.53.5t.8.17q.4 0 .71-.12.32-.12.56-.39l.58.68q-.3.36-.79.56-.47.2-1.08.2m4.3-.06-1.7-4.66h1.02l1.47 4.11h-.49l1.53-4.1h.92l1.5 4.1h-.49l1.51-4.1h.97l-1.72 4.65h-1.05l-1.36-3.63h.33l-1.39 3.63zm9.41-1.97v-.9h2.4v.9zm9.21 2.06q-.7 0-1.31-.24-.6-.23-1.05-.65a3 3 0 0 1-.93-2.25q0-.68.24-1.25.25-.57.69-1 .44-.42 1.05-.65.6-.24 1.3-.24.72 0 1.31.24a3 3 0 0 1 1.74 1.65q.24.57.24 1.25t-.24 1.26-.7.99-1.04.65-1.3.24m0-1q.46 0 .85-.15a2 2 0 0 0 1.12-1.13q.17-.4.17-.86a2.1 2.1 0 0 0-1.3-1.99q-.38-.15-.85-.15t-.85.15a2 2 0 0 0-1.13 1.14q-.16.38-.16.85t.16.86.45.68q.3.3.68.45.4.15.85.16m7.14-3.8q.56 0 1 .22.45.22.7.67t.25 1.15v2.67h-1.1v-2.53q0-.62-.29-.92t-.8-.3q-.4 0-.69.15-.3.15-.46.47-.15.3-.16.78v2.35h-1.09v-4.66h1.04v1.26l-.18-.38q.25-.45.7-.68.48-.24 1.08-.25m5.2 4.77q-.75 0-1.18-.39-.42-.4-.42-1.18v-4.17h1.1v4.15q0 .33.16.51.18.19.48.19.37 0 .6-.2l.31.78q-.18.15-.47.23-.27.09-.57.08m-2.36-3.8v-.88h3.1v.87zm7.3 3.74v-.94l-.06-.2v-1.65q0-.47-.28-.74-.3-.27-.88-.27-.4 0-.77.12-.38.13-.64.34l-.43-.8q.38-.28.9-.42.51-.15 1.07-.15 1.02 0 1.56.5.56.46.56 1.48v2.73zm-1.46.06q-.53 0-.92-.17a1.5 1.5 0 0 1-.6-.5 1.3 1.3 0 0 1-.22-.72q0-.4.19-.7.18-.32.62-.5a3 3 0 0 1 1.13-.19h1.35v.72h-1.27q-.55 0-.75.19a.6.6 0 0 0-.2.43q0 .3.24.47.24.18.65.18.4 0 .72-.18.33-.19.46-.54l.19.65q-.16.41-.57.64-.4.22-1.02.22m4.02-.06v-4.66h1.03v1.29l-.12-.38q.21-.47.66-.71t1.12-.25v1.04l-.13-.02h-.12q-.62 0-.99.36-.36.36-.36 1.07v2.26zm3.74 0v-4.66h1.09v4.66zm.55-5.42a.7.7 0 0 1-.5-.2.6.6 0 0 1-.2-.46q0-.28.2-.46a.7.7 0 0 1 .5-.19q.3 0 .5.18t.2.45q0 .28-.2.49-.19.19-.5.19m4.19 5.48q-.72 0-1.28-.3a2.3 2.3 0 0 1-1.2-2.09 2.3 2.3 0 0 1 1.2-2.07q.56-.3 1.28-.3t1.28.3.88.84.32 1.23a2.4 2.4 0 0 1-1.2 2.09q-.56.3-1.28.3m0-.93q.4 0 .71-.17t.49-.51.18-.78-.18-.77a1.2 1.2 0 0 0-.49-.5q-.3-.18-.7-.18t-.72.17q-.3.18-.49.5-.18.33-.18.78t.18.78a1.3 1.3 0 0 0 1.2.68"/><path fill="#dae0e4" d="M37.54 160.25h180.22v29.53H37.54z"/><path fill="#000" fill-opacity=".87" d="M53.42 178.6q-.81 0-1.5-.27a4 4 0 0 1-1.2-.76 3.7 3.7 0 0 1 .02-5.22 4 4 0 0 1 1.19-.77q.69-.27 1.5-.27.83 0 1.52.28t1.2.83l-.67.64q-.4-.43-.92-.63-.51-.22-1.08-.22-.6 0-1.12.2a2.7 2.7 0 0 0-1.48 1.45q-.2.5-.2 1.1 0 .57.2 1.1a2.7 2.7 0 0 0 1.48 1.43 3 3 0 0 0 2.2 0q.51-.22.92-.66l.66.64q-.48.55-1.19.84-.69.28-1.53.28m6.23-.03a3 3 0 0 1-1.44-.35 2.7 2.7 0 0 1-1.36-2.4q0-.8.36-1.43.37-.62 1-.96.63-.36 1.44-.36t1.44.36q.64.35 1 .96.36.6.36 1.43 0 .8-.36 1.42t-1 .98-1.44.35m0-.85q.52 0 .93-.23t.65-.67.24-1a2 2 0 0 0-.24-1q-.23-.42-.65-.66a2 2 0 0 0-.93-.24q-.51 0-.92.24-.4.23-.65.66-.25.42-.25 1 0 .57.25 1a1.7 1.7 0 0 0 1.57.9m7.16-4.65q.66 0 1.16.25t.79.78q.28.51.28 1.31v3.1h-.97v-2.99q0-.78-.39-1.18-.37-.4-1.07-.4-.52 0-.9.2-.39.21-.6.6-.2.4-.2 1v2.77h-.98v-5.39h.93v1.45l-.15-.38q.27-.53.81-.82.56-.3 1.29-.3m6.02 5.5q-.82 0-1.27-.43-.44-.44-.44-1.25v-4.95h.97v4.9q0 .44.22.68.22.23.63.23.45 0 .76-.25l.3.7q-.21.2-.53.28-.3.1-.64.1m-2.63-4.65v-.8h3.44v.8zm8.46 4.6v-1.15l-.05-.21v-1.94q0-.63-.37-.96-.36-.35-1.08-.35a2.8 2.8 0 0 0-1.7.58l-.41-.73q.4-.34 1-.5.59-.2 1.22-.19 1.11 0 1.71.54.6.53.6 1.65v3.25zm-1.77.05q-.6 0-1.06-.2-.45-.2-.7-.56a1.6 1.6 0 0 1-.04-1.62q.23-.34.69-.57a3 3 0 0 1 1.28-.21h1.71v.7H77.1q-.73 0-.99.25a.8.8 0 0 0-.25.59q0 .39.32.64.3.23.87.23.56 0 .96-.24.4-.25.6-.72l.19.68q-.2.47-.68.76-.5.27-1.23.27m6.97 0q-.82 0-1.47-.35a2.6 2.6 0 0 1-1.37-2.4q0-.8.36-1.43.37-.62 1.01-.96.65-.36 1.47-.36.75 0 1.3.3.6.28.9.85l-.74.48a1.8 1.8 0 0 0-1.47-.77q-.52 0-.94.23t-.66.66q-.25.42-.25 1a2 2 0 0 0 .25 1q.24.42.66.67.42.23.94.23.45 0 .82-.18.38-.2.65-.6l.74.47q-.3.56-.9.87-.55.3-1.3.3m5.51 0q-.81 0-1.26-.43-.45-.44-.45-1.25v-4.95h.98v4.9q0 .44.21.68.23.23.63.23.45 0 .77-.25l.3.7q-.23.2-.54.28-.3.1-.64.1m-2.62-4.65v-.8h3.44v.8zm8.1 4.6v-7.13h1.02v7.12zm6.01-5.45q.67 0 1.16.25.5.25.8.78.28.51.28 1.31v3.1h-.97v-2.99q0-.78-.4-1.18-.36-.4-1.06-.4-.52 0-.9.2-.39.21-.6.6-.2.4-.2 1v2.77h-.99v-5.39h.94v1.45l-.15-.38q.26-.53.81-.82.56-.3 1.28-.3m4.32 5.44v-5.87q0-.8.45-1.26.48-.48 1.33-.48.3 0 .6.08t.5.24l-.3.74q-.15-.12-.35-.18a1 1 0 0 0-.4-.07q-.43 0-.65.24-.23.25-.23.7v.72l.02.45v4.7zm-.92-4.59v-.8h3.44v.8zm6.71 4.65q-.81 0-1.44-.35a2.7 2.7 0 0 1-1.36-2.4q0-.8.36-1.43.37-.62 1-.96.63-.36 1.44-.36t1.44.36q.64.35 1 .96.36.6.36 1.43 0 .8-.36 1.42t-1 .98-1.44.35m0-.85q.52 0 .93-.23t.65-.67.23-1a2 2 0 0 0-.23-1q-.23-.42-.65-.66a2 2 0 0 0-.93-.24q-.51 0-.92.24t-.65.66-.25 1q0 .57.25 1a1.7 1.7 0 0 0 1.57.9m4.28.8v-5.4h.93v1.47l-.09-.37q.23-.56.75-.85.53-.3 1.3-.3v.95l-.12-.01h-.1q-.78 0-1.24.46-.45.48-.46 1.36v2.68zm10.97-5.45q.64 0 1.15.25t.77.78q.29.51.29 1.31v3.1h-.98v-2.99q0-.78-.37-1.18-.36-.4-1.02-.4-.5 0-.86.2a1.4 1.4 0 0 0-.57.6q-.2.4-.2 1v2.77h-.97v-2.99q0-.78-.37-1.18-.35-.4-1.02-.4-.48 0-.85.2a1.4 1.4 0 0 0-.57.6q-.2.4-.2 1v2.77h-.98v-5.39h.94v1.44l-.15-.37q.25-.53.78-.82.53-.3 1.23-.3.78 0 1.33.39.57.37.73 1.15l-.4-.17q.26-.61.86-1 .61-.37 1.43-.37m7.47 5.44v-1.14l-.05-.21v-1.94q0-.63-.36-.96-.36-.35-1.08-.35a2.8 2.8 0 0 0-1.71.58l-.4-.73q.4-.34.99-.5.6-.2 1.23-.19 1.1 0 1.7.54.6.53.6 1.65v3.25zm-1.77.06q-.6 0-1.05-.2t-.7-.56a1.6 1.6 0 0 1-.04-1.62q.22-.34.68-.57a3 3 0 0 1 1.29-.21h1.7v.7h-1.66q-.74 0-1 .25a.8.8 0 0 0-.24.59q0 .39.31.64.31.23.88.23.54 0 .95-.24.42-.25.6-.72l.2.68q-.2.47-.69.76-.48.27-1.23.27m6.48 0q-.81 0-1.26-.43-.45-.44-.45-1.25v-4.95h.98v4.9q0 .44.21.68.23.23.63.23.45 0 .77-.25l.3.7q-.22.2-.54.28-.3.1-.64.1m-2.62-4.65v-.8h3.44v.8zm5.1 4.6v-5.4h.98v5.4zm.5-6.44a.7.7 0 0 1-.48-.18.6.6 0 0 1-.19-.45q0-.27.19-.46a.7.7 0 0 1 .47-.18q.3 0 .47.18.2.17.2.44 0 .28-.19.47a.7.7 0 0 1-.48.18m4.78 6.5q-.81 0-1.44-.36a2.7 2.7 0 0 1-1.37-2.4q0-.8.37-1.43.36-.62 1-.96.63-.36 1.44-.36t1.44.36 1 .96.36 1.43q0 .8-.37 1.42-.36.62-1 .98-.63.36-1.43.35m0-.86q.53 0 .93-.23.42-.24.65-.67t.23-1a2 2 0 0 0-.23-1q-.24-.42-.65-.66a2 2 0 0 0-.93-.24q-.52 0-.93.24-.4.23-.65.66-.24.42-.24 1 0 .57.24 1a1.7 1.7 0 0 0 1.58.9m7.15-4.65q.66 0 1.16.25t.8.78q.28.51.28 1.31v3.1h-.98v-2.99q0-.78-.38-1.18t-1.07-.4q-.52 0-.9.2-.4.21-.6.6-.21.4-.21 1v2.77h-.98v-5.39h.94v1.45l-.15-.38q.25-.53.81-.82.56-.3 1.28-.3M50.24 210.95v-7.12h.83l3.2 5.38h-.45l3.16-5.38h.83v7.12h-.97v-5.58h.23l-2.81 4.72h-.47l-2.83-4.72h.26v5.58zm12.1.06q-.87 0-1.53-.35a2.6 2.6 0 0 1-1.37-2.4q0-.8.35-1.43.34-.61.96-.96.63-.36 1.4-.36.78 0 1.38.35t.94.97a3 3 0 0 1 .32 1.75H60.2v-.7h4.08l-.4.25q.01-.52-.2-.93a1.7 1.7 0 0 0-1.53-.86q-.52 0-.91.23-.4.22-.62.64a2 2 0 0 0-.22.94v.16q0 .54.24.97.25.4.7.65.45.23 1.03.23.47 0 .86-.16.4-.16.7-.5l.54.64q-.37.43-.92.65-.54.22-1.21.22m6.18 0q-.79 0-1.4-.34t-.97-.97-.36-1.44.36-1.44.96-.96a2.8 2.8 0 0 1 2.64-.04q.56.3.87.91.34.6.34 1.53 0 .91-.32 1.52-.32.62-.87.93-.55.3-1.25.3m.08-.85q.5 0 .92-.23.41-.24.65-.67t.24-1-.24-1-.65-.66a2 2 0 0 0-.92-.23q-.52 0-.93.23-.4.24-.65.66-.24.42-.24 1 0 .57.24 1a1.7 1.7 0 0 0 1.58.9m1.84.8v-1.46l.06-1.25-.1-1.25v-3.6h.98v7.55zm2.9 0v-5.4h.99v5.4zm.5-6.44a.7.7 0 0 1-.48-.18.6.6 0 0 1-.18-.45q0-.27.18-.45a.7.7 0 0 1 .48-.19q.28 0 .47.19.19.17.19.43 0 .28-.18.47a.7.7 0 0 1-.48.18m4.82 6.5q-.82 0-1.47-.36a2.6 2.6 0 0 1-1.37-2.4q0-.8.36-1.43.37-.61 1-.96.66-.36 1.48-.36.75 0 1.3.3.6.28.9.85l-.74.48a1.8 1.8 0 0 0-1.47-.77q-.52 0-.94.23t-.66.66q-.25.42-.25 1a2 2 0 0 0 .25 1q.24.43.66.67.42.23.94.23.45 0 .82-.18.38-.2.65-.6l.74.47q-.3.57-.9.87-.55.3-1.3.3m6.94-.07v-1.14l-.05-.2v-1.95q0-.62-.37-.96-.36-.34-1.08-.34a2.8 2.8 0 0 0-1.7.57l-.41-.73q.4-.34 1-.5.59-.2 1.22-.19 1.11 0 1.71.54.6.53.6 1.65v3.25zm-1.77.06q-.6 0-1.06-.2-.45-.2-.7-.56a1.6 1.6 0 0 1-.04-1.62q.23-.34.69-.57a3 3 0 0 1 1.28-.2h1.7v.7h-1.66q-.73 0-.99.24a.8.8 0 0 0-.25.59q0 .4.31.64.32.23.88.23.55 0 .96-.24.4-.25.6-.72l.19.68q-.2.48-.68.76-.5.27-1.23.27m4.62-.06v-7.54h.98v7.54zm5.97 0v-7.12h1.01v7.12zm6-5.44q.67 0 1.17.25.5.26.79.78.29.51.29 1.31v3.1h-.98v-2.99q0-.78-.39-1.18-.37-.4-1.07-.4-.51 0-.9.2t-.6.6-.2 1v2.77h-.98v-5.39h.93v1.46l-.15-.39q.27-.53.81-.82.56-.3 1.29-.3m4.32 5.44v-5.87q0-.8.46-1.26.46-.48 1.32-.48.3 0 .6.09.3.06.5.23l-.3.74q-.15-.12-.34-.18a1 1 0 0 0-.41-.07q-.42 0-.65.24-.23.25-.23.7v.73l.03.44v4.7zm-.92-4.58v-.8h3.44v.8zm6.72 4.64q-.82 0-1.45-.35a2.7 2.7 0 0 1-1.36-2.4q0-.8.36-1.43.37-.61 1-.96.63-.36 1.45-.36.8 0 1.43.36.64.34 1 .96t.36 1.43-.36 1.42q-.36.62-1 .98-.63.35-1.43.35m0-.85q.51 0 .92-.23t.65-.67.24-1a2 2 0 0 0-.24-1q-.23-.42-.65-.66a2 2 0 0 0-.92-.23q-.52 0-.93.23-.4.24-.65.66-.24.42-.24 1 0 .57.24 1a1.7 1.7 0 0 0 1.58.9m4.27.8v-5.4h.93v1.47l-.09-.37q.22-.56.76-.85.52-.3 1.3-.3v.95l-.12-.01h-.1q-.79 0-1.25.47t-.45 1.35v2.68zm10.97-5.45q.65 0 1.15.25.5.26.77.78.3.51.29 1.31v3.1h-1v-2.99q0-.78-.37-1.18-.36-.4-1.02-.4-.49 0-.86.2a1.4 1.4 0 0 0-.57.6q-.2.4-.19 1v2.77h-.98v-2.99q0-.78-.36-1.18t-1.03-.4q-.48 0-.84.2a1.4 1.4 0 0 0-.58.6q-.2.4-.2 1v2.77h-.98v-5.39h.94V207l-.15-.37q.26-.53.78-.82.54-.3 1.23-.3.77 0 1.34.39.55.37.73 1.15l-.4-.17q.24-.61.86-1 .6-.37 1.42-.37m7.48 5.44v-1.14l-.05-.2v-1.95q0-.62-.37-.96-.36-.34-1.08-.34a2.8 2.8 0 0 0-1.7.57l-.42-.73q.42-.34 1-.5.6-.2 1.23-.19 1.11 0 1.71.54.6.53.6 1.65v3.25zm-1.77.06q-.6 0-1.06-.2-.45-.2-.7-.56a1.6 1.6 0 0 1-.04-1.62q.22-.34.69-.57a3 3 0 0 1 1.28-.2h1.7v.7h-1.66q-.74 0-.99.24a.8.8 0 0 0-.25.59q0 .4.31.64t.88.23q.54 0 .95-.24.42-.25.6-.72l.2.68q-.2.48-.68.76-.5.27-1.23.27m6.47 0q-.81 0-1.26-.43-.45-.45-.44-1.25v-4.95h.97v4.9q0 .44.22.68.22.23.63.23.46 0 .76-.25l.3.7q-.21.2-.53.28-.3.1-.65.1m-2.62-4.64v-.8h3.44v.8zm5.1 4.58v-5.39h.99v5.4zm.5-6.43a.7.7 0 0 1-.48-.18.6.6 0 0 1-.18-.45q0-.27.18-.45a.7.7 0 0 1 .48-.19q.28 0 .47.19.19.17.19.43 0 .28-.19.47a.7.7 0 0 1-.47.18m4.78 6.5a3 3 0 0 1-1.44-.36 2.7 2.7 0 0 1-1.37-2.4q0-.8.37-1.43.37-.61 1-.96.63-.36 1.44-.36t1.44.36q.64.34 1 .96t.36 1.43-.37 1.42q-.34.62-1 .98-.62.35-1.43.35m0-.86q.52 0 .93-.23t.65-.67.23-1a2 2 0 0 0-.23-1q-.24-.42-.65-.66a2 2 0 0 0-.93-.23q-.51 0-.92.23t-.65.66q-.25.42-.25 1 0 .57.25 1a1.7 1.7 0 0 0 1.57.9m7.15-4.65q.66 0 1.16.25.5.26.8.78.28.51.28 1.31v3.1h-.97v-2.99q0-.78-.4-1.18-.37-.4-1.06-.4-.52 0-.9.2-.39.21-.6.6-.2.4-.2 1v2.77H150v-5.39h.93v1.46l-.15-.39q.27-.53.81-.82.56-.3 1.28-.3M50.24 243.4v-7.13h.83l3.2 5.38h-.45l3.16-5.38h.83v7.12h-.97v-5.58h.23l-2.81 4.72h-.47l-2.83-4.72h.26v5.58zm12.1.06q-.87 0-1.53-.36a2.6 2.6 0 0 1-1.37-2.4q0-.8.35-1.43.34-.61.96-.96.63-.36 1.4-.36.78 0 1.38.35t.94.97a3 3 0 0 1 .32 1.75H60.2v-.7h4.08l-.4.25q.01-.52-.2-.93a1.7 1.7 0 0 0-1.53-.86q-.52 0-.91.23-.4.22-.62.64a2 2 0 0 0-.22.94v.16q0 .54.24.97.25.4.7.65.45.23 1.03.23.47 0 .86-.16.4-.16.7-.5l.54.64q-.37.42-.92.65-.54.23-1.21.23m6.18 0q-.79 0-1.4-.35t-.97-.97-.36-1.44.36-1.44.96-.96a2.8 2.8 0 0 1 2.64-.04q.56.3.87.91.34.6.34 1.53 0 .91-.32 1.52a2.2 2.2 0 0 1-2.12 1.24m.08-.86q.5 0 .92-.23.41-.24.65-.66.24-.45.24-1.01 0-.58-.24-1t-.65-.66a2 2 0 0 0-.92-.23q-.52 0-.93.23-.4.24-.65.66-.24.42-.24 1 0 .57.24 1a1.7 1.7 0 0 0 1.58.9m1.84.8v-1.46l.06-1.25-.1-1.25v-3.6h.98v7.55zm4.46.06q-.67 0-1.29-.19-.6-.18-.94-.45l.4-.77q.35.24.86.4.5.16 1.04.16.68 0 .97-.2.3-.18.3-.53 0-.25-.17-.4-.19-.14-.5-.21-.29-.08-.65-.12l-.74-.15a3 3 0 0 1-.67-.24q-.3-.15-.49-.44a1.4 1.4 0 0 1-.18-.75q0-.49.28-.86.27-.36.77-.56.51-.2 1.2-.2.52 0 1.07.13.54.12.9.36l-.42.77a2 2 0 0 0-.77-.33q-.4-.1-.8-.1-.63 0-.95.22-.3.2-.31.53 0 .27.18.43.2.13.49.22l.67.14q.37.05.73.14.38.09.66.24.3.15.5.43.18.27.19.73 0 .48-.29.84t-.8.56-1.24.2m7 .01q-.83 0-1.5-.26a4 4 0 0 1-1.2-.76 3.7 3.7 0 0 1 .01-5.22q.51-.5 1.2-.76.67-.28 1.5-.28.82 0 1.51.29.7.27 1.2.82l-.67.64q-.41-.43-.91-.63t-1.1-.21q-.6 0-1.11.2a2.7 2.7 0 0 0-1.48 1.44q-.2.5-.2 1.1 0 .58.2 1.1a2.7 2.7 0 0 0 1.48 1.43 3 3 0 0 0 2.2 0q.51-.22.92-.66l.66.65q-.48.54-1.19.83-.7.28-1.52.28m7.02-5.52q.67 0 1.16.26.5.24.8.77.28.51.28 1.31v3.1h-.97v-2.99q0-.78-.4-1.18-.36-.4-1.06-.4-.52 0-.9.21-.39.2-.6.6t-.2.99v2.77h-.98v-7.54h.97v3.6l-.2-.38q.28-.53.82-.82.56-.3 1.28-.3m6.57 5.5q-.86 0-1.52-.35a2.6 2.6 0 0 1-1.37-2.4q0-.8.34-1.43.36-.61.97-.96.62-.36 1.4-.36t1.38.35.93.97a3 3 0 0 1 .33 1.75h-4.6v-.7h4.09l-.4.25q0-.52-.21-.93a1.7 1.7 0 0 0-1.53-.86q-.51 0-.9.23-.4.22-.62.64a2 2 0 0 0-.23.94v.16q0 .54.25.97.25.4.7.65.45.23 1.03.23.47 0 .86-.16.4-.16.7-.5l.53.64q-.36.42-.91.65-.54.23-1.22.23m6.3 0q-.81 0-1.47-.35a2.6 2.6 0 0 1-1.37-2.4q0-.8.36-1.43.37-.61 1.01-.96.66-.36 1.48-.36.73 0 1.3.3.58.28.9.85l-.75.48a1.8 1.8 0 0 0-1.46-.77q-.53 0-.95.23t-.66.66-.25 1a2 2 0 0 0 .25 1q.24.43.66.67.42.23.95.23.44 0 .81-.18.4-.2.65-.6l.74.47q-.3.57-.9.87-.55.3-1.3.3m4.32-1.36.02-1.25 3.1-2.84h1.18l-2.38 2.34-.53.45zm-.8 1.3v-7.54h.98v7.54zm4.12 0-2.11-2.62.63-.78 2.68 3.4zm5.27 0v-7.12h2.78q.94 0 1.6.3t1.02.85q.35.56.35 1.34 0 .77-.35 1.33-.36.55-1.02.85t-1.6.3h-2.22l.46-.48v2.63zm1.02-2.53-.46-.5h2.2q.96 0 1.47-.43.5-.41.5-1.18 0-.75-.5-1.18-.5-.4-1.48-.41h-2.19l.46-.51zm9.5 2.53v-1.13l-.05-.22v-1.94q0-.62-.36-.96t-1.08-.34a2.8 2.8 0 0 0-1.71.57l-.4-.73q.4-.33.99-.5.6-.2 1.23-.19 1.11 0 1.71.54.6.53.6 1.65v3.25zm-1.77.07q-.6 0-1.05-.2t-.7-.57a1.6 1.6 0 0 1-.04-1.62q.22-.35.69-.56t1.28-.22h1.7v.7h-1.66q-.73 0-.99.25a.8.8 0 0 0-.25.59q0 .39.31.64.31.23.88.23.54 0 .95-.24.42-.25.6-.71l.2.67q-.2.48-.68.76-.5.27-1.23.28m6.48 0q-.81 0-1.26-.44-.45-.45-.45-1.25v-4.95h.98v4.9q0 .44.22.68.21.23.63.23.45 0 .76-.25l.3.7q-.22.2-.54.28-.3.1-.64.1m-2.62-4.65v-.8h3.44v.8zm5.1 4.58V238h.99v5.4zm.5-6.43a.7.7 0 0 1-.48-.18.6.6 0 0 1-.19-.45q0-.27.19-.45a.7.7 0 0 1 .48-.19q.28 0 .46.19.2.17.2.43 0 .28-.19.47a.7.7 0 0 1-.47.18m4.87 6.5q-.86 0-1.52-.36a2.6 2.6 0 0 1-1.38-2.4q0-.8.35-1.43.36-.61.97-.96.62-.36 1.4-.36t1.37.35.94.97a3 3 0 0 1 .33 1.75h-4.6v-.7h4.09l-.4.25q0-.52-.21-.93a1.7 1.7 0 0 0-1.53-.86q-.51 0-.9.23-.4.22-.62.64a2 2 0 0 0-.23.94v.16q0 .54.25.97.25.4.7.65.45.23 1.02.23.48 0 .87-.16.4-.16.7-.5l.53.64q-.37.42-.91.65-.55.23-1.22.23m6.84-5.5q.65 0 1.16.25.5.24.79.77.28.51.28 1.31v3.1h-.97v-2.99q0-.78-.39-1.18-.37-.4-1.07-.4-.52 0-.9.21-.39.2-.6.6t-.2.99v2.77h-.98V238h.93v1.46l-.15-.39q.27-.53.81-.82.56-.3 1.28-.3m6.02 5.5q-.82 0-1.27-.44-.44-.45-.44-1.25v-4.95h.97v4.9q0 .44.22.68.23.23.63.23.46 0 .76-.25l.3.7q-.21.2-.53.28-.3.1-.64.1M148 238.8v-.8h3.44v.8zm8.1 4.58v-7.12h1.03v7.12zm6.02-5.44q.66 0 1.16.26.5.24.8.77.28.51.28 1.31v3.1h-.98v-2.99q0-.78-.39-1.18-.37-.4-1.06-.4-.52 0-.91.21t-.6.6q-.2.4-.2.99v2.77h-.98V238h.94v1.46l-.16-.39q.27-.53.82-.82.54-.3 1.28-.3m6.02 5.5q-.81 0-1.26-.43-.45-.45-.45-1.25v-4.95h.98v4.9q0 .44.21.68.23.23.63.23.46 0 .76-.25l.3.7q-.21.2-.53.28-.3.1-.64.1m-2.63-4.64v-.8h3.44v.8zm8.46 4.58v-1.13l-.05-.22v-1.94q0-.62-.37-.96-.35-.34-1.07-.34a2.8 2.8 0 0 0-1.71.57l-.41-.73q.42-.33 1-.5.59-.2 1.23-.19 1.1 0 1.7.54.6.53.6 1.65v3.25zm-1.77.07q-.6 0-1.06-.2-.45-.21-.69-.57a1.6 1.6 0 0 1-.04-1.62q.21-.35.68-.56t1.28-.22h1.71v.7h-1.67q-.72 0-.98.25a.8.8 0 0 0-.26.59q0 .39.32.64.3.23.87.23.56 0 .96-.24.42-.25.6-.71l.2.67q-.2.48-.69.76-.48.27-1.23.28m5.42-1.37.02-1.25 3.1-2.84h1.19l-2.39 2.34-.53.45zm-.8 1.3v-7.54h.98v7.54zm4.13 0-2.12-2.62.63-.78 2.69 3.4zm4.45.07q-.86 0-1.52-.36a2.6 2.6 0 0 1-1.38-2.4q0-.8.35-1.43.36-.61.97-.96.6-.36 1.39-.36t1.38.35.94.97a3 3 0 0 1 .33 1.75h-4.6v-.7h4.09l-.4.25q0-.52-.21-.93a1.7 1.7 0 0 0-1.53-.86q-.51 0-.9.23-.4.22-.63.64-.22.4-.22.94v.16q0 .54.24.97.25.4.7.65.45.23 1.03.23.48 0 .87-.16.4-.16.69-.5l.54.64q-.37.42-.92.65-.54.23-1.2.23M50.24 275.83v-7.12h.83l3.2 5.39h-.45l3.16-5.39h.83v7.13h-.97v-5.59h.23l-2.81 4.72h-.47l-2.83-4.72h.26v5.58zm12.1.07q-.87 0-1.53-.36a2.6 2.6 0 0 1-1.37-2.4q0-.8.35-1.43.34-.6.96-.96.63-.36 1.4-.36.78 0 1.38.35t.94.97a3 3 0 0 1 .32 1.75H60.2v-.7h4.08l-.4.25q.01-.53-.2-.93a1.7 1.7 0 0 0-1.53-.87q-.52 0-.91.24-.4.22-.62.64a2 2 0 0 0-.22.94v.16q0 .54.24.97.25.42.7.65t1.03.23q.47 0 .86-.16.4-.16.7-.49l.54.63q-.37.43-.92.65-.54.23-1.21.23m6.18 0q-.79 0-1.4-.35t-.97-.97-.36-1.44.36-1.44.96-.96a2.8 2.8 0 0 1 2.64-.04q.56.3.87.91.34.62.34 1.53 0 .9-.32 1.53a2.2 2.2 0 0 1-2.12 1.23m.08-.86q.5 0 .92-.23.41-.24.65-.66.24-.44.24-1.01t-.24-1-.65-.66a2 2 0 0 0-.92-.23q-.52 0-.93.23-.4.24-.65.66-.24.42-.24 1 0 .57.24 1a1.7 1.7 0 0 0 1.58.9m1.84.8v-1.46l.06-1.25-.1-1.25v-3.6h.98v7.56zm4.46.06q-.67 0-1.29-.19-.6-.18-.94-.44l.4-.78q.35.24.86.4.5.16 1.04.16.68 0 .97-.2.3-.18.3-.53 0-.25-.17-.4-.19-.14-.5-.21-.29-.07-.65-.12l-.74-.15a3 3 0 0 1-.67-.24q-.3-.15-.49-.44a1.4 1.4 0 0 1-.18-.75q0-.49.28-.86.27-.37.77-.55.51-.2 1.2-.2.52 0 1.07.12.54.13.9.36l-.42.77a2 2 0 0 0-.77-.33q-.4-.1-.8-.1-.63 0-.95.22-.3.2-.31.53 0 .27.18.43.2.15.49.22l.67.14q.37.06.73.14.38.09.66.24.3.15.5.43.18.27.19.73 0 .48-.29.84t-.8.56-1.24.2m7 .02q-.83 0-1.5-.27a4 4 0 0 1-1.2-.76 3.7 3.7 0 0 1 .01-5.22q.51-.5 1.2-.76.67-.28 1.5-.28.82 0 1.51.29.7.27 1.2.82l-.67.64q-.41-.43-.91-.63a3 3 0 0 0-2.2-.01 2.7 2.7 0 0 0-1.49 1.45q-.2.5-.2 1.08 0 .6.2 1.1a2.7 2.7 0 0 0 1.48 1.44 3 3 0 0 0 2.2 0q.51-.21.92-.65l.66.64q-.48.54-1.19.83-.7.3-1.52.29m7.02-5.53q.67 0 1.16.26.5.25.8.77.28.51.28 1.31v3.1h-.97v-2.99q0-.78-.4-1.18-.36-.4-1.06-.4-.52 0-.9.21-.39.21-.6.6-.2.4-.2.99v2.77h-.98v-7.54h.97v3.6l-.2-.38q.28-.53.82-.82.56-.3 1.28-.3m6.57 5.5q-.86 0-1.52-.35a2.6 2.6 0 0 1-1.37-2.4q0-.8.34-1.43.36-.6.97-.96.62-.36 1.4-.36t1.38.35.93.97a3 3 0 0 1 .33 1.75h-4.6v-.7h4.09l-.4.25q0-.53-.21-.93a1.7 1.7 0 0 0-1.53-.87q-.51 0-.9.24-.4.22-.62.64a2 2 0 0 0-.23.94v.16q0 .54.25.97t.7.65 1.03.23q.47 0 .86-.16.4-.16.7-.49l.53.63q-.36.43-.91.65-.54.23-1.22.23m6.3 0q-.81 0-1.47-.35a2.6 2.6 0 0 1-1.37-2.4q0-.8.36-1.43.37-.6 1.01-.96.66-.36 1.48-.36.73 0 1.3.3.58.28.9.85l-.75.48a1.8 1.8 0 0 0-1.46-.77q-.53 0-.95.23t-.66.66-.25 1a2 2 0 0 0 .25 1q.24.44.66.67t.95.23q.44 0 .81-.18.4-.2.65-.6l.74.48q-.3.56-.9.86-.55.3-1.3.3m4.32-1.36.02-1.25 3.1-2.84h1.18l-2.38 2.34-.53.45zm-.8 1.3v-7.54h.98v7.54zm4.12 0-2.11-2.62.63-.78 2.68 3.4zm5.27 0v-7.12h2.78q.94 0 1.6.3t1.02.85q.35.56.35 1.34 0 .76-.35 1.33-.36.55-1.02.85t-1.6.3h-2.22l.46-.48v2.63zm1.02-2.53-.46-.5h2.2q.96 0 1.47-.42.5-.42.5-1.18t-.5-1.18-1.48-.42h-2.19l.46-.51zm9.5 2.53v-1.13l-.05-.22v-1.94q0-.62-.36-.96t-1.08-.34a2.8 2.8 0 0 0-1.71.58l-.4-.74q.4-.33.99-.5.6-.2 1.23-.19 1.11 0 1.71.54t.6 1.65v3.25zm-1.77.07q-.6 0-1.05-.2t-.7-.57a1.6 1.6 0 0 1-.04-1.62q.22-.35.69-.56t1.28-.22h1.7v.7h-1.66q-.73 0-.99.25a.8.8 0 0 0-.25.59q0 .4.31.64t.88.23q.54 0 .95-.24.42-.24.6-.71l.2.67q-.2.48-.68.76-.5.27-1.23.28m6.48 0q-.81 0-1.26-.44t-.45-1.25v-4.95h.98v4.9q0 .44.22.68.21.23.63.23.45 0 .76-.25l.3.7q-.22.2-.54.28-.3.1-.64.1m-2.62-4.65v-.8h3.44v.8zm5.1 4.58v-5.39h.99v5.4zm.5-6.43a.7.7 0 0 1-.48-.18.6.6 0 0 1-.19-.45q0-.27.19-.45a.7.7 0 0 1 .48-.19q.28 0 .46.19.2.17.2.43 0 .28-.19.47a.7.7 0 0 1-.47.18m4.87 6.5q-.86 0-1.52-.36a2.6 2.6 0 0 1-1.38-2.4q0-.8.35-1.43.36-.6.97-.96.62-.36 1.4-.36t1.37.35.94.97a3 3 0 0 1 .33 1.75h-4.6v-.7h4.09l-.4.25q0-.53-.21-.93a1.7 1.7 0 0 0-1.53-.87q-.51 0-.9.24-.4.22-.62.64a2 2 0 0 0-.23.94v.16q0 .54.25.97t.7.65 1.02.23q.48 0 .87-.16.4-.16.7-.49l.53.63q-.37.43-.91.65-.55.23-1.22.23m6.84-5.5q.65 0 1.16.25t.79.77.28 1.31v3.1h-.97v-2.99q0-.78-.39-1.18-.37-.4-1.07-.4-.52 0-.9.21-.39.21-.6.6-.2.4-.2.99v2.77h-.98v-5.39h.93v1.46l-.15-.39q.27-.53.81-.82.56-.3 1.28-.3m6.02 5.5q-.82 0-1.27-.44-.44-.44-.44-1.25v-4.95h.97v4.9q0 .44.22.68.23.23.63.23.46 0 .76-.25l.3.7q-.21.2-.53.28-.3.1-.64.1m-2.63-4.65v-.8h3.44v.8zm4.72-.19.51-2.06.13.59a.7.7 0 0 1-.5-.19.6.6 0 0 1-.19-.48q0-.32.2-.5.2-.2.49-.2.3 0 .47.2.2.2.19.5l-.01.19-.06.21-.1.32-.49 1.42zm4.2 4.84q-.68 0-1.28-.19-.6-.18-.95-.44l.4-.78q.35.24.86.4t1.04.16q.68 0 .97-.2.3-.18.31-.53 0-.25-.18-.4-.19-.14-.5-.21-.28-.07-.65-.12l-.74-.15a3 3 0 0 1-.67-.24q-.3-.15-.49-.44a1.4 1.4 0 0 1-.18-.75q0-.49.28-.86.27-.37.77-.55.51-.2 1.2-.2.52 0 1.07.12.54.13.9.36l-.42.77a2 2 0 0 0-.77-.33q-.4-.1-.79-.1-.64 0-.96.22-.3.2-.31.53 0 .27.18.43.2.15.49.22l.67.14.73.14q.38.09.66.24.3.15.5.43.19.27.19.73 0 .48-.29.84t-.8.56-1.24.2m9.85.02q-.81 0-1.5-.27a4 4 0 0 1-1.2-.76 3.7 3.7 0 0 1 .02-5.22q.5-.5 1.19-.76.69-.28 1.5-.28.83 0 1.52.29.7.27 1.19.82l-.66.64q-.4-.43-.92-.63-.5-.21-1.09-.21t-1.12.2a2.7 2.7 0 0 0-1.47 1.45q-.2.5-.2 1.08 0 .6.2 1.1a2.7 2.7 0 0 0 1.47 1.44 3 3 0 0 0 2.21 0q.51-.21.92-.65l.66.64q-.49.54-1.2.83-.68.3-1.52.29m6.23-.02a3 3 0 0 1-1.44-.36 2.7 2.7 0 0 1-1.36-2.4q0-.8.36-1.43.37-.6 1-.96t1.44-.36 1.44.36q.63.34 1 .96.36.62.36 1.43t-.37 1.42q-.35.63-1 .98-.62.36-1.43.36m0-.86q.52 0 .93-.23t.65-.66q.23-.44.23-1.01a2 2 0 0 0-.23-1q-.24-.42-.65-.66a2 2 0 0 0-.93-.23q-.51 0-.92.23t-.65.66-.25 1 .25 1a1.7 1.7 0 0 0 1.57.9m7.15-4.65q.66 0 1.16.26.5.25.8.77.28.51.28 1.31v3.1h-.97v-2.99q0-.78-.4-1.18-.37-.4-1.06-.4-.52 0-.9.21-.39.21-.6.6-.2.4-.2.99v2.77h-.99v-5.39h.94v1.46l-.15-.39q.26-.53.81-.82.56-.3 1.28-.3m5.72 5.5q-.67 0-1.28-.18-.6-.18-.95-.44l.4-.78q.36.24.86.4.51.16 1.04.16.68 0 .98-.2.3-.18.3-.53 0-.25-.18-.4-.19-.14-.49-.21l-.66-.12-.73-.15a3 3 0 0 1-.67-.24q-.3-.15-.5-.44a1.4 1.4 0 0 1-.18-.75q0-.49.28-.86.27-.37.77-.55.51-.2 1.2-.2.54 0 1.07.12.56.13.9.36l-.42.77a2 2 0 0 0-.76-.33q-.4-.1-.8-.1-.64 0-.95.22-.32.2-.32.53 0 .27.18.43.2.15.5.22t.66.14a7 7 0 0 1 .74.14q.36.09.66.24t.49.43.19.73q0 .48-.29.84-.27.36-.8.56-.51.2-1.24.2m6.07 0q-.86 0-1.52-.35a2.6 2.6 0 0 1-1.37-2.4q0-.8.34-1.43.36-.6.97-.96.62-.36 1.4-.36t1.38.35q.6.34.93.97a3 3 0 0 1 .33 1.75h-4.6v-.7h4.09l-.4.25q0-.53-.21-.93a1.7 1.7 0 0 0-1.53-.87q-.51 0-.9.24-.4.22-.62.64-.23.4-.23.94v.16q0 .54.25.97t.7.65 1.03.23q.47 0 .86-.16.4-.16.7-.49l.53.63q-.36.43-.92.65-.53.23-1.2.23m4.19 0a.7.7 0 0 1-.49-.19.7.7 0 0 1-.2-.5q0-.31.2-.5.2-.2.49-.2.27 0 .47.2.2.19.2.5a.7.7 0 0 1-.2.5.6.6 0 0 1-.47.2m2.36 0a.7.7 0 0 1-.49-.19.7.7 0 0 1-.2-.5q0-.31.2-.5.2-.2.5-.2.26 0 .46.2.2.19.2.5a.7.7 0 0 1-.2.5.6.6 0 0 1-.47.2m2.36 0a.7.7 0 0 1-.7-.7q0-.3.21-.5.2-.19.5-.19.26 0 .46.2.2.19.2.5a.7.7 0 0 1-.2.5.6.6 0 0 1-.47.2M53.42 307.9q-.81 0-1.5-.27a4 4 0 0 1-1.2-.77 3.7 3.7 0 0 1 .02-5.22 4 4 0 0 1 1.19-.76q.69-.27 1.5-.27.83 0 1.52.28t1.2.83l-.67.64q-.4-.44-.92-.63-.51-.22-1.08-.22-.6 0-1.12.2a2.7 2.7 0 0 0-1.48 1.45q-.2.5-.2 1.09t.2 1.1a2.7 2.7 0 0 0 1.48 1.43 3 3 0 0 0 2.2 0q.51-.21.92-.65l.66.64q-.48.56-1.19.84-.69.28-1.53.28m4.15-.09v-7.55h.98v7.55zm2.97 0v-5.4h.98v5.4zm.49-6.43a.7.7 0 0 1-.48-.18.6.6 0 0 1-.18-.45q0-.27.18-.46a.7.7 0 0 1 .48-.18q.28 0 .46.18.2.18.2.44 0 .27-.19.47a.7.7 0 0 1-.47.18m5.35.99q.66 0 1.16.25.5.26.8.77.28.53.28 1.32v3.1h-.98v-3q0-.76-.38-1.17t-1.07-.4q-.53 0-.9.2-.39.21-.6.6-.21.4-.21 1v2.77h-.98v-5.4h.94v1.46l-.15-.38q.25-.53.81-.83t1.28-.3m4.17 5.44v-5.4h.98v5.4zm.49-6.43a.7.7 0 0 1-.48-.18.6.6 0 0 1-.18-.45q0-.27.18-.46a.7.7 0 0 1 .48-.18q.29 0 .47.18.2.18.2.44 0 .27-.2.47a.7.7 0 0 1-.47.18m4.83 6.5q-.82 0-1.48-.37a2.6 2.6 0 0 1-1.37-2.4q0-.8.36-1.42.37-.63 1.01-.97.66-.36 1.48-.35.73 0 1.3.3.58.28.9.85l-.75.47a1.8 1.8 0 0 0-1.46-.77q-.54 0-.95.23-.42.24-.66.67-.24.4-.24 1a2 2 0 0 0 .24 1q.24.43.66.66t.95.24q.44 0 .81-.19.4-.19.65-.59l.74.47q-.3.56-.9.87-.55.3-1.3.3m6.93-.07v-1.14l-.05-.21v-1.95q0-.62-.37-.95-.35-.35-1.08-.35a2.8 2.8 0 0 0-1.7.58l-.41-.73q.41-.35 1-.51.58-.18 1.23-.18 1.1 0 1.7.54.6.53.6 1.64v3.26zm-1.77.06q-.6 0-1.06-.2-.45-.2-.69-.56a1.6 1.6 0 0 1-.04-1.62q.21-.36.68-.57a3 3 0 0 1 1.28-.21h1.71v.7h-1.67q-.73 0-.98.24a.8.8 0 0 0-.26.6q0 .39.32.63.3.24.87.24.55 0 .96-.25.42-.25.6-.7l.2.66q-.2.48-.69.77-.5.27-1.23.27m4.63-.06v-7.55h.97v7.55zm5.96 0v-7.12h.83l4.71 5.85h-.43v-5.85h1.01v7.12h-.83l-4.71-5.85h.44v5.85zm10.64.06q-.87 0-1.53-.36a2.6 2.6 0 0 1-1.37-2.4q0-.8.34-1.42.36-.63.97-.97.62-.36 1.4-.35.78 0 1.38.34t.93.98a3 3 0 0 1 .33 1.75h-4.59v-.7h4.08l-.4.24q.01-.52-.2-.93a1.7 1.7 0 0 0-1.53-.86q-.52 0-.91.24-.4.21-.62.64a2 2 0 0 0-.23.93v.16q0 .54.25.97t.7.65q.45.24 1.03.24.47 0 .86-.17.4-.16.7-.49l.53.64q-.36.42-.91.65-.54.22-1.21.22m6.35 0q-.86 0-1.53-.36a2.6 2.6 0 0 1-1.37-2.4q0-.8.35-1.42.35-.63.96-.97.63-.36 1.4-.35.78 0 1.38.34t.94.98a3 3 0 0 1 .32 1.75h-4.59v-.7h4.08l-.4.24q.01-.52-.2-.93a1.7 1.7 0 0 0-1.53-.86q-.51 0-.9.24-.4.21-.63.64a2 2 0 0 0-.22.93v.16q0 .54.24.97.25.42.7.65t1.03.24q.47 0 .87-.17.4-.16.69-.49l.54.64q-.37.42-.92.65-.54.22-1.2.22m6.18 0q-.78 0-1.4-.35t-.97-.96q-.36-.63-.36-1.45t.36-1.43.97-.97a2.8 2.8 0 0 1 2.63-.04q.55.3.88.92.33.6.33 1.52t-.32 1.53-.87.93q-.54.3-1.25.3m.08-.85q.51 0 .92-.24.42-.22.65-.66t.24-1q0-.6-.24-1-.23-.43-.65-.67a2 2 0 0 0-.92-.23q-.51 0-.92.23t-.66.67q-.24.4-.24 1 0 .55.25 1a1.7 1.7 0 0 0 1.57.9m1.84.79v-1.45l.07-1.26-.1-1.25v-3.59h.97v7.55zm5.9 0v-5.87q0-.8.47-1.26.46-.48 1.32-.48.31 0 .6.08.3.07.5.24l-.3.74q-.15-.12-.34-.19a1 1 0 0 0-.4-.07q-.44 0-.66.25-.22.23-.22.7v.72l.02.45v4.69zm-.9-4.59v-.8h3.43v.8zm6.7 4.65a3 3 0 0 1-1.44-.36 2.7 2.7 0 0 1-1.36-2.4q0-.8.36-1.42.37-.63 1-.97.63-.36 1.45-.35.8 0 1.43.35.64.34 1 .97.37.6.37 1.42 0 .8-.37 1.43-.36.62-1 .97-.63.36-1.43.36m0-.85q.53 0 .93-.24.42-.22.65-.66t.24-1a2 2 0 0 0-.24-1q-.23-.43-.65-.67a2 2 0 0 0-.92-.23q-.52 0-.93.23-.4.24-.65.67-.24.4-.24 1 0 .55.24 1a1.7 1.7 0 0 0 1.58.9m4.28.79v-5.4h.94v1.47l-.1-.36q.22-.56.76-.86.52-.3 1.3-.3v.95h-.22q-.79 0-1.25.46t-.45 1.35v2.69zm9.37.08q-.81 0-1.56-.24-.74-.26-1.17-.65l.38-.8q.4.36 1.04.6a3.7 3.7 0 0 0 2.32.08q.38-.15.57-.38a1 1 0 0 0 .18-.57.8.8 0 0 0-.25-.6 2 2 0 0 0-.62-.35q-.37-.15-.83-.24l-.93-.24q-.45-.14-.84-.35a2 2 0 0 1-.61-.57 1.7 1.7 0 0 1-.23-.94q0-.55.28-1 .3-.47.9-.75t1.54-.28q.63 0 1.23.16.61.15 1.06.47l-.34.81q-.45-.3-.96-.44t-.99-.14q-.6 0-.98.15-.39.15-.57.41a1 1 0 0 0-.18.57q0 .38.24.6t.62.36.84.24l.92.24q.47.12.84.34.4.21.62.57.24.36.24.92a1.85 1.85 0 0 1-1.21 1.75q-.62.27-1.55.27m6.63-.02q-.88 0-1.53-.36a2.6 2.6 0 0 1-1.37-2.4q0-.8.34-1.42.36-.63.97-.97.62-.36 1.4-.35.77 0 1.38.34t.93.98a3 3 0 0 1 .33 1.75h-4.6v-.7h4.09l-.4.24q0-.52-.21-.93a1.7 1.7 0 0 0-1.53-.86q-.51 0-.9.24-.4.21-.62.64-.23.4-.23.93v.16q0 .54.25.97t.7.65q.45.24 1.03.24.47 0 .86-.17.4-.16.7-.49l.53.64q-.37.42-.91.65-.54.22-1.22.22m3.95-.06v-5.4h.93v1.47l-.09-.36q.23-.56.75-.86.55-.3 1.3-.3v.95h-.22q-.78 0-1.24.46t-.46 1.35v2.69zm5.86 0-2.36-5.4h1.01l2.1 4.9h-.49l2.14-4.9h.95l-2.36 5.4zm4.39 0v-5.4h.98v5.4zm.49-6.43a.7.7 0 0 1-.48-.18.6.6 0 0 1-.18-.45q0-.27.18-.46a.7.7 0 0 1 .48-.18q.28 0 .47.18t.19.44-.19.47a.7.7 0 0 1-.47.18m4.82 6.5q-.82 0-1.47-.37a2.6 2.6 0 0 1-1.37-2.4q0-.8.36-1.42.37-.63 1-.97.66-.36 1.48-.35.75 0 1.3.3.6.28.9.85l-.74.47q-.27-.39-.65-.57-.37-.2-.82-.2-.52 0-.94.23t-.66.67q-.25.4-.25 1a2 2 0 0 0 .25 1q.24.43.66.66t.94.24q.45 0 .82-.19.38-.19.65-.59l.74.47q-.3.56-.9.87-.55.3-1.3.3m5.91 0q-.86 0-1.53-.37a2.6 2.6 0 0 1-1.37-2.4q0-.8.35-1.42.35-.63.96-.97.63-.36 1.4-.35.78 0 1.38.34t.94.98a3 3 0 0 1 .32 1.75h-4.59v-.7h4.08l-.4.24q.01-.52-.2-.93a1.7 1.7 0 0 0-1.53-.86q-.51 0-.9.24-.4.21-.63.64-.22.4-.22.93v.16q0 .54.24.97.25.42.7.65t1.03.24q.47 0 .87-.17.4-.16.69-.49l.54.64q-.37.42-.92.65-.54.22-1.2.22m8.83.01q-.71 0-1.28-.23a2 2 0 0 1-.88-.65q-.33-.42-.33-.97 0-.48.21-.88.22-.39.69-.76t1.23-.77q.61-.32.96-.57.36-.25.5-.46t.15-.48a.7.7 0 0 0-.24-.56q-.25-.22-.7-.22-.48 0-.75.24a.8.8 0 0 0-.27.62q0 .2.06.38.07.18.25.4l.52.55 3.76 3.74-.55.65-4-3.98a6 6 0 0 1-.56-.63 2 2 0 0 1-.3-.55 1.6 1.6 0 0 1 .15-1.37q.24-.36.67-.56t1.02-.2q.54 0 .93.18.4.18.61.5.23.34.23.8 0 .4-.2.75t-.64.68-1.18.7q-.6.3-.95.59-.35.27-.5.53-.14.26-.14.58a1 1 0 0 0 .19.6q.2.25.56.4.37.14.84.14.69 0 1.24-.3t.91-.88q.38-.6.55-1.47l.78.26a5 5 0 0 1-.7 1.74 3.3 3.3 0 0 1-2.84 1.46m10.15 0q-.81 0-1.56-.24-.74-.26-1.17-.65l.38-.8q.4.36 1.04.6a3.7 3.7 0 0 0 2.32.08q.38-.15.57-.38a1 1 0 0 0 .18-.57.8.8 0 0 0-.24-.6 2 2 0 0 0-.62-.35q-.38-.15-.84-.24l-.93-.24q-.45-.14-.84-.35a2 2 0 0 1-.6-.57 1.7 1.7 0 0 1-.24-.94q0-.55.28-1 .3-.47.9-.75t1.54-.28q.63 0 1.23.16.61.15 1.06.47l-.33.81q-.45-.3-.97-.44-.51-.14-.99-.14-.6 0-.98.15-.39.15-.57.41a1 1 0 0 0-.18.57q0 .38.24.6t.62.36.84.24l.92.24q.47.12.84.34.4.21.62.57.24.36.24.92a1.85 1.85 0 0 1-1.21 1.75q-.62.27-1.55.27m4.46-.02a.7.7 0 0 1-.49-.2.7.7 0 0 1-.2-.5q0-.3.2-.5t.49-.2q.27 0 .47.2t.2.5-.2.5a.6.6 0 0 1-.47.2m2.36 0a.7.7 0 0 1-.7-.7q0-.3.21-.5t.49-.2.47.2.2.5-.2.5a.6.6 0 0 1-.47.2m2.36 0a.7.7 0 0 1-.7-.7q0-.3.21-.5t.49-.2.47.2.2.5-.2.5a.6.6 0 0 1-.47.2"/><path fill="#f4f7f8" d="M37.54 0h180.22v130.81H37.54z"/><rect width="168.59" height="124.99" x="43.36" y="5.81" fill="#073e54" rx="5.81"/><path fill="#fff" d="M56.33 25.66c-2.2 0-3.86-1.54-3.86-3.69s1.65-3.68 3.87-3.68c1.23 0 2.26.45 2.93 1.26l-1.06.98a2.3 2.3 0 0 0-1.79-.84c-1.33 0-2.28.94-2.28 2.28 0 1.35.95 2.28 2.28 2.28q1.07 0 1.8-.84l1.05.97a3.7 3.7 0 0 1-2.94 1.28m4.07-.13v-7.55h1.58v7.55zm3.97-6.23c-.59 0-.98-.39-.98-.89s.4-.88.98-.88c.6 0 .99.36.99.85 0 .53-.4.92-.99.92m-.8 6.23v-5.47h1.6v5.47zm6.52-5.55c1.3 0 2.27.75 2.27 2.42v3.13h-1.59v-2.89c0-.88-.4-1.29-1.1-1.29-.77 0-1.32.47-1.32 1.48v2.7h-1.59v-5.47h1.52v.64a2.4 2.4 0 0 1 1.81-.72m4.62-.68c-.59 0-.98-.39-.98-.89s.4-.88.98-.88c.6 0 1 .36 1 .85 0 .53-.4.92-1 .92m-.79 6.23v-5.47h1.59v5.47zm5.83.09c-1.78 0-3.05-1.17-3.05-2.82s1.27-2.82 3.05-2.82c1.15 0 2.05.5 2.45 1.4l-1.23.65q-.46-.76-1.23-.75c-.8 0-1.44.56-1.44 1.52 0 .95.64 1.51 1.44 1.51.5 0 .94-.22 1.23-.75l1.23.67c-.4.88-1.3 1.39-2.45 1.39m5.7-5.64c1.66 0 2.63.77 2.63 2.43v3.12H86.6v-.68q-.46.76-1.67.77c-1.28 0-2.05-.72-2.05-1.66 0-.97.68-1.64 2.35-1.64h1.26c0-.68-.4-1.08-1.26-1.08-.58 0-1.18.2-1.57.5l-.57-1.1a4 4 0 0 1 2.36-.66m-.13 4.57c.53 0 1-.25 1.17-.75v-.56h-1.08c-.75 0-.98.28-.98.65 0 .4.33.66.9.66m4.32.98v-7.55h1.59v7.55zm11.62 0-.63-1.52h-3.3l-.64 1.52h-1.68l3.17-7.12h1.63l3.18 7.12zm-3.4-2.77h2.25l-1.13-2.73zm7.67 2.86a4.7 4.7 0 0 1-2.37-.6l.53-1.13c.5.31 1.23.52 1.9.52.74 0 1.01-.19 1.01-.5 0-.89-3.3.03-3.3-2.16 0-1.04.93-1.77 2.53-1.77.75 0 1.59.17 2.1.48l-.52 1.13a3 3 0 0 0-1.58-.41c-.71 0-1.02.22-1.02.5 0 .94 3.3.04 3.3 2.2 0 1.01-.94 1.74-2.58 1.74m5.53 0a4.7 4.7 0 0 1-2.37-.6l.53-1.13a4 4 0 0 0 1.9.52c.74 0 1.01-.19 1.01-.5 0-.89-3.3.03-3.3-2.16 0-1.04.93-1.77 2.53-1.77.75 0 1.58.17 2.1.48l-.53 1.13a3 3 0 0 0-1.57-.41c-.72 0-1.02.22-1.02.5 0 .94 3.3.04 3.3 2.2 0 1.01-.94 1.74-2.58 1.74m4.48-6.32c-.59 0-.98-.39-.98-.89s.4-.88.98-.88c.6 0 .99.36.99.85 0 .53-.4.92-.99.92m-.8 6.23v-5.47h1.6v5.47zm5.03.09a4.7 4.7 0 0 1-2.37-.6l.53-1.13c.5.31 1.23.52 1.9.52.74 0 1.01-.19 1.01-.5 0-.89-3.3.03-3.3-2.16 0-1.04.93-1.77 2.53-1.77.75 0 1.59.17 2.1.48l-.52 1.13a3 3 0 0 0-1.58-.41c-.71 0-1.02.22-1.02.5 0 .94 3.3.04 3.3 2.2 0 1.01-.94 1.74-2.58 1.74m6.8-1.47.42 1.12c-.32.23-.8.35-1.3.35-1.28 0-2.03-.67-2.03-1.97V21.4h-.85v-1.22h.84v-1.33h1.6v1.33h1.36v1.22h-1.37v2.23c0 .47.26.72.68.72q.37 0 .64-.2m3.64-4.17c1.67 0 2.64.77 2.64 2.43v3.12h-1.49v-.68q-.45.76-1.67.77c-1.28 0-2.04-.72-2.04-1.66 0-.97.68-1.64 2.35-1.64h1.26c0-.68-.4-1.08-1.26-1.08-.58 0-1.18.2-1.58.5l-.57-1.1a4 4 0 0 1 2.36-.66m-.12 4.57c.53 0 .99-.25 1.17-.75v-.56h-1.09c-.74 0-.97.28-.97.65 0 .4.33.66.9.66m7.65-4.57c1.29 0 2.26.75 2.26 2.42v3.13h-1.58v-2.89c0-.88-.41-1.29-1.11-1.29-.77 0-1.31.47-1.31 1.48v2.7h-1.6v-5.47h1.52v.64a2.4 2.4 0 0 1 1.82-.72m6.93 4.17.43 1.12c-.33.23-.8.35-1.3.35-1.29 0-2.04-.67-2.04-1.97V21.4h-.84v-1.22h.84v-1.33h1.59v1.33h1.36v1.22h-1.36v2.23q.02.71.68.72c.23 0 .47-.07.64-.2"/><g clip-path="url(#e)"><rect width="151.15" height="29.63" x="52.08" y="93.02" fill="#c3c430" rx="2.91"/><path fill="#000" d="M87.66 112.92v-10.18l8 5.1zm20.59-2.01q-.82 0-1.56-.24-.75-.26-1.17-.65l.38-.8q.4.36 1.03.6a3.7 3.7 0 0 0 2.32.09q.39-.15.57-.4a1 1 0 0 0 .19-.56.8.8 0 0 0-.25-.6 2 2 0 0 0-.62-.35q-.38-.14-.83-.24l-.93-.24q-.46-.14-.84-.35a2 2 0 0 1-.61-.57 1.7 1.7 0 0 1-.24-.94q0-.55.29-1 .3-.47.9-.75t1.54-.28q.61 0 1.23.16.6.16 1.06.47l-.34.81a3.7 3.7 0 0 0-1.95-.58q-.6 0-.99.16-.39.15-.57.4a1 1 0 0 0-.17.57q0 .38.23.6.24.23.62.36.39.14.85.24l.91.24q.47.13.85.34t.62.57q.23.36.23.92a1.85 1.85 0 0 1-1.2 1.75q-.62.27-1.55.27m6.24-.02q-.81 0-1.26-.44-.45-.43-.45-1.25v-4.94h.98v4.9q0 .45.21.67.23.24.63.24.46 0 .76-.26l.3.7q-.21.2-.53.29-.3.1-.64.1m-2.63-4.65v-.8h3.44v.8zm8.63 4.6v-1.15l-.05-.21v-1.95q0-.61-.37-.95-.36-.35-1.08-.35a2.8 2.8 0 0 0-1.7.58l-.41-.73q.4-.34 1-.5.59-.2 1.22-.2 1.11 0 1.71.55.6.53.6 1.64v3.26zm-1.77.05q-.6 0-1.06-.2-.45-.2-.7-.56a1.6 1.6 0 0 1-.04-1.62q.23-.36.69-.57a3 3 0 0 1 1.28-.21h1.7v.7h-1.66q-.73 0-.99.24a.8.8 0 0 0-.25.6q0 .39.31.64.32.23.88.23t.96-.25.6-.7l.19.66q-.2.48-.68.77-.5.27-1.23.27m4.8-.06v-5.4h.93v1.47l-.1-.36q.23-.56.76-.86.52-.3 1.3-.3v.95h-.22q-.79 0-1.24.46-.46.47-.46 1.35v2.7zm6.45.06q-.81 0-1.26-.44-.44-.43-.44-1.25v-4.94h.97v4.9q0 .45.22.67.22.24.63.24.46 0 .76-.26l.3.7a1.4 1.4 0 0 1-.53.29q-.3.1-.65.1m-2.62-4.65v-.8h3.44v.8zm10.52 4.67q-.82 0-1.56-.24-.74-.26-1.17-.65l.38-.8q.4.36 1.03.6a4 4 0 0 0 2.32.09q.39-.15.57-.4a1 1 0 0 0 .19-.56.8.8 0 0 0-.25-.6 2 2 0 0 0-.62-.35q-.38-.14-.83-.24l-.93-.24q-.45-.14-.84-.35a2 2 0 0 1-.61-.57 1.7 1.7 0 0 1-.24-.94q0-.55.29-1 .3-.47.9-.75t1.54-.28q.62 0 1.23.16.6.16 1.06.47l-.34.81q-.45-.3-.96-.43-.51-.15-.99-.15-.6 0-.99.16-.37.15-.57.4a1 1 0 0 0-.17.57q0 .38.23.6.25.23.63.36.38.14.84.24l.92.24q.46.13.84.34.4.21.62.57.24.36.24.92 0 .55-.3 1-.3.47-.92.75-.6.27-1.54.27m6.74-.02q-.82 0-1.48-.35a2.6 2.6 0 0 1-1.37-2.4q0-.81.37-1.43t1-.97q.66-.35 1.48-.35.73 0 1.3.3.58.28.9.85l-.75.47a1.8 1.8 0 0 0-1.47-.77q-.51 0-.94.24t-.66.66q-.24.41-.24 1a2 2 0 0 0 .24 1q.24.43.66.66t.95.24q.44 0 .81-.19.4-.18.65-.59l.75.47q-.32.56-.9.87-.57.3-1.3.3m3.75-.06v-5.4h.94v1.47l-.1-.36q.23-.56.76-.86t1.3-.3v.95h-.22q-.79 0-1.24.46-.46.47-.46 1.35v2.7zm4.4 0v-5.4h.97v5.4zm.48-6.43a.7.7 0 0 1-.47-.18.6.6 0 0 1-.19-.45q0-.28.19-.46a.7.7 0 0 1 .47-.18q.3 0 .47.18.2.17.2.44t-.19.47a.7.7 0 0 1-.48.18m5.5 6.5q-.68 0-1.24-.31a2.3 2.3 0 0 1-.88-.93 3 3 0 0 1-.31-1.52q0-.92.32-1.53.33-.6.89-.92.56-.3 1.23-.3.8 0 1.4.34t.97.97q.35.6.35 1.44 0 .82-.35 1.44-.36.61-.97.97-.6.34-1.4.34m-2.85-.07v-7.55h.98v3.6l-.1 1.24.05 1.26v1.45zm2.78-.8q.51 0 .92-.23t.65-.66q.25-.44.25-1 0-.59-.25-1-.23-.43-.65-.66a2 2 0 0 0-.92-.24q-.51 0-.93.24-.4.23-.65.66a2 2 0 0 0-.24 1q0 .56.24 1a1.7 1.7 0 0 0 1.58.9m6.84.86q-.86 0-1.52-.35a2.6 2.6 0 0 1-1.02-.98 3 3 0 0 1-.35-1.42q0-.81.34-1.43.36-.62.97-.97.62-.35 1.4-.35.76 0 1.38.34.6.35.93.98a3 3 0 0 1 .33 1.75h-4.6v-.7h4.09l-.4.24q0-.51-.21-.92a1.7 1.7 0 0 0-1.53-.86q-.51 0-.9.23-.4.22-.62.64-.23.4-.23.93v.17q0 .54.25.96t.7.65 1.02.24q.48 0 .87-.17.4-.16.7-.48l.53.63q-.37.42-.91.65-.54.22-1.22.22"/></g><rect width="151.15" height="49.42" x="52.08" y="34.88" fill="#09435b" rx="5.81"/><path fill="#6a824a" d="M187.24 52.08q-.75 0-1.28-.53a1.8 1.8 0 0 1-.53-1.29v-3.63q0-.75.53-1.29.53-.53 1.28-.53.76 0 1.29.53t.53 1.29v3.63q0 .76-.53 1.29t-1.29.53m-.6 4.24v-1.86a4 4 0 0 1-2.6-1.41 4 4 0 0 1-1.04-2.79h1.22q0 1.26.88 2.14.89.9 2.14.9 1.26 0 2.14-.9.9-.88.9-2.14h1.2q0 1.6-1.03 2.79a4 4 0 0 1-2.6 1.4v1.87zm.6-5.45q.26 0 .43-.18a.6.6 0 0 0 .18-.43v-3.63a.6.6 0 0 0-.18-.43.6.6 0 0 0-.43-.18.6.6 0 0 0-.43.18.6.6 0 0 0-.17.43v3.63q0 .26.17.43.18.18.43.18"/><path fill="#fff" d="M64.17 54.66q-.83 0-1.47-.42-.64-.45-1-1.25a5 5 0 0 1-.37-1.95q0-1.13.36-1.94.37-.82 1.01-1.24.64-.45 1.47-.44.82 0 1.46.44.64.43 1 1.24.39.8.39 1.94T66.64 53q-.37.8-1 1.25-.65.42-1.47.42m0-.67q.63 0 1.1-.33.45-.36.73-1 .26-.66.26-1.62t-.26-1.6a2 2 0 0 0-.73-1 2 2 0 0 0-1.1-.35q-.61 0-1.1.35-.47.33-.73 1-.27.64-.27 1.6t.27 1.62q.26.64.74 1 .48.33 1.09.33m6.86.67q-.83 0-1.47-.42-.64-.45-1-1.25a5 5 0 0 1-.37-1.95q0-1.13.36-1.94.37-.82 1.01-1.24.65-.45 1.47-.44.82 0 1.46.44.64.43 1 1.24.39.8.38 1.94 0 1.14-.37 1.95-.37.8-1 1.25-.65.42-1.47.42m0-.67q.63 0 1.1-.33.45-.36.73-1 .26-.66.26-1.62t-.26-1.6a2 2 0 0 0-.74-1 2 2 0 0 0-1.1-.35q-.6 0-1.08.35-.48.33-.75 1-.26.64-.26 1.6t.26 1.62q.27.64.75 1 .48.33 1.09.33m4.57-3.67a.5.5 0 0 1-.39-.16.6.6 0 0 1-.15-.4q0-.25.15-.4.16-.15.39-.15.22 0 .37.15.17.16.17.4 0 .23-.17.4a.5.5 0 0 1-.37.16m0 4.33a.5.5 0 0 1-.39-.16.6.6 0 0 1-.15-.4q0-.25.15-.4.16-.15.39-.15.22 0 .37.16.17.15.17.4 0 .22-.17.39a.5.5 0 0 1-.37.16m4.57.01q-.82 0-1.47-.42-.64-.45-1-1.25a5 5 0 0 1-.37-1.95q0-1.13.36-1.94.37-.82 1.01-1.24.64-.45 1.47-.44.81 0 1.46.44.64.43 1 1.24.38.8.38 1.94T82.64 53q-.37.8-1.01 1.25-.65.42-1.46.42m0-.67q.63 0 1.1-.33.46-.36.73-1 .26-.66.26-1.62t-.26-1.6a2 2 0 0 0-.74-1 2 2 0 0 0-1.1-.35q-.6 0-1.08.35-.48.33-.75 1-.26.64-.26 1.6t.26 1.62q.27.64.75 1 .48.33 1.09.33m6.85.67q-.81 0-1.46-.42-.64-.45-1-1.25a5 5 0 0 1-.37-1.95q0-1.13.36-1.94.37-.82 1.01-1.24.65-.45 1.46-.44.83 0 1.47.44.64.43 1 1.24.38.8.38 1.94T89.5 53q-.37.8-1.01 1.25-.65.42-1.47.42m0-.67q.65 0 1.1-.33.47-.36.74-1 .26-.66.26-1.62t-.26-1.6a2 2 0 0 0-.74-1 2 2 0 0 0-1.1-.35q-.6 0-1.08.35-.48.33-.75 1-.26.64-.26 1.6t.26 1.62q.27.64.75 1 .47.33 1.08.33"/><rect width="133.71" height="5.81" x="60.8" y="69.76" fill="#0c5c7a" rx="2.91"/></g><path fill="#000" fill-opacity=".87" d="M247.1 70.4q-1.18 0-2.2-.37a5.3 5.3 0 0 1-2.9-2.78 5 5 0 0 1-.41-2.1q0-1.16.4-2.12a5.2 5.2 0 0 1 2.92-2.76q1-.39 2.2-.39 1.32 0 2.38.47 1.08.45 1.8 1.33l-1.5 1.4q-.53-.6-1.17-.89-.65-.3-1.4-.3-.7 0-1.3.23a3 3 0 0 0-1.72 1.7q-.23.6-.23 1.32t.23 1.32q.25.6.69 1.04t1.03.66a3.6 3.6 0 0 0 2.7-.05q.64-.3 1.16-.92l1.51 1.4a5 5 0 0 1-1.8 1.35q-1.05.45-2.4.46m9.2-.06q-1.25 0-2.22-.52a4 4 0 0 1-1.53-1.42 4 4 0 0 1-.55-2.08q0-1.18.55-2.08.57-.91 1.53-1.42a4.6 4.6 0 0 1 2.22-.53q1.23 0 2.2.53a3.8 3.8 0 0 1 2.09 3.5q0 1.16-.55 2.08-.56.9-1.53 1.42a4.6 4.6 0 0 1-2.21.52m0-1.86q.57 0 1.02-.26t.7-.74q.27-.5.27-1.16 0-.69-.26-1.16a1.9 1.9 0 0 0-1.73-1 2 2 0 0 0-1.02.26q-.45.26-.72.74-.27.47-.27 1.16 0 .66.27 1.16.27.48.72.74a2 2 0 0 0 1.02.26m10.68-6.19q.93 0 1.66.38.74.36 1.16 1.13t.42 1.95v4.48h-2.27V66.1q0-.95-.42-1.4-.4-.44-1.16-.44-.54 0-.98.23-.42.21-.66.68-.24.46-.24 1.2v3.86h-2.26V62.4h2.16v2.16l-.4-.65a3 3 0 0 1 1.2-1.2 4 4 0 0 1 1.79-.43m8.62 8.05a3 3 0 0 1-2.16-.7q-.75-.7-.76-2.1v-6.86h2.26v6.83q0 .5.26.77.27.27.72.26.53 0 .91-.29l.61 1.6q-.35.26-.84.38t-1 .11m-4.13-6.01v-1.75h5.42v1.75zm12.16 5.9V68.7l-.14-.33v-2.73q0-.73-.45-1.14-.44-.4-1.35-.4a4 4 0 0 0-2.26.72l-.81-1.58q.64-.45 1.54-.7t1.83-.25q1.8 0 2.78.85.99.84.99 2.63v4.46zm-2.38.11q-.91 0-1.57-.3-.66-.32-1-.86a2 2 0 0 1-.35-1.2q0-.7.33-1.23.36-.52 1.1-.8.73-.31 1.93-.31h2.07v1.32h-1.83q-.8 0-1.1.26-.3.27-.3.65 0 .45.34.7t.95.25q.57 0 1.01-.26.45-.28.66-.8l.35 1.04q-.26.76-.9 1.15-.66.4-1.69.4m10.52 0q-1.28 0-2.25-.5a4 4 0 0 1-1.56-1.44 4 4 0 0 1-.55-2.08q0-1.18.55-2.08.57-.91 1.56-1.42.97-.53 2.25-.53 1.23 0 2.15.53a3 3 0 0 1 1.35 1.46l-1.76.95q-.3-.56-.77-.81-.45-.27-.99-.27-.57 0-1.04.27-.46.26-.75.74-.26.47-.26 1.16.01.68.26 1.16.29.48.75.74.46.27 1.04.26.55 0 1-.24a2 2 0 0 0 .76-.83l1.76.96a3.2 3.2 0 0 1-1.35 1.47q-.92.5-2.15.5m8.24 0a3 3 0 0 1-2.15-.7q-.77-.7-.77-2.1v-6.86h2.27v6.83q0 .5.26.77.25.27.71.26.54 0 .92-.29l.6 1.6q-.34.26-.84.38-.48.11-1 .11m-4.13-6.01v-1.75h5.42v1.75zm11.77 5.9V60.05H310v10.18zm9.49-7.94q.93 0 1.65.38.74.36 1.17 1.13t.42 1.95v4.48h-2.27V66.1q0-.95-.42-1.4-.4-.44-1.16-.44-.54 0-.98.23-.42.21-.67.68-.23.46-.23 1.2v3.86h-2.27V62.4h2.17v2.16l-.4-.65a3 3 0 0 1 1.2-1.2 4 4 0 0 1 1.79-.43m5.7 7.94v-8q0-1.32.78-2.1.78-.8 2.24-.8.49 0 .94.1.46.1.78.32l-.6 1.64a1.5 1.5 0 0 0-.9-.27q-.51 0-.78.29-.26.27-.26.84v.73l.06.97v6.28zm-1.21-5.9v-1.75h5.42v1.75zm10.3 6.01q-1.26 0-2.23-.52a4 4 0 0 1-1.53-1.42 4 4 0 0 1-.55-2.08q0-1.18.55-2.08.57-.91 1.53-1.42.97-.53 2.22-.53 1.23 0 2.21.53a3.8 3.8 0 0 1 2.08 3.5q0 1.16-.55 2.08-.56.9-1.53 1.42a4.6 4.6 0 0 1-2.2.52m0-1.86q.55 0 1-.26.46-.26.72-.74.26-.5.26-1.16 0-.69-.26-1.16a2 2 0 0 0-.71-.74q-.45-.27-1.02-.27t-1.02.27-.72.74q-.26.47-.26 1.16 0 .66.26 1.16a2 2 0 0 0 1.74 1m5.92 1.75V62.4H340v2.2l-.3-.63q.34-.83 1.12-1.25.77-.44 1.87-.44v2.1l-.26-.02-.25-.01q-.93 0-1.5.53t-.57 1.65v3.69zm16.35-7.94q.93 0 1.65.38.72.36 1.13 1.13.42.76.42 1.95v4.48h-2.27V66.1q0-.95-.39-1.4-.4-.44-1.1-.44-.5 0-.9.23-.38.22-.6.67t-.22 1.14v3.93h-2.27V66.1q0-.95-.39-1.4-.37-.44-1.09-.44-.49 0-.89.23-.39.22-.6.67-.22.45-.22 1.14v3.93h-2.27V62.4h2.16v2.14l-.4-.63q.4-.8 1.15-1.2.75-.43 1.71-.43 1.07 0 1.88.56.81.52 1.07 1.65l-.8-.22q.4-.91 1.25-1.45a3.7 3.7 0 0 1 2-.54m10.15 7.94V68.7l-.14-.33v-2.73q0-.73-.45-1.14t-1.36-.4a4 4 0 0 0-2.25.72l-.81-1.58q.64-.45 1.54-.7a7 7 0 0 1 1.83-.25q1.8 0 2.78.85.98.84.98 2.63v4.46zm-2.38.11q-.92 0-1.57-.3-.66-.32-1-.86a2 2 0 0 1-.35-1.2q0-.7.33-1.23.35-.52 1.1-.8.73-.31 1.92-.31h2.08v1.32h-1.83q-.8 0-1.1.26-.3.27-.3.65 0 .45.34.7t.95.25a2 2 0 0 0 1.01-.26q.45-.28.66-.8l.35 1.04q-.26.76-.9 1.15-.65.4-1.7.4m9.88 0q-1.38 0-2.15-.7t-.77-2.1v-6.86h2.26v6.83q0 .5.26.77.27.27.72.26.53 0 .91-.29l.61 1.6q-.35.26-.84.38-.48.11-1 .11m-4.13-6.01v-1.75h5.42v1.75zm7.37 5.9V62.4h2.27v7.82zm1.13-8.91q-.62 0-1.02-.36-.39-.37-.39-.9 0-.54.4-.9.4-.37 1.01-.37.63 0 1.02.35.4.33.4.87 0 .57-.4.95-.38.36-1.02.36m7.08 9.02q-1.25 0-2.22-.52a4 4 0 0 1-1.52-1.42 4 4 0 0 1-.56-2.08q0-1.18.56-2.08t1.52-1.42a4.6 4.6 0 0 1 2.23-.53q1.23 0 2.2.53a3.8 3.8 0 0 1 2.08 3.5q0 1.16-.55 2.08-.56.9-1.53 1.42a4.6 4.6 0 0 1-2.2.52m0-1.86q.57 0 1.02-.26t.71-.74q.27-.5.27-1.16 0-.69-.27-1.16a1.9 1.9 0 0 0-1.72-1 2 2 0 0 0-1.02.26q-.46.26-.73.74-.26.47-.26 1.16 0 .66.26 1.16.28.48.73.74a2 2 0 0 0 1.01.26m10.68-6.19q.94 0 1.66.38.74.36 1.16 1.13t.43 1.95v4.48h-2.27V66.1q0-.95-.42-1.4-.41-.44-1.17-.44-.54 0-.97.23-.42.21-.67.68-.23.46-.23 1.2v3.86h-2.27V62.4h2.17v2.16l-.41-.65a3 3 0 0 1 1.2-1.2 4 4 0 0 1 1.8-.43"/><path fill="#000" d="M242.11 112.48v-8.14h3.35q1.08 0 1.85.35.78.35 1.2 1 .42.66.42 1.55 0 .9-.42 1.55-.42.64-1.2 1-.77.34-1.85.34h-2.51l.67-.7v3.05zm1.51-2.9-.67-.72h2.44q1 0 1.5-.42.51-.44.51-1.2 0-.78-.5-1.2-.51-.42-1.5-.42h-2.45l.67-.74zm9.57 2.98q-1.04 0-1.81-.4a3 3 0 0 1-1.2-1.14 3 3 0 0 1-.42-1.64q0-.93.4-1.64a3 3 0 0 1 1.15-1.13q.73-.4 1.66-.4.9 0 1.62.39.7.4 1.11 1.12a3.4 3.4 0 0 1 .39 2.12h-5.18v-.96h4.4l-.56.3q0-.54-.22-.94a1.8 1.8 0 0 0-1.56-.87q-.54 0-.94.23t-.63.65a2 2 0 0 0-.22.97v.23q0 .56.26.99.25.42.72.66.45.23 1.07.23.51 0 .94-.16a2 2 0 0 0 .74-.51l.78.9q-.42.48-1.06.75-.62.25-1.44.25m4.32-.08v-6.2h1.38v1.7l-.16-.5q.27-.62.87-.95t1.5-.33v1.39l-.18-.03h-.16q-.83 0-1.31.48-.5.48-.5 1.43v3.01zm6.8.08q-.78 0-1.5-.2t-1.13-.5l.56-1.1q.42.27 1 .44.57.18 1.16.18.69 0 .99-.19.3-.18.31-.5 0-.26-.2-.38-.22-.14-.55-.21t-.76-.13q-.41-.06-.82-.15a3 3 0 0 1-.75-.29 2 2 0 0 1-.55-.52q-.2-.32-.2-.86 0-.6.33-1.03.34-.45.94-.67.63-.24 1.46-.25.63 0 1.26.14.64.15 1.06.4l-.56 1.1q-.44-.26-.89-.36t-.88-.1q-.66 0-1 .2-.3.2-.3.5 0 .27.2.42.2.13.55.22.33.08.74.14.42.05.83.15t.74.29q.35.17.56.5t.21.85q0 .57-.35 1-.33.44-.96.68-.63.23-1.5.23m6.85 0q-.95 0-1.7-.4a3.1 3.1 0 0 1-1.6-2.78 3.1 3.1 0 0 1 1.6-2.77q.75-.4 1.7-.4.98 0 1.71.4.75.4 1.18 1.12.42.7.43 1.65a3.1 3.1 0 0 1-1.6 2.78q-.75.4-1.72.4m0-1.24q.54 0 .96-.23t.65-.68.24-1.03-.24-1.04a1.6 1.6 0 0 0-.65-.67 2 2 0 0 0-.94-.23q-.54 0-.96.23a1.7 1.7 0 0 0-.65.67q-.24.43-.24 1.04 0 .6.24 1.03a1.7 1.7 0 0 0 1.6.91m8.23-5.12q.75 0 1.32.3.6.29.94.89t.33 1.53v3.56h-1.45v-3.37q0-.83-.4-1.23-.37-.4-1.08-.4-.51 0-.9.2-.4.21-.62.63-.21.4-.21 1.03v3.14h-1.45v-6.2h1.38v1.67l-.24-.51q.32-.6.94-.91.63-.33 1.44-.33m8.26 6.28v-1.25l-.08-.27v-2.2q0-.63-.38-.99-.39-.36-1.17-.36-.51 0-1.03.17-.5.16-.85.45l-.57-1.06q.5-.37 1.19-.57t1.44-.2q1.36 0 2.08.66.75.63.74 1.98v3.64zm-1.95.08q-.7 0-1.22-.23a2 2 0 0 1-.82-.66q-.27-.43-.28-.97 0-.52.25-.94t.82-.66 1.51-.24h1.8v.96h-1.69q-.75 0-1 .24a.8.8 0 0 0-.26.59q0 .4.32.62.3.24.87.24.54 0 .95-.25.44-.24.62-.72l.24.87q-.2.55-.75.85-.54.3-1.36.3m5.19-.08v-8.62h1.45v8.62zm6.71 0v-8.14h1.51v8.14zm7.1-6.28q.75 0 1.32.3.6.29.94.89t.33 1.53v3.56h-1.45v-3.37q0-.83-.4-1.23-.37-.4-1.08-.4-.51 0-.9.2-.4.21-.62.63-.21.4-.21 1.03v3.14h-1.45v-6.2h1.38v1.67l-.25-.51q.33-.6.95-.91.63-.33 1.44-.33m4.63 6.28v-6.56q0-.98.57-1.55.58-.6 1.65-.6.39 0 .72.09.36.08.59.25l-.4 1.1q-.16-.14-.37-.2a1 1 0 0 0-.43-.06q-.45 0-.69.25t-.23.75v.7l.05.65v5.18zm-1.02-5v-1.16h4.14v1.16zm7.82 5.08q-.95 0-1.7-.4a3.1 3.1 0 0 1-1.6-2.78 3.1 3.1 0 0 1 1.6-2.77q.74-.4 1.7-.4t1.7.4q.76.4 1.18 1.12.43.7.43 1.65a3.2 3.2 0 0 1-1.6 2.78q-.75.4-1.71.4m0-1.24q.53 0 .95-.23t.65-.68q.25-.45.25-1.03 0-.6-.25-1.04a1.6 1.6 0 0 0-.65-.67 2 2 0 0 0-.94-.23q-.54 0-.95.23a1.7 1.7 0 0 0-.66.67q-.24.43-.24 1.04 0 .6.24 1.03a1.7 1.7 0 0 0 1.6.91m4.7 1.16v-6.2h1.38v1.7l-.16-.5q.29-.62.87-.95.6-.33 1.5-.33v1.39l-.17-.03h-.16q-.83 0-1.32.48-.48.48-.49 1.43v3.01zm12.66-6.28q.75 0 1.32.3.58.29.9.89t.33 1.53v3.56h-1.45v-3.37q0-.83-.36-1.23-.37-.4-1.04-.4-.48 0-.85.2-.36.21-.57.62-.2.4-.2 1.03v3.15h-1.45v-3.37q0-.83-.36-1.23t-1.03-.4q-.48 0-.85.2-.36.21-.57.62-.2.4-.2 1.03v3.15h-1.45v-6.2h1.38v1.64l-.24-.48q.3-.6.9-.92t1.38-.32q.87 0 1.5.43.66.45.87 1.3l-.57-.2q.3-.7 1-1.1.7-.43 1.61-.43m8.23 6.28v-1.25l-.08-.27v-2.2q0-.63-.38-.99-.39-.36-1.17-.36-.51 0-1.03.17-.5.16-.85.45l-.57-1.06q.5-.37 1.19-.57t1.44-.2q1.36 0 2.08.66.75.63.74 1.98v3.64zm-1.95.08q-.7 0-1.22-.23a2 2 0 0 1-.82-.66q-.27-.43-.28-.97 0-.52.25-.94t.82-.66a4 4 0 0 1 1.52-.24h1.8v.96h-1.7q-.75 0-1 .24a.8.8 0 0 0-.25.59q0 .4.3.62.32.24.88.24.54 0 .95-.25.45-.24.62-.72l.25.87q-.21.55-.76.85-.54.3-1.36.3m7.53 0q-1.03 0-1.59-.52-.55-.54-.55-1.57v-5.57h1.45v5.54q0 .44.22.68.24.25.64.25.5 0 .81-.26l.41 1.04q-.25.2-.63.31-.37.1-.76.1m-3.17-5.08v-1.16h4.14v1.16zm5.76 5v-6.2h1.45v6.2zm.73-7.23a1 1 0 0 1-.68-.25.8.8 0 0 1-.25-.62q0-.37.25-.62.26-.25.68-.25.41 0 .66.24.27.23.27.6a1 1 0 0 1-.26.65 1 1 0 0 1-.67.25m5.42 7.31q-.95 0-1.7-.4a3.1 3.1 0 0 1-1.6-2.78 3.1 3.1 0 0 1 1.6-2.77q.75-.4 1.7-.4.96 0 1.7.4.76.4 1.18 1.12.43.7.43 1.65a3.1 3.1 0 0 1-1.6 2.78q-.75.4-1.71.4m0-1.24q.53 0 .95-.23t.65-.68q.25-.45.25-1.03 0-.6-.25-1.04a1.6 1.6 0 0 0-.65-.67 2 2 0 0 0-.94-.23q-.54 0-.95.23a1.7 1.7 0 0 0-.65.67q-.25.43-.25 1.04 0 .6.25 1.03a1.7 1.7 0 0 0 1.59.91m8.22-5.12q.75 0 1.33.3.6.29.93.89t.34 1.53v3.56h-1.46v-3.37q0-.83-.4-1.23-.37-.4-1.07-.4-.51 0-.9.2-.4.21-.62.63-.22.4-.21 1.03v3.14h-1.46v-6.2h1.39v1.67l-.25-.51q.33-.6.94-.91.63-.33 1.44-.33"/><rect width="222.37" height="29.07" x="241.02" y="132.02" fill="#fff" rx="2.91"/><rect width="221.64" height="28.34" x="241.38" y="132.38" stroke="#000" stroke-opacity=".23" stroke-width=".73" rx="2.54"/><path fill="#fff" d="M249.74 132.02h61.81v1.45h-61.81z"/><path fill="#000" fill-opacity=".6" d="M254.22 132.1h3.22v.55h-3.22zm.07 3.14h-.65v-6.1h4.19v.56h-3.54zm4.85 0v-4.58h.62v4.58zm.31-5.59a.44.44 0 0 1-.45-.44.4.4 0 0 1 .13-.3q.14-.15.32-.14.2 0 .32.13a.4.4 0 0 1 .13.3q0 .2-.13.32a.4.4 0 0 1-.32.13m2.14 5.6v-4.59h.6v1.25l-.07-.22q.2-.5.64-.79.45-.28 1.13-.28v.6h-.14q-.72 0-1.13.44-.41.43-.41 1.25v2.33zm4.82.04q-.57 0-1.07-.16-.5-.17-.8-.41l.28-.49a3 3 0 0 0 1.63.52q.66 0 .94-.2.3-.22.3-.55 0-.25-.17-.4a1 1 0 0 0-.42-.21q-.27-.09-.59-.13l-.64-.13q-.31-.06-.58-.2-.25-.15-.42-.37-.15-.24-.16-.63 0-.37.2-.67.22-.3.62-.46.4-.18 1-.18a3.4 3.4 0 0 1 1.62.43l-.27.5q-.3-.21-.66-.3-.34-.1-.7-.1-.61 0-.91.22a.6.6 0 0 0-.29.54q0 .27.16.41.16.15.42.24l.59.13q.32.05.63.13.33.07.59.2a1 1 0 0 1 .6.96q0 .4-.24.7-.21.29-.64.45-.42.16-1.02.16m4.58 0q-.64 0-.99-.35a1.3 1.3 0 0 1-.35-.99v-4.3h.62v4.27q0 .4.2.62t.6.22a1 1 0 0 0 .68-.24l.21.44q-.18.17-.44.25-.25.08-.52.08m-2.16-4.11v-.52h2.84v.52zm6.9 4.06v-6.1h.52l4.21 5.3h-.27v-5.3h.63v6.1h-.53l-4.2-5.3h.28v5.3zm9.93 0v-1l-.02-.17v-1.7q0-.58-.34-.9-.31-.3-.96-.3a2.4 2.4 0 0 0-1.53.53l-.28-.46q.35-.3.84-.45a3 3 0 0 1 1.03-.17q.89 0 1.37.45.48.43.49 1.33v2.84zm-1.58.05q-.51 0-.9-.17a1.4 1.4 0 0 1-.57-.47q-.2-.3-.2-.7 0-.36.16-.64.18-.3.56-.47a3 3 0 0 1 1.05-.19h1.58v.47h-1.56q-.66 0-.93.23a.8.8 0 0 0-.25.59q0 .4.3.62.31.24.86.24.52 0 .9-.24.38-.25.56-.7l.13.43q-.16.46-.6.73t-1.09.27m9.69-4.67q.56 0 .96.22.42.2.65.65.24.42.24 1.1v2.65H295v-2.6q0-.72-.35-1.09t-.97-.37q-.47 0-.82.2t-.53.57-.19.89v2.4h-.62v-2.6q0-.72-.34-1.09a1.3 1.3 0 0 0-.98-.37q-.46 0-.81.2-.34.2-.54.57-.19.36-.19.89v2.4h-.62v-4.58h.6v1.24l-.1-.22q.21-.5.67-.77.48-.3 1.11-.29.67 0 1.14.34.48.33.61 1l-.24-.1q.2-.54.7-.89.52-.35 1.24-.35m5.58 4.67q-.72 0-1.26-.3a2.2 2.2 0 0 1-1.15-2.04q0-.68.29-1.2.3-.53.8-.82.51-.3 1.15-.3a2.2 2.2 0 0 1 1.94 1.1 2.5 2.5 0 0 1 .28 1.32v.1h-3.99v-.47h3.65l-.24.18a1.8 1.8 0 0 0-.8-1.49 1.6 1.6 0 0 0-.84-.22q-.47 0-.84.22-.38.22-.59.61t-.2.9v.1q0 .51.22.92.24.4.64.62.42.21.95.22a2 2 0 0 0 .78-.15q.37-.15.63-.45l.35.4q-.3.36-.77.56-.45.19-1 .19m8.13-5.55-1.2.68v-.14l1.2.68-.2.37-1.19-.7.1-.03v1.33h-.4v-1.34l.1.05-1.19.69-.2-.37 1.2-.68v.14l-1.2-.68.2-.37 1.18.7-.09.04v-1.34h.4v1.34l-.1-.05 1.19-.69z"/><g clip-path="url(#f)"><g clip-path="url(#g)"><path fill="#000" fill-opacity=".87" d="M253.31 151.63q-.9 0-1.74-.3t-1.28-.76l.33-.66q.44.42 1.16.7a4.3 4.3 0 0 0 2.77.1q.5-.19.71-.53.24-.31.24-.72 0-.47-.28-.76-.27-.3-.71-.46t-.98-.3q-.54-.12-1.07-.27-.54-.15-.99-.4-.44-.23-.72-.63a2 2 0 0 1-.27-1.06q0-.6.32-1.1.31-.51.99-.82.66-.3 1.7-.31a5 5 0 0 1 2.52.72l-.3.69q-.51-.35-1.11-.52-.58-.16-1.13-.16-.74 0-1.2.2-.48.19-.72.53a1.3 1.3 0 0 0-.22.75q0 .47.27.76.29.3.72.46.45.15.99.29l1.06.28q.53.15.97.4.46.23.72.62.29.4.28 1.04 0 .6-.32 1.1-.33.5-1 .81-.66.3-1.71.3m7.33-.01q-.88 0-1.6-.4a3 3 0 0 1-1.5-2.72q0-.92.4-1.62t1.1-1.09 1.6-.4 1.6.4q.72.4 1.11 1.1t.4 1.6-.4 1.63q-.4.7-1.1 1.1-.72.4-1.6.4m0-.74q.67 0 1.18-.29.5-.3.8-.84t.3-1.25-.3-1.26-.8-.82q-.51-.3-1.17-.3a2.24 2.24 0 0 0-2.27 2.38q0 .72.3 1.25.3.54.81.84t1.15.3m8.06.74q-.78 0-1.43-.37-.63-.37-1.02-1.05a3.6 3.6 0 0 1-.37-1.7q0-1 .37-1.69t1.01-1.06q.64-.35 1.44-.35.88 0 1.56.39.7.39 1.1 1.1.39.7.39 1.6 0 .94-.4 1.64-.39.7-1.09 1.09-.68.4-1.56.4m-3.15 2.2v-8.37h.8v1.84l-.09 1.22.12 1.23v4.07zm3.1-2.94q.65 0 1.16-.29.51-.3.81-.84t.3-1.25q0-.7-.3-1.25a2.2 2.2 0 0 0-1.98-1.13q-.64 0-1.17.3-.51.3-.81.84-.3.53-.3 1.24 0 .72.3 1.25.3.54.81.84.52.3 1.17.3m8-5.48q.75 0 1.31.28.57.3.88.87.33.57.33 1.46v3.55h-.83v-3.47q0-.96-.48-1.45-.48-.5-1.35-.5-.66 0-1.14.27a2 2 0 0 0-.75.75q-.25.49-.25 1.19v3.2h-.83v-8.62h.83v4.2l-.17-.32q.3-.66.93-1.03.64-.39 1.53-.38m4.86 6.16v-6.1h.82v6.1zm.42-7.46a.6.6 0 0 1-.43-.17.6.6 0 0 1-.18-.42q0-.25.18-.4a.6.6 0 0 1 .43-.18.6.6 0 0 1 .43.16q.17.17.17.41 0 .25-.17.43a.6.6 0 0 1-.43.17m6.63 7.46v-1.35l-.03-.22v-2.26q0-.78-.44-1.2-.43-.42-1.3-.41a3.2 3.2 0 0 0-2.03.72l-.37-.62q.46-.4 1.12-.6.65-.22 1.37-.22 1.19 0 1.82.59.66.57.66 1.78v3.79zm-2.1.06q-.69 0-1.2-.23a2 2 0 0 1-.76-.62 1.7 1.7 0 0 1-.27-.93q0-.47.22-.86.23-.4.74-.63.53-.25 1.4-.25h2.1v.62h-2.08q-.88 0-1.23.31t-.34.78a1 1 0 0 0 .4.84q.42.31 1.15.31.69 0 1.2-.31.5-.33.74-.93l.19.57q-.24.6-.82.97-.57.36-1.44.36"/></g></g><rect width="222.37" height="29.07" x="477.92" y="132.02" fill="#fff" rx="2.91"/><rect width="221.64" height="28.34" x="478.29" y="132.38" stroke="#000" stroke-opacity=".23" stroke-width=".73" rx="2.54"/><path fill="#fff" d="M486.64 132.02h59.81v1.45h-59.8z"/><path fill="#000" fill-opacity=".6" d="M490.54 135.24v-6.1h.65v5.55h3.42v.55zm7.98 0v-1l-.02-.17v-1.7q0-.58-.33-.9-.33-.3-.97-.3a2.4 2.4 0 0 0-1.53.53l-.28-.46q.36-.3.84-.45.5-.17 1.03-.17.9 0 1.37.45.49.43.49 1.33v2.84zm-1.57.05q-.52 0-.9-.17a1.4 1.4 0 0 1-.58-.47q-.2-.3-.2-.7 0-.36.17-.64.17-.3.56-.47a3 3 0 0 1 1.04-.19h1.58v.47h-1.56q-.66 0-.92.23a.8.8 0 0 0-.26.59q0 .4.3.62.32.24.86.24.52 0 .9-.24.38-.25.56-.7l.14.43q-.18.46-.61.73-.44.27-1.08.27m5.19 0q-.57 0-1.07-.16-.5-.17-.8-.41l.28-.49a3 3 0 0 0 1.63.52q.66 0 .94-.2.3-.22.3-.55 0-.25-.17-.4a1 1 0 0 0-.42-.21l-.59-.13-.64-.13q-.31-.06-.58-.2a1 1 0 0 1-.42-.37q-.16-.24-.16-.63 0-.37.2-.67.22-.3.62-.46.4-.18 1-.18a3.4 3.4 0 0 1 1.61.43l-.27.5a2.6 2.6 0 0 0-1.35-.4q-.62 0-.91.22a.6.6 0 0 0-.3.54q0 .27.16.41.18.15.43.24l.59.13q.32.05.63.13.32.07.59.2a1 1 0 0 1 .6.96q0 .4-.24.7-.22.29-.64.45t-1.02.16m4.58 0q-.64 0-1-.35a1.3 1.3 0 0 1-.34-.99v-4.3h.62v4.27q0 .4.2.62t.6.22a1 1 0 0 0 .67-.24l.22.44q-.18.17-.44.25t-.53.08m-2.16-4.11v-.52h2.83v.52zm6.89 4.06v-6.1h.53l4.21 5.3h-.28v-5.3h.64v6.1h-.53l-4.2-5.3h.28v5.3zm9.94 0v-1l-.03-.17v-1.7q0-.58-.33-.9-.31-.3-.96-.3a2.4 2.4 0 0 0-1.53.53l-.28-.46q.35-.3.84-.45a3 3 0 0 1 1.03-.17q.88 0 1.37.45.48.43.48 1.33v2.84zm-1.58.05q-.51 0-.9-.17a1.4 1.4 0 0 1-.57-.47q-.2-.3-.2-.7 0-.36.16-.64.17-.3.56-.47a3 3 0 0 1 1.05-.19h1.58v.47h-1.56q-.67 0-.93.23a.8.8 0 0 0-.25.59q0 .4.3.62.31.24.86.24.52 0 .9-.24.38-.25.55-.7l.14.43q-.17.46-.6.73-.44.27-1.09.27m9.69-4.67q.56 0 .96.22.42.2.65.65.23.42.23 1.1v2.65h-.62v-2.6q0-.72-.34-1.09t-.97-.37q-.48 0-.82.2t-.53.57-.19.89v2.4h-.62v-2.6q0-.72-.35-1.09a1.3 1.3 0 0 0-.97-.37q-.46 0-.81.2a1.3 1.3 0 0 0-.54.57q-.2.36-.19.89v2.4h-.62v-4.58h.6v1.24l-.1-.22q.21-.5.67-.77.48-.3 1.11-.29.67 0 1.14.34.48.33.61 1l-.24-.1q.2-.54.7-.89.52-.35 1.24-.35m5.58 4.67q-.72 0-1.26-.3a2.2 2.2 0 0 1-1.15-2.04q0-.68.29-1.2.3-.53.8-.82.51-.3 1.15-.3a2.2 2.2 0 0 1 1.94 1.1 2.5 2.5 0 0 1 .27 1.32v.1h-3.98v-.47h3.65l-.24.18a1.8 1.8 0 0 0-.8-1.49 1.6 1.6 0 0 0-.84-.22q-.47 0-.84.22-.38.22-.59.61t-.2.9v.1q0 .51.22.92.23.4.64.62t.95.22a2 2 0 0 0 .78-.15q.36-.15.63-.45l.35.4q-.3.36-.77.56-.45.19-1 .19m8.13-5.55-1.2.68v-.14l1.2.68-.2.37-1.2-.7.1-.03v1.33h-.4l.01-1.34.09.05-1.18.69-.2-.37 1.2-.68v.14l-1.2-.68.2-.37 1.18.7-.09.04v-1.34h.4v1.34l-.1-.05 1.18-.69z"/><g clip-path="url(#h)"><g clip-path="url(#i)"><path fill="#000" fill-opacity=".87" d="M487.97 151.56v-8.14H491q1.05 0 1.78.34.75.32 1.14.95.4.61.41 1.5 0 .86-.4 1.49-.4.61-1.15.95t-1.78.33h-2.56l.38-.4v2.98zm5.56 0-2.1-2.96h.93l2.1 2.96zm-4.7-2.91-.38-.4h2.54q1.22 0 1.85-.54t.64-1.5q0-.98-.64-1.51-.62-.54-1.85-.54h-2.55l.39-.4zm11.24 2.9v-1.34l-.03-.22v-2.26q0-.78-.44-1.2-.43-.42-1.3-.41a3.3 3.3 0 0 0-2.03.72l-.37-.62q.46-.4 1.12-.6.65-.22 1.37-.22 1.19 0 1.82.59.65.57.65 1.78v3.79zm-2.1.06q-.69 0-1.2-.22a2 2 0 0 1-.77-.62 1.7 1.7 0 0 1-.26-.93q0-.47.22-.86.23-.4.74-.63.53-.25 1.4-.25h2.1v.62h-2.08q-.88 0-1.23.31t-.34.78a1 1 0 0 0 .4.84q.42.31 1.15.31.69 0 1.2-.31.5-.33.74-.93l.19.57q-.24.6-.82.97-.57.36-1.44.36m12.87-6.22q.75 0 1.3.3.55.27.85.86.32.57.32 1.46v3.55h-.83v-3.47q0-.96-.46-1.45-.45-.5-1.3-.5-.62 0-1.09.27-.45.25-.7.75-.25.49-.25 1.19v3.2h-.82v-3.46q0-.96-.47-1.45a1.7 1.7 0 0 0-1.3-.5q-.62 0-1.08.27-.46.25-.72.75-.25.49-.25 1.19v3.2h-.83v-6.1h.8v1.65l-.13-.29q.27-.66.9-1.03.62-.39 1.47-.38.9 0 1.52.45.63.44.82 1.34l-.33-.13q.28-.75.94-1.2.68-.47 1.64-.47m4.82 6.17v-6.1h.82v6.1zm.41-7.46a.6.6 0 0 1-.43-.17.6.6 0 0 1-.17-.42q0-.25.17-.4a.6.6 0 0 1 .43-.18.6.6 0 0 1 .43.16q.18.17.18.41 0 .25-.18.43a.6.6 0 0 1-.43.17m2.82 7.46v-6.1h.79v1.66l-.08-.3q.25-.69.86-1.05.6-.37 1.5-.37v.8h-.1l-.09-.01q-.96 0-1.51.59-.55.58-.55 1.66v3.12zm7.22.06q-.96 0-1.68-.4a3 3 0 0 1-1.53-2.72q0-.9.38-1.6a2.9 2.9 0 0 1 2.6-1.5q.87 0 1.53.39.67.39 1.06 1.1a3.3 3.3 0 0 1 .37 1.74v.13h-5.31v-.62h4.87l-.33.24a2.3 2.3 0 0 0-1.06-1.98q-.49-.3-1.12-.3t-1.13.3q-.5.29-.78.8a2.5 2.5 0 0 0-.28 1.2v.13q0 .7.3 1.24.32.52.86.82.57.3 1.27.3.56 0 1.04-.2t.83-.61l.47.53a2.6 2.6 0 0 1-1.02.75q-.6.25-1.34.25m3.81-.06V151l4.07-5.15.18.28h-4.18v-.69h4.83v.54l-4.06 5.16-.21-.28h4.35v.69z"/></g></g><rect width="222.37" height="29.07" x="241.02" y="175.62" fill="#fff" rx="2.91"/><rect width="221.64" height="28.34" x="241.38" y="175.98" stroke="#000" stroke-opacity=".23" stroke-width=".73" rx="2.54"/><path fill="#fff" d="M249.74 175.62h138.81v1.45H249.74z"/><path fill="#000" fill-opacity=".6" d="M253.64 178.85v-6.1h2.49q.98 0 1.7.38.74.39 1.16 1.08.4.68.4 1.58t-.4 1.59q-.42.69-1.16 1.08-.72.38-1.7.38zm.65-.56h1.8q.81 0 1.4-.32a2.4 2.4 0 0 0 1.27-2.18q0-.74-.33-1.3a2.3 2.3 0 0 0-.94-.87 3 3 0 0 0-1.4-.32h-1.8zm9.4.56v-1.02l-.02-.16v-1.7q0-.57-.34-.9-.31-.3-.96-.3a2.4 2.4 0 0 0-1.53.53l-.28-.46q.35-.3.84-.45.49-.17 1.03-.17.9 0 1.37.45.49.43.49 1.33v2.84zm-1.58.04q-.51 0-.9-.17a1.4 1.4 0 0 1-.57-.47q-.2-.3-.2-.7 0-.35.17-.64t.55-.47a3 3 0 0 1 1.05-.19h1.58v.47h-1.56q-.66 0-.93.23a.8.8 0 0 0-.25.59q0 .39.3.63.31.23.86.23.53 0 .9-.24.38-.24.56-.7l.14.44q-.18.45-.62.72-.42.27-1.08.27m5.41 0q-.64 0-1-.35a1.3 1.3 0 0 1-.34-.98v-4.3h.62v4.26q0 .4.2.62t.6.22a1 1 0 0 0 .67-.24l.22.45q-.18.16-.44.24t-.53.08m-2.16-4.1v-.52h2.83v.51zm6.15 4.1q-.72 0-1.25-.3a2.2 2.2 0 0 1-1.16-2.04q0-.67.3-1.2.29-.52.8-.82.5-.3 1.15-.3a2.2 2.2 0 0 1 1.93 1.11 2.5 2.5 0 0 1 .28 1.3v.1h-3.99v-.46h3.66l-.25.19a1.8 1.8 0 0 0-.79-1.5 1.6 1.6 0 0 0-.84-.22q-.48 0-.85.22-.38.22-.58.61-.22.39-.22.9v.1q0 .53.23.92.24.4.65.62t.95.22a2 2 0 0 0 .77-.15q.38-.15.63-.45l.35.4q-.3.36-.77.56-.45.2-1 .19m7.69 0q-.67 0-1.2-.3a2.3 2.3 0 0 1-1.13-2.04q0-.69.3-1.21t.83-.82 1.2-.3 1.2.3.83.82.3 1.21-.3 1.21q-.3.53-.83.83-.54.3-1.2.3m0-.55q.5 0 .88-.22t.6-.63.22-.94-.22-.94a1.6 1.6 0 0 0-.6-.62 2 2 0 0 0-.88-.23 1.7 1.7 0 0 0-1.48.85q-.23.4-.23.94t.23.94.61.63.87.22m3.81.5v-5.15q0-.6.36-.98t1.03-.38q.26 0 .5.07.25.07.41.22l-.2.46a1 1 0 0 0-.68-.23q-.4 0-.6.22-.22.22-.22.65v.7l.02.28v4.15zm-.82-4.06v-.51h2.83v.51zm6.3 4.06v-6.1h2.63q1.03 0 1.58.41.57.4.57 1.16 0 .5-.23.84t-.63.51a2 2 0 0 1-.87.18l.15-.21q.6 0 1 .18a1.4 1.4 0 0 1 .9 1.4q0 .78-.57 1.2-.57.44-1.72.44zm.65-.53h2.15q.8 0 1.23-.27.43-.28.43-.88t-.43-.86q-.43-.28-1.23-.28h-2.22v-.53h2.01q.74 0 1.13-.28a1 1 0 0 0 .42-.83q0-.56-.42-.83a2 2 0 0 0-1.13-.28h-1.94zm5.9.53v-4.57h.62v4.57zm.32-5.59a.4.4 0 0 1-.32-.12.4.4 0 0 1-.14-.32.4.4 0 0 1 .14-.3q.12-.14.32-.13.19 0 .32.12a.4.4 0 0 1 .13.3q0 .2-.13.32a.4.4 0 0 1-.32.13m2.13 5.6v-4.58h.6v1.24l-.06-.21q.2-.53.64-.8.45-.27 1.13-.28v.6h-.14q-.73 0-1.14.44t-.4 1.25v2.34zm5.19.04q-.64 0-1-.35a1.3 1.3 0 0 1-.34-.98v-4.3h.62v4.26q0 .4.2.62t.59.22a1 1 0 0 0 .68-.24l.22.45q-.18.16-.45.24-.25.08-.52.08m-2.16-4.1v-.52h2.83v.51zm6.7-.57q.56 0 .98.22.42.21.66.65.24.43.24 1.1v2.66h-.62v-2.6q0-.73-.36-1.1t-1.01-.37q-.49 0-.86.2-.35.2-.56.57-.19.36-.19.89v2.4h-.62v-6.47h.62v3.15l-.12-.23q.22-.5.7-.78.48-.3 1.14-.29m7.11 6.32a7 7 0 0 1-.75-1.83 9 9 0 0 1-.26-2.25q0-1.2.26-2.25.27-1.05.75-1.84h.6q-.52.9-.76 1.91a10 10 0 0 0-.24 2.18q0 1.16.24 2.18.24 1 .75 1.9zm3.51-1.7v-2.26l.15.4-2.59-4.24h.69l2.28 3.72H318l2.27-3.72h.65l-2.59 4.24.15-.4v2.26zm5.65 0v-2.26l.14.4-2.58-4.24h.68l2.28 3.72h-.37l2.28-3.72h.64l-2.58 4.24.14-.4v2.26zm5.64 0v-2.26l.15.4-2.59-4.24h.69l2.27 3.72h-.36l2.27-3.72h.65l-2.59 4.24.15-.4v2.26zm5.65 0v-2.26l.14.4-2.59-4.24h.7l2.27 3.72h-.37l2.28-3.72h.64l-2.59 4.24.15-.4v2.26zm3.44-2.09v-.54h2.28v.54zm3.91 2.1v-6.1h.53l2.8 4.75h-.29l2.77-4.76h.53v6.1h-.62v-5.13h.15l-2.55 4.36h-.3l-2.57-4.36h.17v5.13zm8.44 0v-6.1h.53l2.79 4.75h-.28l2.76-4.76h.54v6.1h-.62v-5.13h.15l-2.55 4.36h-.3l-2.57-4.36h.17v5.13zm7.96-2.1v-.54h2.29v.54zm3.91 2.1v-6.1h2.49q.98 0 1.7.38.75.39 1.16 1.08.4.68.4 1.58t-.4 1.59q-.41.69-1.15 1.08-.73.38-1.71.38zm.65-.56h1.8q.82 0 1.4-.32a2.4 2.4 0 0 0 1.27-2.18q0-.74-.33-1.3a2.3 2.3 0 0 0-.93-.87 3 3 0 0 0-1.4-.32h-1.81zm6.67.56v-6.1h2.48q.98 0 1.71.38.75.39 1.15 1.08.42.68.41 1.58 0 .9-.4 1.59-.42.69-1.16 1.08-.74.38-1.7.38zm.64-.56h1.8q.82 0 1.41-.32a2.4 2.4 0 0 0 1.27-2.18q0-.74-.33-1.3a2.3 2.3 0 0 0-.94-.87 3 3 0 0 0-1.4-.32h-1.8zm6.75 2.25h-.6q.52-.9.76-1.9.25-1.02.25-2.18t-.25-2.18a7 7 0 0 0-.76-1.9h.6q.5.76.75 1.83.27 1.04.27 2.25 0 1.2-.27 2.25-.25 1.03-.75 1.83m7.6-7.2-1.2.68v-.14l1.2.68-.2.37-1.19-.69.1-.04v1.33h-.4v-1.33l.1.04-1.18.69-.21-.37 1.2-.68v.14l-1.2-.68.2-.36 1.18.69-.08.04-.01-1.34h.4v1.34l-.1-.05 1.19-.68z"/><g fill="#000" clip-path="url(#j)"><path fill-opacity=".87" d="M251.76 195.16v-7.8l.38.4h-2.3v-.74h2.76v8.14zm5.43-8.21q1.08 0 1.82.49.75.48 1.13 1.38.39.9.39 2.2 0 1.37-.48 2.31-.46.94-1.3 1.42-.83.48-1.94.48-.56 0-1.05-.1a3 3 0 0 1-.88-.34l.33-.68q.31.21.72.3.42.09.86.09 1.32 0 2.1-.84.79-.84.79-2.5a7 7 0 0 0-.17-1.38l.3.22q-.12.6-.5 1.03-.38.42-.93.64t-1.23.22q-.8 0-1.42-.3-.63-.3-.97-.85-.35-.55-.35-1.29 0-.76.36-1.32t.99-.87q.64-.3 1.43-.31m.04.71q-.6 0-1.04.22-.45.21-.7.6a1.7 1.7 0 0 0-.25.95q0 .8.54 1.28.55.47 1.5.47.63 0 1.1-.23a1.7 1.7 0 0 0 1-1.55q0-.45-.25-.84-.24-.4-.72-.65a2.5 2.5 0 0 0-1.19-.25m7.15-.71q1.09 0 1.83.49.75.48 1.13 1.38t.38 2.2q0 1.37-.48 2.31-.46.94-1.3 1.42-.83.48-1.94.48-.54 0-1.05-.1a3 3 0 0 1-.88-.34l.34-.68q.3.21.72.3t.86.09q1.31 0 2.1-.84.78-.84.78-2.5a7 7 0 0 0-.16-1.38l.29.22q-.12.6-.5 1.03-.37.42-.93.64-.54.22-1.22.22-.8 0-1.43-.3-.61-.3-.97-.85-.34-.55-.34-1.29 0-.76.36-1.32t.98-.87q.64-.3 1.43-.31m.04.71q-.58 0-1.04.22-.43.21-.7.6a1.7 1.7 0 0 0-.25.95q0 .8.55 1.28.56.47 1.5.47.63 0 1.09-.23.48-.24.73-.64a1.6 1.6 0 0 0 .03-1.75q-.25-.4-.72-.65a2.5 2.5 0 0 0-1.2-.25m6.94 7.57a5 5 0 0 1-1.67-.28q-.78-.3-1.26-.77l.4-.66q.4.41 1.06.67.68.27 1.47.27 1.01 0 1.55-.44.54-.45.54-1.19 0-.75-.53-1.18-.52-.44-1.67-.44h-.58v-.62l2.52-3.15.11.32h-4.53v-.74H274v.6l-2.51 3.14-.4-.26h.3q1.47 0 2.2.65.72.65.72 1.67 0 .69-.32 1.24-.33.55-.99.85-.65.32-1.64.32m4.33-2.86v-.72h3.05v.72zm7.8 2.86a3 3 0 0 1-2.83-1.9 5 5 0 0 1-.42-2.24q0-1.3.42-2.22.42-.94 1.15-1.42a3 3 0 0 1 1.68-.5q.93 0 1.67.5t1.15 1.42q.43.91.43 2.22 0 1.3-.43 2.23a3 3 0 0 1-2.83 1.9m0-.77q.72 0 1.25-.38.54-.4.84-1.14.3-.75.3-1.85t-.3-1.84-.84-1.14-1.25-.4q-.7 0-1.25.4-.54.39-.85 1.14t-.3 1.84.3 1.85q.3.74.85 1.14.55.38 1.25.38m4.4.7v-.6l3.4-3.3q.45-.46.69-.8t.31-.65.08-.57q0-.7-.48-1.12-.48-.4-1.42-.4-.72 0-1.28.22a2.4 2.4 0 0 0-.94.69l-.6-.52a3 3 0 0 1 1.22-.86 4.4 4.4 0 0 1 3.1-.03 2 2 0 0 1 1.26 1.93q0 .39-.11.78-.1.38-.4.81-.28.42-.82.95l-3.1 3.05-.24-.33h5.05v.75zm6.88-2.8v-.71h3.05v.72zm7.79 2.87q-.94 0-1.68-.49-.73-.5-1.15-1.42a5 5 0 0 1-.42-2.23q0-1.3.42-2.22.43-.94 1.15-1.42a3 3 0 0 1 1.68-.5q.95 0 1.67.5.75.5 1.15 1.42.44.91.44 2.22 0 1.3-.44 2.23a3.4 3.4 0 0 1-1.15 1.42q-.73.5-1.67.49m0-.77q.72 0 1.25-.38.54-.4.84-1.14a5 5 0 0 0 .3-1.85q0-1.1-.3-1.84a2.5 2.5 0 0 0-.83-1.14q-.54-.4-1.26-.4-.7 0-1.25.4-.54.39-.84 1.14t-.3 1.84a5 5 0 0 0 .3 1.85q.3.74.84 1.14.55.38 1.25.38m5.98.7v-7.8l.37.4h-2.29v-.74h2.76v8.14z"/><path fill-opacity=".54" d="M447.76 195.24q-.76 0-1.29-.53a1.8 1.8 0 0 1-.52-1.29q0-.75.52-1.29.52-.52 1.3-.52.75 0 1.28.52.53.53.53 1.3 0 .75-.53 1.28-.52.53-1.29.53m-6.9 2.9q-.6 0-1.03-.42a1.4 1.4 0 0 1-.42-1.03v-10.17q0-.6.42-1.03a1.4 1.4 0 0 1 1.03-.42h.73v-1.46h1.45v1.46h5.81v-1.46h1.46v1.46h.72q.6 0 1.03.42.43.43.43 1.03v10.17q0 .6-.43 1.03a1.4 1.4 0 0 1-1.03.43zm0-1.45h10.17v-7.26h-10.17zm0-8.72h10.17v-1.45h-10.17z"/></g><path fill="#000" d="M247.83 232.8h1.51v8.14h-1.5zm-4.2 8.14h-1.52v-8.14h1.51zm4.32-3.49h-4.45v-1.29h4.45zm6.23 3.57q-.95 0-1.7-.4a3.1 3.1 0 0 1-1.6-2.78 3.1 3.1 0 0 1 1.6-2.77q.75-.4 1.7-.4.96 0 1.7.4.75.4 1.18 1.12.43.7.43 1.65a3.1 3.1 0 0 1-1.6 2.78q-.75.4-1.71.4m0-1.24q.53 0 .95-.24.42-.22.65-.67t.24-1.03q0-.6-.24-1.04t-.65-.67a2 2 0 0 0-.94-.24q-.54 0-.95.24a1.7 1.7 0 0 0-.66.67q-.24.43-.24 1.04 0 .6.24 1.03a1.7 1.7 0 0 0 1.6.9m12.54-5.12q.75 0 1.31.3.58.28.9.89.33.6.33 1.53v3.56h-1.45v-3.37q0-.83-.36-1.23-.36-.42-1.04-.41-.47 0-.84.2-.38.22-.57.63-.2.4-.2 1.03v3.15h-1.45v-3.37q0-.83-.37-1.23-.36-.42-1.03-.41-.48 0-.85.2-.36.22-.57.63-.2.4-.2 1.03v3.15h-1.45v-6.2h1.38v1.64l-.24-.49q.3-.6.9-.91t1.38-.32q.87 0 1.51.43.65.43.86 1.3l-.57-.2q.3-.69 1-1.11t1.62-.42m7.33 6.36q-1.04 0-1.81-.4a3 3 0 0 1-1.2-1.15 3 3 0 0 1-.42-1.63q0-.93.4-1.64a3 3 0 0 1 1.15-1.13q.73-.4 1.66-.4.9 0 1.62.39.7.39 1.11 1.11a3.4 3.4 0 0 1 .38 2.13h-5.17v-.96h4.4l-.56.3q0-.54-.22-.94a2 2 0 0 0-.64-.64 2 2 0 0 0-.92-.24q-.54 0-.94.24a2 2 0 0 0-.63.65 2 2 0 0 0-.22.96v.24q0 .56.25.98.26.44.72.67.47.23 1.07.23.53 0 .95-.16a2 2 0 0 0 .74-.51l.78.89q-.42.5-1.06.76-.63.25-1.44.25m11.35-.08v-1.25l-.08-.27v-2.2q0-.65-.38-.99-.38-.36-1.17-.36-.51 0-1.03.16-.5.16-.85.46l-.57-1.06q.5-.39 1.19-.57.69-.2 1.44-.2 1.36 0 2.08.65.75.65.75 2v3.63zm-1.95.08q-.7 0-1.22-.23a2 2 0 0 1-.81-.66q-.29-.43-.28-.97 0-.52.24-.94.26-.42.83-.66t1.5-.25h1.8v.97h-1.69q-.75 0-1 .24a.8.8 0 0 0-.25.58q0 .4.31.63.3.23.87.23.54 0 .96-.24t.61-.72l.25.87q-.21.55-.76.85-.54.3-1.36.3m7.83 0a3.3 3.3 0 0 1-1.62-.4 3 3 0 0 1-1.11-1.11 3.3 3.3 0 0 1-.41-1.67q0-.97.4-1.68.42-.7 1.12-1.1.72-.4 1.62-.4.77 0 1.4.35.6.34.97 1.03.36.7.36 1.8 0 1.08-.35 1.79a2.4 2.4 0 0 1-.96 1.04q-.62.35-1.42.35m.17-1.24q.53 0 .93-.24.42-.22.67-.67t.25-1.03a2 2 0 0 0-.25-1.04q-.25-.45-.67-.67a2 2 0 0 0-.93-.24q-.51 0-.94.24-.4.23-.66.67-.25.43-.25 1.04 0 .6.25 1.03.26.45.66.67.43.24.94.24m1.89 1.16v-1.47l.06-1.65-.12-1.65v-3.86h1.44v8.63zm5.92.08a3 3 0 0 1-2.73-1.51 3.3 3.3 0 0 1-.4-1.67q0-.97.4-1.68a3 3 0 0 1 1.12-1.1 3.3 3.3 0 0 1 3-.05q.63.34.98 1.03.36.7.36 1.8 0 1.08-.35 1.79-.35.7-.96 1.04t-1.42.35m.18-1.24q.53 0 .93-.24.41-.22.66-.67t.26-1.03q0-.6-.26-1.04-.24-.45-.66-.67a2 2 0 0 0-.93-.24q-.53 0-.95.24-.4.23-.66.67-.24.43-.24 1.04 0 .6.24 1.03.26.45.66.67.42.24.95.24m1.88 1.16v-1.47l.06-1.65-.12-1.65v-3.86h1.44v8.63zm3.3 0v-6.2H306v1.7l-.16-.5q.27-.63.87-.95.6-.33 1.5-.33v1.38l-.17-.02h-.17q-.83 0-1.31.48-.5.48-.49 1.43v3.01zm7.68.08q-1.04 0-1.81-.4a3 3 0 0 1-1.2-1.15 3 3 0 0 1-.42-1.63q0-.93.41-1.64a3 3 0 0 1 1.14-1.13q.73-.4 1.66-.4.9 0 1.62.39.7.39 1.12 1.11a3.4 3.4 0 0 1 .38 2.13h-5.18v-.96h4.41l-.57.3q.01-.54-.22-.94a1.8 1.8 0 0 0-1.56-.87q-.53 0-.94.23-.39.23-.63.65a2 2 0 0 0-.22.96v.24q0 .56.26.98.25.44.72.67t1.07.23q.52 0 .94-.16a2 2 0 0 0 .74-.51l.78.89q-.42.5-1.06.76-.62.25-1.44.25m6.24 0q-.78 0-1.5-.2t-1.13-.5l.56-1.1q.41.27 1 .44a4 4 0 0 0 1.16.18q.69 0 .99-.19t.31-.5q0-.26-.2-.38-.22-.15-.55-.21-.34-.08-.76-.13-.41-.06-.82-.15a3 3 0 0 1-.75-.3q-.33-.19-.55-.52-.2-.32-.2-.86 0-.6.33-1.02.34-.45.94-.67.63-.25 1.46-.25.63 0 1.27.14.63.15 1.05.4l-.55 1.1q-.45-.27-.9-.36a4 4 0 0 0-.88-.1q-.67 0-1 .2-.3.2-.3.5 0 .27.2.41.2.15.55.22.33.09.74.14.42.05.83.15t.74.3q.35.17.56.5t.21.84q0 .6-.35 1.02t-.96.67q-.63.23-1.5.23m5.98 0q-.78 0-1.5-.2-.7-.2-1.13-.5l.56-1.1q.42.27 1 .44a4 4 0 0 0 1.16.18q.69 0 1-.19.3-.19.3-.5 0-.26-.2-.38-.2-.15-.55-.21-.34-.08-.76-.13l-.82-.15a3 3 0 0 1-.75-.3q-.33-.19-.54-.52-.21-.32-.21-.86 0-.6.34-1.02.33-.45.94-.67.61-.25 1.45-.25.63 0 1.27.14t1.06.4l-.56 1.1q-.45-.27-.9-.36a4 4 0 0 0-.88-.1q-.66 0-.99.2-.3.2-.31.5 0 .27.2.41.22.15.55.22.35.09.75.14.42.05.82.15t.75.3q.35.17.56.5.2.32.2.84 0 .6-.34 1.02a2 2 0 0 1-.97.67q-.63.23-1.5.23"/><rect width="459.27" height="29.07" x="241.02" y="260.47" fill="#fff" rx="2.91"/><rect width="458.54" height="28.34" x="241.38" y="260.84" stroke="#000" stroke-opacity=".23" stroke-width=".73" rx="2.54"/><g fill="#000" clip-path="url(#k)"><path fill-opacity=".6" d="M253.31 278.63q-.9 0-1.74-.29-.84-.3-1.28-.77l.33-.66q.44.42 1.16.7a4.3 4.3 0 0 0 2.77.1q.5-.2.71-.52.24-.33.24-.72 0-.48-.28-.77-.27-.3-.71-.45-.44-.18-.98-.3l-1.07-.27q-.54-.16-.99-.4t-.72-.64a2 2 0 0 1-.27-1.06q0-.6.32-1.1.31-.51.99-.81.66-.32 1.7-.32a5 5 0 0 1 2.52.72l-.3.69q-.51-.35-1.11-.51-.58-.17-1.13-.17-.74 0-1.2.2-.48.2-.72.54a1.3 1.3 0 0 0-.22.74q0 .47.27.77.29.3.72.45.45.16.99.3.53.12 1.06.27t.97.4q.46.23.72.63.29.39.28 1.03 0 .6-.32 1.1-.33.5-1 .82-.66.3-1.71.3m6.77-.01q-.85 0-1.32-.47a1.8 1.8 0 0 1-.47-1.31v-5.73h.83v5.68q0 .53.27.83.28.3.79.29.54 0 .9-.31l.3.59q-.25.22-.6.32-.33.1-.7.1m-2.88-5.48v-.68h3.78v.68zm5.79 5.42v-6.1h.79v1.66l-.08-.3q.25-.68.86-1.05.6-.37 1.5-.37v.8h-.1l-.09-.01q-.96 0-1.51.6-.55.57-.55 1.65v3.12zm7.22.06q-.96 0-1.68-.4a3 3 0 0 1-1.53-2.72q0-.9.38-1.6.4-.7 1.07-1.1.69-.4 1.54-.4a2.9 2.9 0 0 1 2.58 1.49 3.3 3.3 0 0 1 .37 1.74v.13h-5.31v-.62h4.87l-.33.25q0-.67-.29-1.18a2 2 0 0 0-1.9-1.1q-.62 0-1.12.29-.51.3-.78.81-.28.52-.28 1.2v.13q0 .69.3 1.23.32.52.86.83.57.29 1.27.29.56 0 1.03-.2.5-.2.84-.6l.47.53a2.6 2.6 0 0 1-1.03.74q-.6.26-1.33.26m7.12 0q-.95 0-1.67-.4a3 3 0 0 1-1.54-2.72q0-.9.39-1.6.4-.7 1.07-1.1.69-.4 1.53-.4.86 0 1.53.4.67.37 1.05 1.09a3.3 3.3 0 0 1 .38 1.74v.13h-5.32v-.62h4.87l-.32.25q0-.67-.3-1.18a2 2 0 0 0-1.89-1.1q-.64 0-1.12.29-.51.3-.78.81-.28.52-.28 1.2v.13q0 .69.3 1.23.31.52.86.83.56.29 1.27.29.55 0 1.03-.2.49-.2.84-.6l.46.53q-.4.48-1.02.74-.6.26-1.34.26m6.47 0q-.87 0-1.33-.47a1.8 1.8 0 0 1-.46-1.31v-5.73h.82v5.68q0 .53.27.83.28.3.79.29.55 0 .9-.31l.3.59q-.24.22-.6.32-.33.1-.7.1m-2.89-5.48v-.68h3.78v.68zm12.77 5.42v-1.35l-.04-.22v-2.25q0-.78-.44-1.2-.43-.42-1.3-.42a3.2 3.2 0 0 0-2.02.72l-.38-.62q.47-.39 1.12-.6.65-.22 1.37-.22 1.2 0 1.83.6.65.57.65 1.77v3.8zm-2.1.06a3 3 0 0 1-1.2-.22 2 2 0 0 1-.77-.63 1.7 1.7 0 0 1-.27-.93q0-.48.22-.86.23-.39.75-.63.5-.24 1.39-.24h2.1v.61h-2.08q-.88 0-1.23.32-.34.3-.34.78a1 1 0 0 0 .41.83q.4.32 1.14.32.7 0 1.2-.32.51-.31.74-.93l.19.57q-.24.6-.82.97-.57.36-1.44.36m7.67 0q-.87 0-1.57-.4a3 3 0 0 1-1.08-1.09 3.3 3.3 0 0 1-.4-1.63q0-.93.4-1.62.39-.7 1.08-1.09t1.57-.4q.8 0 1.43.37.64.37 1.01 1.06.38.68.38 1.68t-.37 1.69a2.6 2.6 0 0 1-2.45 1.43m.06-.73q.65 0 1.16-.3.53-.3.81-.83.3-.55.3-1.26 0-.72-.3-1.25-.3-.54-.81-.83-.51-.3-1.16-.3a2.2 2.2 0 0 0-1.97 1.13q-.3.53-.3 1.25t.3 1.26.82.84q.5.29 1.15.29m2.3.67v-1.84l.08-1.23-.12-1.23v-4.33h.83v8.63zm5.63.06q-.87 0-1.57-.4a3 3 0 0 1-1.08-1.09 3.3 3.3 0 0 1-.4-1.63q0-.93.4-1.62.39-.7 1.08-1.09t1.57-.4q.79 0 1.43.37t1 1.06q.4.68.4 1.68t-.38 1.69a2.6 2.6 0 0 1-2.45 1.43m.06-.73q.65 0 1.16-.3.53-.3.81-.83.3-.55.3-1.26 0-.72-.3-1.25-.3-.54-.81-.83-.51-.3-1.16-.3a2.2 2.2 0 0 0-1.97 1.13q-.3.53-.3 1.25t.3 1.26.81.84 1.16.29m2.3.67v-1.84l.08-1.23-.12-1.23v-4.33h.83v8.63zm3.2 0v-6.1h.79v1.66l-.08-.3q.25-.68.86-1.05.6-.37 1.5-.37v.8h-.1l-.09-.01q-.96 0-1.51.6-.55.57-.55 1.65v3.12zm7.22.06q-.96 0-1.68-.4a3 3 0 0 1-1.53-2.72q0-.9.38-1.6.4-.7 1.07-1.1.69-.4 1.54-.4t1.52.4q.67.37 1.06 1.09a3.3 3.3 0 0 1 .37 1.74v.13h-5.31v-.62h4.87l-.33.25a2.3 2.3 0 0 0-1.06-2q-.48-.28-1.12-.28-.63 0-1.13.29-.5.3-.78.81-.28.52-.28 1.2v.13q0 .69.3 1.23.32.52.86.83.57.29 1.27.29.56 0 1.04-.2t.83-.6l.47.53a2.6 2.6 0 0 1-1.02.74q-.6.26-1.34.26m6.17 0q-.75 0-1.43-.21-.67-.22-1.06-.55l.37-.65a3.7 3.7 0 0 0 2.18.69q.87 0 1.25-.27a.9.9 0 0 0 .39-.73q0-.34-.22-.52a1.3 1.3 0 0 0-.56-.3q-.35-.1-.78-.17l-.86-.16a3 3 0 0 1-.77-.27q-.35-.19-.57-.5-.2-.3-.2-.84 0-.5.27-.9.28-.39.82-.6.54-.24 1.32-.24a4.5 4.5 0 0 1 2.16.57l-.36.66a3.5 3.5 0 0 0-1.8-.52q-.83 0-1.22.29a.9.9 0 0 0-.38.72q0 .34.2.55.22.2.58.31t.78.17.84.18q.44.09.78.27.36.15.57.47.22.3.22.8 0 .54-.3.94-.3.37-.86.6-.55.2-1.36.2m5.79 0q-.75 0-1.43-.21-.67-.22-1.06-.55l.37-.65a3.7 3.7 0 0 0 2.18.69q.87 0 1.25-.27a.9.9 0 0 0 .38-.73q0-.34-.22-.52a1.3 1.3 0 0 0-.56-.3q-.35-.1-.77-.17l-.86-.16a3 3 0 0 1-.77-.27q-.35-.19-.57-.5-.21-.3-.21-.84 0-.5.28-.9.28-.39.81-.6.54-.24 1.33-.24a4.5 4.5 0 0 1 2.16.57l-.36.66a3.5 3.5 0 0 0-1.8-.52q-.83 0-1.22.29a.9.9 0 0 0-.39.72q0 .34.21.55.22.2.57.31.36.1.78.17t.85.18q.44.09.78.27.36.15.57.47.22.3.22.8 0 .54-.3.94-.3.37-.86.6-.56.2-1.36.2m10.38-7.4-1.6.91v-.19l1.6.91-.27.49-1.58-.92.13-.06v1.78h-.54l.01-1.78.12.06-1.57.92-.28-.49 1.62-.9v.18l-1.62-.9.28-.5 1.57.92-.12.06v-1.78h.53v1.78l-.13-.06 1.58-.91z"/><path fill-opacity=".26" d="m688.37 280.82-4.57-4.58a4.4 4.4 0 0 1-2.77.95 4.6 4.6 0 0 1-3.35-1.37 4.6 4.6 0 0 1-1.37-3.36q0-1.97 1.37-3.35a4.6 4.6 0 0 1 3.35-1.37q1.98 0 3.36 1.37a4.6 4.6 0 0 1 1.37 3.35 4.4 4.4 0 0 1-.95 2.77l4.58 4.57zm-7.34-5.08q1.37 0 2.32-.96.96-.94.95-2.31 0-1.37-.95-2.32a3.2 3.2 0 0 0-2.32-.95q-1.36 0-2.31.95-.96.94-.96 2.31t.96 2.32 2.31.96"/></g><rect width="459.27" height="29.07" x="241.02" y="304.08" fill="#fff" rx="2.91"/><rect width="458.54" height="28.34" x="241.38" y="304.44" stroke="#000" stroke-opacity=".23" stroke-width=".73" rx="2.54"/><g clip-path="url(#l)"><path fill="#000" fill-opacity=".26" d="M253.72 26.25v-7.12h2.77q.94 0 1.6.3t1.02.85q.35.57.35 1.33t-.35 1.34q-.36.54-1.02.85t-1.6.3h-2.22l.46-.48v2.63zm1.01-2.53-.46-.5h2.2q.96 0 1.47-.43.5-.41.5-1.18 0-.75-.5-1.18-.5-.4-1.48-.41h-2.19l.46-.51zm8.66 2.6q-.81 0-1.44-.36a2.7 2.7 0 0 1-1.36-2.4q0-.8.36-1.43.37-.62 1-.96.63-.36 1.44-.36t1.44.36q.64.34 1 .96t.36 1.43-.36 1.42q-.36.63-1 .98-.63.36-1.44.35m0-.86q.52 0 .93-.23t.65-.66q.24-.45.24-1.01a2 2 0 0 0-.24-1q-.23-.42-.65-.66a2 2 0 0 0-.93-.23q-.51 0-.92.23-.4.24-.65.66t-.25 1 .25 1a1.7 1.7 0 0 0 1.57.9m7.3.85q-.67 0-1.23-.3a2.3 2.3 0 0 1-.88-.93q-.33-.6-.33-1.52t.32-1.53.87-.91q.57-.3 1.25-.3.8-.01 1.4.34.62.34.97.96.36.61.36 1.44 0 .82-.36 1.44-.35.63-.96.97-.62.34-1.4.34m-2.86 1.92v-7.37h.94v1.46l-.06 1.25.1 1.25v3.4zm2.78-2.77q.53 0 .93-.23.42-.24.65-.66.24-.45.24-1.01 0-.58-.24-1t-.65-.66a2 2 0 0 0-.93-.23q-.51 0-.92.23t-.65.66a2 2 0 0 0-.24 1q0 .57.24 1a1.8 1.8 0 0 0 1.57.9m6.72.85q-.7 0-1.22-.25a2 2 0 0 1-.82-.77q-.28-.54-.28-1.33v-3.1h.98v3q0 .79.37 1.18.39.4 1.08.4.5 0 .89-.2.37-.22.58-.61.2-.42.2-.98v-2.79h.98v5.4h-.93V24.8l.15.39q-.26.54-.8.83-.51.3-1.18.3m4.9-.06V18.7h.98v7.55zm6.48 0v-1.14l-.05-.2v-1.95q0-.62-.36-.96t-1.08-.34a2.8 2.8 0 0 0-1.71.58l-.4-.74q.4-.34 1-.5.58-.2 1.22-.19 1.11 0 1.71.54.6.53.6 1.65v3.25zm-1.76.06q-.6 0-1.06-.2-.45-.2-.7-.56a1.6 1.6 0 0 1-.04-1.62q.22-.34.69-.57.47-.2 1.28-.2h1.7v.7h-1.66q-.74 0-.99.24a.8.8 0 0 0-.25.59q0 .4.31.64t.88.23q.54 0 .95-.24.42-.24.6-.71l.2.67q-.2.48-.68.76-.5.27-1.24.27m6.64 0q-.81 0-1.26-.43-.45-.45-.45-1.25v-4.95h.98v4.9q0 .45.21.68.23.23.63.23.45 0 .77-.25l.3.7q-.22.2-.54.28-.3.1-.64.1m-2.62-4.64v-.8h3.43v.8zm7.5 4.64q-.88 0-1.53-.35a2.6 2.6 0 0 1-1.37-2.4q0-.8.34-1.43.36-.62.97-.96.62-.36 1.4-.36t1.38.35.93.97a3 3 0 0 1 .33 1.75h-4.6v-.7h4.09l-.4.25q0-.53-.21-.93a1.7 1.7 0 0 0-1.53-.86q-.51 0-.9.23-.4.22-.62.64-.23.4-.23.94v.16q0 .54.25.97.25.4.7.65.45.23 1.02.23.48 0 .87-.16.4-.16.7-.5l.53.64q-.37.42-.91.65-.54.22-1.22.22m7.28-.06V20.4q0-.8.46-1.26.46-.48 1.32-.48.31 0 .6.09.3.06.5.23l-.3.74q-.15-.12-.34-.18a1 1 0 0 0-.41-.07q-.42 0-.65.24-.23.25-.23.7v.73l.03.44v4.7zm-.92-4.58v-.8h3.44v.8zm4.65 4.58v-5.39h.98v5.4zm.5-6.43a.7.7 0 0 1-.49-.18.6.6 0 0 1-.18-.45q0-.27.18-.45a.7.7 0 0 1 .48-.19q.3 0 .47.19.2.17.2.43 0 .28-.19.47a.7.7 0 0 1-.48.18m5.04 6.5q-.87 0-1.53-.36a2.6 2.6 0 0 1-1.37-2.4q0-.8.34-1.43.36-.62.97-.96.62-.36 1.4-.36t1.38.35.93.97a3 3 0 0 1 .33 1.75h-4.59v-.7h4.08l-.4.25q.01-.53-.21-.93a1.7 1.7 0 0 0-1.53-.86q-.5 0-.9.23-.4.22-.62.64a2 2 0 0 0-.23.94v.16q0 .54.25.97.25.4.7.65.45.23 1.03.23.48 0 .86-.16.4-.16.7-.5l.53.64q-.37.42-.91.65-.55.22-1.21.22m4.12-.07V18.7h.97v7.55zm5.36.06q-.8 0-1.4-.34-.63-.34-.97-.97-.36-.62-.36-1.44 0-.83.36-1.44.35-.62.96-.96a2.8 2.8 0 0 1 2.64-.04q.54.3.87.91.34.6.34 1.53 0 .91-.33 1.52a2.2 2.2 0 0 1-2.11 1.23m.08-.85q.5 0 .91-.23t.65-.66q.25-.45.25-1.01 0-.58-.25-1-.23-.42-.65-.66a2 2 0 0 0-.91-.23q-.52 0-.93.23-.4.24-.65.66-.24.42-.24 1 0 .57.24 1a1.8 1.8 0 0 0 1.58.9m1.84.8V24.8l.06-1.25-.1-1.25v-3.6h.98v7.55zm4.62.05q-.67 0-1.28-.18a3 3 0 0 1-.95-.45l.4-.77q.36.24.86.4.51.15 1.04.16.68 0 .98-.2.3-.18.3-.53 0-.25-.18-.4-.18-.14-.49-.21-.3-.08-.66-.12l-.73-.15a3 3 0 0 1-.67-.24q-.3-.17-.5-.44a1.4 1.4 0 0 1-.18-.75q0-.49.28-.86.27-.36.77-.56.51-.2 1.2-.2.54 0 1.07.13.56.12.9.36l-.42.77a2 2 0 0 0-.76-.33q-.4-.1-.8-.1-.63 0-.95.22-.32.2-.32.53 0 .27.19.43.19.13.48.22l.67.14q.38.05.74.14t.66.24.49.43q.2.27.19.73 0 .48-.29.84t-.8.56-1.24.2"/></g><rect width="104.53" height="22.53" x="241.38" y="11.99" stroke="#000" stroke-opacity=".12" stroke-width=".73" rx="2.54"/><path fill="#000" fill-opacity=".54" d="m693.75 19.2-1.02-1.03-4.07 4.06-4.06-4.06-1.02 1.02 4.06 4.06-4.06 4.07 1.02 1.02 4.06-4.06 4.07 4.06 1.02-1.02-4.06-4.07z"/><g clip-path="url(#m)"><path fill="#063e54" d="M499.96 26.34q-.81 0-1.56-.25-.74-.26-1.17-.65l.38-.8q.4.36 1.04.6a3.7 3.7 0 0 0 2.32.09q.38-.15.57-.39a1 1 0 0 0 .18-.57.8.8 0 0 0-.24-.59 2 2 0 0 0-.62-.35q-.38-.15-.84-.25t-.92-.23q-.47-.15-.85-.36a2 2 0 0 1-.61-.57 1.7 1.7 0 0 1-.23-.93q0-.55.28-1.01a2 2 0 0 1 .9-.74q.6-.3 1.54-.29.63 0 1.23.16.61.17 1.06.47l-.33.82q-.46-.3-.97-.44t-.99-.14q-.6 0-.98.15-.39.16-.57.4a1 1 0 0 0-.18.58q0 .38.24.6t.62.35.84.25.92.23q.47.13.84.35.4.21.62.57.24.35.24.91a1.85 1.85 0 0 1-1.21 1.75q-.62.28-1.55.28m7.27-5.53q.66 0 1.16.26.5.24.8.77.28.51.28 1.31v3.1h-.98v-2.99q0-.78-.38-1.18t-1.07-.4q-.52 0-.9.2-.4.22-.6.61-.21.4-.21.99v2.77h-.98V18.7h.98v3.62l-.2-.39q.27-.53.82-.82.56-.3 1.28-.3m6.65 5.5q-.82 0-1.45-.35a2.7 2.7 0 0 1-1.36-2.4q0-.8.37-1.43.36-.62 1-.96.62-.36 1.44-.36.8 0 1.43.36.64.34 1 .96.37.62.37 1.43t-.37 1.42q-.36.63-1 .98-.63.36-1.43.35m0-.85q.51 0 .92-.23t.65-.66q.24-.45.24-1.01a2 2 0 0 0-.24-1q-.23-.42-.65-.66a2 2 0 0 0-.92-.23q-.53 0-.93.23t-.65.66-.24 1 .24 1a1.8 1.8 0 0 0 1.58.9m5.43.8-2-5.4h.92l1.78 4.89h-.44l1.85-4.89h.83l1.8 4.89h-.42l1.82-4.89h.88l-2.02 5.4h-.93l-1.7-4.46h.28l-1.72 4.45zm13.17.05q-.81 0-1.26-.43-.45-.45-.45-1.25v-4.95h.98v4.9q0 .45.21.68.23.23.63.23.46 0 .77-.25l.3.7q-.23.2-.54.28-.3.1-.64.1m-2.62-4.64v-.8h3.44v.8zm5.27 4.58v-5.39h.94v1.47l-.1-.37q.23-.56.76-.85.53-.3 1.3-.3v.95l-.12-.01h-.1q-.79 0-1.24.46-.45.48-.46 1.36v2.68zm7.35 0v-1.14l-.05-.2v-1.95q0-.62-.37-.96-.36-.34-1.08-.34a2.8 2.8 0 0 0-1.7.58l-.41-.74q.4-.34 1-.5.59-.2 1.22-.19 1.11 0 1.71.54.6.53.6 1.65v3.25zm-1.77.06q-.6 0-1.06-.2-.45-.2-.7-.56a1.6 1.6 0 0 1-.04-1.62q.23-.34.69-.57.48-.2 1.28-.2h1.71v.7h-1.67q-.74 0-.99.24a.8.8 0 0 0-.25.59q0 .4.32.64.3.23.87.23.55 0 .96-.24t.6-.71l.19.67q-.2.48-.68.76-.5.27-1.23.27m7.67-5.5q.66 0 1.16.26.5.24.8.77.27.51.28 1.31v3.1h-.98v-2.99q0-.78-.38-1.18t-1.07-.4q-.52 0-.9.2-.4.22-.6.61-.21.4-.21.99v2.77h-.98v-5.39h.94v1.46l-.16-.39q.27-.53.82-.82.56-.3 1.28-.3m5.88 5.5q-.66 0-1.28-.18a3 3 0 0 1-.94-.45l.4-.77q.35.24.86.4.5.15 1.04.16.67 0 .97-.2.3-.18.3-.53 0-.25-.18-.4-.18-.14-.48-.21l-.67-.12-.73-.15a3 3 0 0 1-.67-.24q-.3-.17-.49-.44a1.4 1.4 0 0 1-.18-.75q0-.49.27-.86.28-.36.78-.56.51-.2 1.2-.2.52 0 1.06.13.55.12.9.36l-.42.77a2 2 0 0 0-.76-.33q-.4-.1-.8-.1-.63 0-.95.22-.32.2-.32.53 0 .27.19.43.2.13.49.22.3.08.67.14.37.05.73.14.38.09.66.24.3.15.49.43.2.27.2.73 0 .48-.3.84-.27.36-.8.56-.5.2-1.24.2m6.2 0q-.84 0-1.48-.35a2.6 2.6 0 0 1-1.37-2.4q0-.8.36-1.43.37-.62 1.01-.96.64-.36 1.48-.36.73 0 1.3.3.57.28.9.85l-.75.48q-.27-.4-.65-.58-.37-.2-.81-.2-.53 0-.95.24t-.66.66-.25 1a2 2 0 0 0 .25 1q.24.43.66.67.42.23.95.23.44 0 .8-.18.4-.2.66-.6l.74.48q-.3.56-.9.86-.55.3-1.3.3m3.75-.06v-5.39h.93v1.47l-.09-.37q.23-.56.75-.85.54-.3 1.3-.3v.95l-.12-.01h-.1q-.78 0-1.24.46-.45.48-.46 1.36v2.68zm4.4 0v-5.39h.97v5.4zm.48-6.43a.7.7 0 0 1-.48-.18.6.6 0 0 1-.18-.45q0-.27.18-.45a.7.7 0 0 1 .48-.19q.29 0 .47.19.2.17.2.43 0 .28-.2.47a.7.7 0 0 1-.47.18m5.5 6.5q-.68 0-1.23-.31a2.3 2.3 0 0 1-.88-.93q-.33-.6-.33-1.52t.32-1.53.87-.91 1.25-.3q.8-.01 1.4.34.62.34.97.96.36.61.36 1.44 0 .82-.36 1.44-.35.63-.96.97-.62.34-1.4.34m-2.86 1.9v-7.36h.94v1.46l-.06 1.25.1 1.25v3.4zm2.78-2.76q.53 0 .93-.23.42-.24.65-.66.24-.45.24-1.01 0-.58-.24-1t-.65-.66a2 2 0 0 0-.93-.23q-.51 0-.92.23t-.66.66a2 2 0 0 0-.23 1q0 .57.23 1a1.8 1.8 0 0 0 1.58.9m6.3.85q-.81 0-1.26-.43-.45-.45-.45-1.25V19.7h.98v4.9q0 .45.21.68.23.23.63.23.45 0 .77-.25l.3.7q-.23.2-.54.28-.3.1-.64.1m-2.62-4.64v-.8h3.43v.8zm5.27 4.58v-5.39h.98v5.4zm.5-6.43a.7.7 0 0 1-.49-.18.6.6 0 0 1-.18-.45q0-.27.18-.45a.7.7 0 0 1 .48-.19q.3 0 .47.19.2.17.2.43 0 .28-.2.47a.7.7 0 0 1-.47.18m4.94 6.5q-.81 0-1.44-.36a2.7 2.7 0 0 1-1.36-2.4q0-.8.36-1.43.37-.62 1-.96.63-.36 1.44-.36t1.44.36q.64.34 1 .96t.36 1.43-.36 1.42q-.36.63-1 .98-.63.36-1.44.35m0-.86q.53 0 .93-.23.42-.24.65-.66.24-.45.24-1.01a2 2 0 0 0-.24-1q-.23-.42-.65-.66a2 2 0 0 0-.93-.23q-.51 0-.92.23-.4.24-.65.66t-.25 1 .25 1a1.8 1.8 0 0 0 1.57.9m7.32-4.65q.66 0 1.16.26.5.24.8.77.28.51.28 1.31v3.1h-.98v-2.99q0-.78-.38-1.18t-1.07-.4q-.52 0-.9.2-.39.22-.6.61-.21.4-.21.99v2.77h-.98v-5.39h.94v1.46l-.15-.39q.25-.53.81-.82.56-.3 1.28-.3m10.7 5.44v-1.14l-.04-.2v-1.95q0-.62-.37-.96-.36-.34-1.08-.34a2.8 2.8 0 0 0-1.7.58l-.41-.74q.4-.34 1-.5.59-.2 1.22-.19 1.11 0 1.71.54.6.53.6 1.65v3.25zm-1.76.06q-.6 0-1.06-.2-.45-.2-.7-.56a1.6 1.6 0 0 1-.04-1.62q.23-.34.69-.57.48-.2 1.28-.2h1.71v.7h-1.67q-.74 0-.99.24a.8.8 0 0 0-.25.59q0 .4.32.64.3.23.87.23.56 0 .96-.24.42-.24.6-.71l.2.67q-.21.48-.69.76-.5.27-1.23.27m7.67-5.5q.66 0 1.16.26.5.24.8.77.28.51.28 1.31v3.1h-.98v-2.99q0-.78-.38-1.18t-1.07-.4q-.52 0-.9.2-.4.22-.6.61-.21.4-.21.99v2.77h-.98v-5.39h.94v1.46l-.15-.39q.26-.53.81-.82.56-.3 1.28-.3m6.57 5.5q-.8 0-1.4-.34-.62-.34-.97-.97-.36-.62-.36-1.44 0-.83.36-1.44.35-.62.96-.96a2.8 2.8 0 0 1 2.64-.04q.54.3.87.91.34.6.34 1.53 0 .91-.33 1.52a2.2 2.2 0 0 1-2.11 1.23m.08-.85q.5 0 .91-.23t.65-.66q.25-.45.25-1.01 0-.58-.25-1-.23-.42-.65-.66a2 2 0 0 0-.91-.23q-.52 0-.93.23-.4.24-.65.66-.24.42-.24 1 0 .57.24 1a1.8 1.8 0 0 0 1.58.9m1.84.8V24.8l.06-1.25-.1-1.25v-3.6h.98v7.55zm8.98-5.45q.66 0 1.16.26.5.24.79.77.28.51.28 1.31v3.1h-.97v-2.99q0-.78-.39-1.18-.37-.4-1.07-.4-.51 0-.9.2-.39.22-.6.61-.2.4-.2.99v2.77h-.98v-5.39h.93v1.46l-.15-.39q.27-.53.81-.82.55-.3 1.29-.3m6.64 5.5q-.81 0-1.44-.35a2.7 2.7 0 0 1-1.37-2.4q0-.8.37-1.43t1-.96q.63-.36 1.44-.36t1.44.36q.63.34 1 .96.36.62.36 1.43t-.37 1.42q-.35.63-1 .98-.62.36-1.43.35m0-.85q.53 0 .93-.23.42-.24.65-.66.23-.45.23-1.01a2 2 0 0 0-.23-1q-.23-.42-.65-.66a2 2 0 0 0-.93-.23q-.51 0-.92.23t-.65.66-.25 1 .25 1a1.8 1.8 0 0 0 1.57.9m6.3.85q-.82 0-1.27-.43-.45-.45-.45-1.25V19.7h.98v4.9q0 .45.21.68.23.23.63.23.46 0 .77-.25l.3.7q-.23.2-.54.28-.3.1-.64.1m-2.63-4.64v-.8h3.44v.8zm7.5 4.64q-.87 0-1.53-.35a2.6 2.6 0 0 1-1.37-2.4q0-.8.34-1.43.36-.62.97-.96.62-.36 1.4-.36t1.38.35.93.97a3 3 0 0 1 .33 1.75h-4.59v-.7h4.08l-.4.25q0-.53-.21-.93a1.7 1.7 0 0 0-1.53-.86q-.51 0-.9.23-.4.22-.62.64-.23.4-.23.94v.16q0 .54.25.97.25.4.7.65.45.23 1.03.23.48 0 .86-.16.4-.16.7-.5l.53.64q-.37.42-.91.65-.54.22-1.21.22m5.66 0q-.67 0-1.28-.18a3 3 0 0 1-.95-.45l.41-.77q.35.24.85.4.51.15 1.04.16.69 0 .98-.2.3-.18.3-.53 0-.25-.18-.4-.18-.14-.49-.21l-.66-.12-.73-.15a3 3 0 0 1-.67-.24q-.3-.17-.49-.44a1.4 1.4 0 0 1-.18-.75q0-.49.27-.86.27-.36.77-.56.51-.2 1.2-.2.53 0 1.07.13.55.12.9.36l-.42.77a2 2 0 0 0-.76-.33q-.4-.1-.8-.1-.63 0-.95.22-.32.2-.32.53 0 .27.19.43.2.13.49.22.3.08.67.14.36.05.73.14.36.09.66.24t.49.43q.2.27.2.73 0 .48-.3.84-.27.36-.8.56-.52.2-1.24.2"/></g><rect width="182.53" height="22.53" x="485.55" y="11.99" stroke="#063e54" stroke-opacity=".5" stroke-width=".73" rx="2.54"/></g></g><path fill="url(#n)" d="M37.54 15.86h686v370h-686z"/></g><defs><clipPath id="c"><rect width="686" height="476.71" x="37.54" fill="#fff" rx="15"/></clipPath><clipPath id="d"><path fill="#fff" d="M37.54 0h180.22v476.71H37.54z"/></clipPath><clipPath id="e"><rect width="151.15" height="29.63" x="52.08" y="93.02" fill="#fff" rx="2.91"/></clipPath><clipPath id="f"><path fill="#fff" d="M249.74 133.47h204.93v28.17H249.74z"/></clipPath><clipPath id="g"><path fill="#fff" d="M249.74 138.56h204.93v18H249.74z"/></clipPath><clipPath id="h"><path fill="#fff" d="M486.64 133.47h204.93v28.17H486.64z"/></clipPath><clipPath id="i"><path fill="#fff" d="M486.64 138.56h204.93v18H486.64z"/></clipPath><clipPath id="j"><path fill="#fff" d="M249.74 177.07h204.93v28.17H249.74z"/></clipPath><clipPath id="k"><path fill="#fff" d="M249.74 260.47h441.83v28.17H249.74z"/></clipPath><clipPath id="l"><rect width="105.25" height="23.25" x="241.02" y="11.63" fill="#fff" rx="2.91"/></clipPath><clipPath id="m"><rect width="183.25" height="23.25" x="485.19" y="11.63" fill="#fff" rx="2.91"/></clipPath><filter id="a" width="761.09" height="553.19" x="0" y="-31.29" color-interpolation-filters="sRGB" filterUnits="userSpaceOnUse"><feFlood flood-opacity="0" result="BackgroundImageFix"/><feColorMatrix in="SourceAlpha" result="hardAlpha" values="0 0 0 0 0 0 0 0 0 0 0 0 0 0 0 0 0 0 127 0"/><feMorphology in="SourceAlpha" radius="4.87" result="effect1_dropShadow_6620_13385"/><feOffset dy="7.65"/><feGaussianBlur stdDeviation="5.21"/><feComposite in2="hardAlpha" operator="out"/><feColorMatrix values="0 0 0 0 0 0 0 0 0 0 0 0 0 0 0 0 0 0 0.2 0"/><feBlend in2="BackgroundImageFix" result="effect1_dropShadow_6620_13385"/><feColorMatrix in="SourceAlpha" result="hardAlpha" values="0 0 0 0 0 0 0 0 0 0 0 0 0 0 0 0 0 0 127 0"/><feMorphology in="SourceAlpha" operator="dilate" radius="2.09" result="effect2_dropShadow_6620_13385"/><feOffset dy="16.69"/><feGaussianBlur stdDeviation="13.21"/><feComposite in2="hardAlpha" operator="out"/><feColorMatrix values="0 0 0 0 0 0 0 0 0 0 0 0 0 0 0 0 0 0 0.14 0"/><feBlend in2="effect1_dropShadow_6620_13385" result="effect2_dropShadow_6620_13385"/><feColorMatrix in="SourceAlpha" result="hardAlpha" values="0 0 0 0 0 0 0 0 0 0 0 0 0 0 0 0 0 0 127 0"/><feMorphology in="SourceAlpha" operator="dilate" radius="5.56" result="effect3_dropShadow_6620_13385"/><feOffset dy="6.26"/><feGaussianBlur stdDeviation="15.99"/><feComposite in2="hardAlpha" operator="out"/><feColorMatrix values="0 0 0 0 0 0 0 0 0 0 0 0 0 0 0 0 0 0 0.12 0"/><feBlend in2="effect2_dropShadow_6620_13385" result="effect3_dropShadow_6620_13385"/><feBlend in="SourceGraphic" in2="effect3_dropShadow_6620_13385" result="shape"/></filter><filter id="b" width="761.09" height="553.19" x="0" y="-31.29" color-interpolation-filters="sRGB" filterUnits="userSpaceOnUse"><feFlood flood-opacity="0" result="BackgroundImageFix"/><feColorMatrix in="SourceAlpha" result="hardAlpha" values="0 0 0 0 0 0 0 0 0 0 0 0 0 0 0 0 0 0 127 0"/><feMorphology in="SourceAlpha" radius="4.87" result="effect1_dropShadow_6620_13385"/><feOffset dy="7.65"/><feGaussianBlur stdDeviation="5.21"/><feComposite in2="hardAlpha" operator="out"/><feColorMatrix values="0 0 0 0 0 0 0 0 0 0 0 0 0 0 0 0 0 0 0.2 0"/><feBlend in2="BackgroundImageFix" result="effect1_dropShadow_6620_13385"/><feColorMatrix in="SourceAlpha" result="hardAlpha" values="0 0 0 0 0 0 0 0 0 0 0 0 0 0 0 0 0 0 127 0"/><feMorphology in="SourceAlpha" operator="dilate" radius="2.09" result="effect2_dropShadow_6620_13385"/><feOffset dy="16.69"/><feGaussianBlur stdDeviation="13.21"/><feComposite in2="hardAlpha" operator="out"/><feColorMatrix values="0 0 0 0 0 0 0 0 0 0 0 0 0 0 0 0 0 0 0.14 0"/><feBlend in2="effect1_dropShadow_6620_13385" result="effect2_dropShadow_6620_13385"/><feColorMatrix in="SourceAlpha" result="hardAlpha" values="0 0 0 0 0 0 0 0 0 0 0 0 0 0 0 0 0 0 127 0"/><feMorphology in="SourceAlpha" operator="dilate" radius="5.56" result="effect3_dropShadow_6620_13385"/><feOffset dy="6.26"/><feGaussianBlur stdDeviation="15.99"/><feComposite in2="hardAlpha" operator="out"/><feColorMatrix values="0 0 0 0 0 0 0 0 0 0 0 0 0 0 0 0 0 0 0.12 0"/><feBlend in2="effect2_dropShadow_6620_13385" result="effect3_dropShadow_6620_13385"/><feBlend in="SourceGraphic" in2="effect3_dropShadow_6620_13385" result="shape"/></filter><linearGradient id="n" x1="380.55" x2="380.55" y1="237.5" y2="385.86" gradientUnits="userSpaceOnUse"><stop stop-opacity="0"/><stop offset="1" stop-opacity=".1"/></linearGradient></defs></svg>